SplineFontDB: 3.2
FontName: PolytonicExtension-Regular
FullName: Polytonic Extension Regular
FamilyName: Polytonic Extension
Weight: Regular
Copyright: Copyright 2001-2021 The STIX Fonts Project Authors https:github.comstipubstixfonts\n\nAdditions for polytonic Greek (c) Andrew Moschou 2025
Version: 2.130
ItalicAngle: 0
UnderlinePosition: -103
UnderlineWidth: 51
Ascent: 762
Descent: 238
InvalidEm: 0
sfntRevision: 0x00022148
LayerCount: 2
Layer: 0 0 "Back" 1
Layer: 1 0 "Fore" 0
XUID: [1021 572 1540606889 20310]
StyleMap: 0x0040
FSType: 0
OS2Version: 4
OS2_WeightWidthSlopeOnly: 0
OS2_UseTypoMetrics: 1
CreationTime: 1608127963
ModificationTime: 1743223303
PfmFamily: 81
TTFWeight: 400
TTFWidth: 5
LineGap: 250
VLineGap: 0
Panose: 0 0 0 0 0 0 0 0 0 0
OS2TypoAscent: 762
OS2TypoAOffset: 0
OS2TypoDescent: -238
OS2TypoDOffset: 0
OS2TypoLinegap: 250
OS2WinAscent: 1047
OS2WinAOffset: 0
OS2WinDescent: 441
OS2WinDOffset: 0
HheadAscent: 762
HheadAOffset: 0
HheadDescent: -238
HheadDOffset: 0
OS2SubXSize: 650
OS2SubYSize: 600
OS2SubXOff: 0
OS2SubYOff: 75
OS2SupXSize: 650
OS2SupYSize: 600
OS2SupXOff: 0
OS2SupYOff: 350
OS2StrikeYSize: 50
OS2StrikeYPos: 300
OS2CapHeight: 657
OS2XHeight: 473
OS2Vendor: 'AGM '
OS2CodePages: 2000019f.00000000
OS2UnicodeRanges: a00002ff.0000001f.00000000.00000000
Lookup: 1 0 0 "'locl' Localized Forms in Latin lookup 0" { "'locl' Localized Forms in Latin lookup 0 subtable"  } ['locl' ('latn' <'ROM ' > ) ]
Lookup: 1 0 0 "'locl' Localized Forms in Latin lookup 1" { "'locl' Localized Forms in Latin lookup 1 subtable"  } ['locl' ('latn' <'TRK ' > ) ]
Lookup: 1 0 0 "'locl' Localized Forms in Greek lookup 44" { "'locl' Localized Forms in Greek lookup 44 subtable"  } ['locl' ('grek' <'dflt' > ) ]
Lookup: 4 0 0 "'ccmp' Glyph Composition/Decomposition lookup 2" { "'ccmp' Glyph Composition/Decomposition lookup 2 subtable"  } ['ccmp' ('DFLT' <'dflt' > 'cyrl' <'dflt' > 'grek' <'dflt' > 'latn' <'LTH ' 'ROM ' 'TRK ' 'dflt' > ) ]

StartChar: .notdef
Encoding: 65536 -1 0
Width: 605
GlyphClass: 2
Flags: MW
HStem: -169 53<61 543 61 595 10 543> -8 115<283.5 319> 631 38<257.5 319> 734 51<61 61 61 543>
VStem: 10 51<-116 734 -116 785> 10 191<560.5 592.5 560.5 785> 126 75<560.5 571.5> 126 96<507.5 524 489.5 571.5> 243 115<32 63.5 32 64> 280 40<170 186 170 196 170 261> 391 90<446.5 556.5> 543 52<-116 734 734 734>
LayerCount: 2
Fore
SplineSet
595 -169 m 1xfa70
 10 -169 l 1
 10 785 l 1
 595 785 l 1
 595 -169 l 1xfa70
61 734 m 1
 61 -116 l 1
 543 -116 l 1
 543 734 l 1
 61 734 l 1
320 170 m 1
 280 170 l 1
 280 196 l 2
 280 326 391 363 391 517 c 0
 391 596 351 631 287 631 c 0
 228 631 201 608 201 577 c 0xf470
 201 544 222 543 222 505 c 0xf970
 222 474 201 461 177 461 c 0
 145 461 126 484 126 531 c 0
 126 612 195 669 296 669 c 0
 394 669 481 624 481 520 c 0
 481 373 320 295 320 186 c 2
 320 170 l 1
301 -8 m 0xfab0
 262 -8 243 15 243 48 c 0
 243 80 265 107 302 107 c 0
 337 107 358 79 358 48 c 0
 358 16 337 -8 301 -8 c 0xfab0
EndSplineSet
EndChar

StartChar: A
Encoding: 65 65 3
Width: 718
GlyphClass: 2
Flags: MW
HStem: 0 30<3 31 189.5 213 3 31 445 460 687 714> 219 40<217 443 217 458 202 443> 642 20G<333 374 374 374>
VStem: 3 143<0 73 30 73> 3 210<0 30 0 30>
AnchorPoint: "Anchor-5" 444 0 basechar 0
AnchorPoint: "Anchor-4" 337 0 basechar 0
AnchorPoint: "Anchor-2" 336 0 basechar 0
AnchorPoint: "Anchor-0" 354 657 basechar 0
LayerCount: 2
Fore
SplineSet
213 0 m 1xe8
 3 0 l 1
 3 30 l 1
 59 30 73 46 121 160 c 2
 333 662 l 1
 374 662 l 1
 611 119 l 2
 640 53 660 30 714 30 c 1
 714 0 l 1
 445 0 l 1
 445 30 l 1
 475 30 514 32 514 67 c 0
 514 81 510 99 497 129 c 2
 458 219 l 1
 202 219 l 1
 157 113 l 2
 151 97 146 82 146 64 c 0xf0
 146 36 166 30 213 30 c 1
 213 0 l 1xe8
217 259 m 1
 443 259 l 1
 333 539 l 1
 330 539 l 1
 217 259 l 1
EndSplineSet
Substitution2: "'c2sc' Capitals to Small Capitals in Latin lookup 5 subtable" A.c2sc
EndChar

StartChar: B
Encoding: 66 66 4
Width: 618
GlyphClass: 2
Flags: MW
HStem: 0 30<36 76.5 36 344 36 76.5> 0 37<285 340 285 344> 320 42<225 293 293 295 225 293> 618 39<275.5 306 306 346> 627 30<36 76.5>
VStem: 133 92<127 320 40 362 362 536 536 576> 452 99<456.5 532> 478 105<120 231.5 120 232>
AnchorPoint: "Anchor-5" 332 0 basechar 0
AnchorPoint: "Anchor-4" 295 0 basechar 0
AnchorPoint: "Anchor-2" 295 0 basechar 0
AnchorPoint: "Anchor-0" 295 657 basechar 0
LayerCount: 2
Fore
SplineSet
344 0 m 2x75
 36 0 l 1x75
 36 30 l 1
 117 30 133 44 133 127 c 2
 133 536 l 2
 133 616 117 627 36 627 c 1xad
 36 657 l 1
 306 657 l 2
 484 657 551 600 551 501 c 0x76
 551 412 492 372 409 350 c 1
 409 346 l 1
 494 332 583 286 583 177 c 0
 583 63 493 0 344 0 c 2x75
297 37 m 0
 383 37 478 48 478 175 c 0
 478 289 388 320 295 320 c 2
 225 320 l 1
 225 40 l 1
 249 38 273 37 297 37 c 0
225 615 m 1
 225 362 l 1
 293 362 l 2
 414 362 452 402 452 493 c 0x76
 452 571 407 618 285 618 c 0
 266 618 245 617 225 615 c 1
EndSplineSet
Substitution2: "'c2sc' Capitals to Small Capitals in Latin lookup 5 subtable" B.c2sc
EndChar

StartChar: C
Encoding: 67 67 5
Width: 670
GlyphClass: 2
Flags: MW
HStem: -11 63<322.5 429.5> 613 20G<532.5 553> 626 43<307 430.5>
VStem: 50 104<238 427 238 437> 575 34<440 669> 579 30<440 669>
AnchorPoint: "Anchor-5" 357 0 basechar 0
AnchorPoint: "Anchor-4" 356 0 basechar 0
AnchorPoint: "Anchor-2" 364 0 basechar 0
AnchorPoint: "Anchor-0" 377 657 basechar 0
LayerCount: 2
Fore
SplineSet
364 -11 m 0xb4
 158 -11 50 133 50 328 c 0xb4
 50 546 186 669 378 669 c 0
 483 669 520 633 545 633 c 0xd4
 561 633 567 649 579 669 c 1
 609 669 l 1
 609 440 l 1xb4
 575 440 l 1xb8
 553 571 482 626 379 626 c 0
 235 626 154 516 154 338 c 0
 154 138 252 52 393 52 c 0
 485 52 552 88 608 149 c 1
 632 128 l 1
 578 47 495 -11 364 -11 c 0xb4
EndSplineSet
Substitution2: "'c2sc' Capitals to Small Capitals in Latin lookup 5 subtable" C.c2sc
EndChar

StartChar: D
Encoding: 68 68 6
Width: 730
GlyphClass: 2
Flags: MW
HStem: 0 30<35 79 35 321 35 79> 0 38<274 321> 616 41<266 310 310 377.5> 627 30<35 72.5>
VStem: 133 92<124 543 543 579.5> 575 105<217 418>
AnchorPoint: "Anchor-5" 335 0 basechar 0
AnchorPoint: "Anchor-4" 321 0 basechar 0
AnchorPoint: "Anchor-2" 322 0 basechar 0
AnchorPoint: "Anchor-0" 343 657 basechar 0
LayerCount: 2
Fore
SplineSet
321 0 m 2x6c
 35 0 l 1x6c
 35 30 l 1
 123 30 133 43 133 124 c 2
 133 543 l 2
 133 616 110 627 35 627 c 1x9c
 35 657 l 1
 310 657 l 2
 518 657 680 576 680 332 c 0
 680 102 537 0 321 0 c 2x6c
284 38 m 0
 466 38 575 98 575 323 c 0
 575 513 481 616 274 616 c 0
 258 616 244 616 225 614 c 1
 225 41 l 1
 245 39 264 38 284 38 c 0
EndSplineSet
Substitution2: "'c2sc' Capitals to Small Capitals in Latin lookup 5 subtable" D.c2sc
EndChar

StartChar: E
Encoding: 69 69 7
Width: 626
GlyphClass: 2
Flags: MW
HStem: 0 30<36 76.5 36 570 36 76.5> 0 44<225 354 225 570> 319 39<225 342 225 342> 493 164<535 561 36 567 535 535> 612 45<225 372 225 225> 627 30<36 76.5>
VStem: 133 92<118 319 358 535 535 573> 454 32<226 267 417.5 458> 535 29
AnchorPoint: "Anchor-5" 464 0 basechar 0
AnchorPoint: "Anchor-4" 325 0 basechar 0
AnchorPoint: "Anchor-2" 320 0 basechar 0
AnchorPoint: "Anchor-0" 320 657 basechar 0
LayerCount: 2
Fore
SplineSet
570 0 m 1x6b
 36 0 l 1x6b
 36 30 l 1
 117 30 133 40 133 118 c 2
 133 535 l 2
 133 611 117 627 36 627 c 1xa7
 36 657 l 1
 561 657 l 1x6b80
 567 493 l 1
 535 493 l 1x7380
 520 593 495 612 372 612 c 2
 225 612 l 1
 225 358 l 1
 342 358 l 2
 434 358 454 377 454 458 c 1
 486 458 l 1
 486 226 l 1
 454 226 l 1
 454 308 434 319 342 319 c 2
 225 319 l 1
 225 44 l 1
 354 44 l 2
 509 43 527 67 566 186 c 1
 598 186 l 1
 570 0 l 1x6b
EndSplineSet
Substitution2: "'c2sc' Capitals to Small Capitals in Latin lookup 5 subtable" E.c2sc
EndChar

StartChar: F
Encoding: 70 70 8
Width: 588
GlyphClass: 2
Flags: MW
HStem: 0 30<36 76.5 290 329 36 76.5> 320 39<225 343 225 343> 493 164<542 568 36 574 542 542> 612 45<225 384 225 225> 627 30<36 72>
VStem: 133 92<116 320 359 544 544 578.5> 449 34<226 266.5 417.5 458> 542 29
AnchorPoint: "Anchor-5" 167 0 basechar 0
AnchorPoint: "Anchor-4" 188 0 basechar 0
AnchorPoint: "Anchor-2" 173 0 basechar 0
AnchorPoint: "Anchor-0" 326 657 basechar 0
LayerCount: 2
Fore
SplineSet
329 0 m 1xd6
 36 0 l 1
 36 30 l 1
 117 30 133 42 133 116 c 2
 133 544 l 2
 133 613 108 627 36 627 c 1xce
 36 657 l 1
 568 657 l 1xd7
 574 493 l 1
 542 493 l 1xe7
 524 588 515 612 384 612 c 2
 225 612 l 1
 225 359 l 1
 343 359 l 2
 429 359 449 377 449 458 c 1
 483 458 l 1
 483 226 l 1
 449 226 l 1
 449 307 429 320 343 320 c 2
 225 320 l 1
 225 110 l 2
 225 42 251 30 329 30 c 1
 329 0 l 1xd6
EndSplineSet
Substitution2: "'c2sc' Capitals to Small Capitals in Latin lookup 5 subtable" F.c2sc
EndChar

StartChar: G
Encoding: 71 71 9
Width: 720
GlyphClass: 2
Flags: MW
HStem: -11 45<312.5 415 312.5 425> 278 32<438 476 657 685> 613 20G<532.5 553.5> 626 43<306.5 430>
VStem: 50 104<236 426.5 236 437> 526 91<84 192 192 202 57 228> 576 34<440 669> 581 29<440 669>
AnchorPoint: "Anchor-5" 360 0 basechar 0
AnchorPoint: "Anchor-4" 358 0 basechar 0
AnchorPoint: "Anchor-2" 360 0 basechar 0
AnchorPoint: "Anchor-0" 376 657 basechar 0
LayerCount: 2
Fore
SplineSet
370 -11 m 0xdc
 158 -11 50 112 50 326 c 0xdc
 50 548 188 669 376 669 c 0
 486 669 520 633 545 633 c 0xe9
 562 633 568 647 581 669 c 1
 610 669 l 1
 610 440 l 1xd9
 576 440 l 1xda
 553 573 483 626 377 626 c 0
 236 626 154 515 154 338 c 0
 154 134 241 34 384 34 c 0
 446 34 486 54 526 84 c 1
 526 192 l 2
 526 264 514 278 438 278 c 1
 438 310 l 1
 685 310 l 1
 685 278 l 1
 629 278 617 264 617 202 c 2
 617 57 l 1
 545 15 480 -11 370 -11 c 0xdc
EndSplineSet
Substitution2: "'c2sc' Capitals to Small Capitals in Latin lookup 5 subtable" G.c2sc
EndChar

StartChar: H
Encoding: 72 72 10
Width: 777
GlyphClass: 2
Flags: MW
HStem: 0 30<36 81 278 323 36 81 456 500.5 696.5 742> 318 39<225 553 225 553> 627 30<36 82 275.5 323 456 502 694.5 742>
VStem: 133 92<131 318 357 525> 553 91<131 318 318 318 357 525>
AnchorPoint: "Anchor-5" 600 0 basechar 0
AnchorPoint: "Anchor-4" 179 0 basechar 0
AnchorPoint: "Anchor-2" 389 0 basechar 0
AnchorPoint: "Anchor-0" 389 657 basechar 0
LayerCount: 2
Fore
SplineSet
323 0 m 1
 36 0 l 1
 36 30 l 1
 126 30 133 42 133 131 c 2
 133 525 l 2
 133 603 128 627 36 627 c 1
 36 657 l 1
 323 657 l 1
 323 627 l 1
 228 627 225 603 225 525 c 2
 225 357 l 1
 553 357 l 1
 553 525 l 2
 553 603 548 627 456 627 c 1
 456 657 l 1
 742 657 l 1
 742 627 l 1
 647 627 644 604 644 525 c 2
 644 131 l 2
 644 44 651 30 742 30 c 1
 742 0 l 1
 456 0 l 1
 456 30 l 1
 545 30 553 44 553 131 c 2
 553 318 l 1
 225 318 l 1
 225 131 l 2
 225 43 233 30 323 30 c 1
 323 0 l 1
EndSplineSet
Substitution2: "'c2sc' Capitals to Small Capitals in Latin lookup 5 subtable" H.c2sc
EndChar

StartChar: I
Encoding: 73 73 11
Width: 357
GlyphClass: 2
Flags: MW
HStem: 0 30<34 79 277.5 322 34 79> 627 30<34 81.5 274.5 322>
VStem: 133 91<131 525>
AnchorPoint: "Anchor-5" 167 0 basechar 0
AnchorPoint: "Anchor-4" 180 0 basechar 0
AnchorPoint: "Anchor-2" 179 0 basechar 0
AnchorPoint: "Anchor-0" 179 657 basechar 0
LayerCount: 2
Fore
SplineSet
322 0 m 1
 34 0 l 1
 34 30 l 1
 124 30 133 45 133 131 c 2
 133 525 l 2
 133 603 129 627 34 627 c 1
 34 657 l 1
 322 657 l 1
 322 627 l 1
 227 627 224 603 224 525 c 2
 224 131 l 2
 224 45 233 30 322 30 c 1
 322 0 l 1
EndSplineSet
Substitution2: "'c2sc' Capitals to Small Capitals in Latin lookup 5 subtable" I.c2sc
EndChar

StartChar: J
Encoding: 74 74 12
Width: 396
GlyphClass: 2
Flags: MW
HStem: -12 35<121 163.5 121 166.5> 627 30<93 140.5 333.5 375>
VStem: 191 92<123 152 152 525>
AnchorPoint: "Anchor-5" 134 0 basechar 0
AnchorPoint: "Anchor-4" 147 0 basechar 0
AnchorPoint: "Anchor-2" 143 0 basechar 0
AnchorPoint: "Anchor-0" 238 657 basechar 0
LayerCount: 2
Fore
SplineSet
119 -12 m 0
 54 -12 0 13 0 67 c 0
 0 97 16 116 44 116 c 0
 103 116 98 23 144 23 c 0
 183 23 191 53 191 123 c 2
 191 525 l 2
 191 603 188 627 93 627 c 1
 93 657 l 1
 375 657 l 1
 375 627 l 1
 292 627 283 603 283 525 c 2
 283 152 l 2
 283 20 214 -12 119 -12 c 0
EndSplineSet
Substitution2: "'c2sc' Capitals to Small Capitals in Latin lookup 5 subtable" J.c2sc
EndChar

StartChar: K
Encoding: 75 75 13
Width: 702
GlyphClass: 2
Flags: MW
HStem: 0 30<34 79.5 278 322 34 79.5 407 427 427 441 671.5 696> 311 26<224 229 224 233 224 229> 627 30<34 81.5 274.5 322 408 424>
VStem: 133 91<131 311 337 525>
AnchorPoint: "Anchor-5" 573 0 basechar 0
AnchorPoint: "Anchor-4" 353 0 basechar 0
AnchorPoint: "Anchor-2" 353 0 basechar 0
AnchorPoint: "Anchor-0" 353 657 basechar 0
LayerCount: 2
Fore
SplineSet
322 0 m 1
 34 0 l 1
 34 30 l 1
 125 30 133 43 133 131 c 2
 133 525 l 2
 133 603 129 627 34 627 c 1
 34 657 l 1
 322 657 l 1
 322 627 l 1
 227 627 224 603 224 525 c 2
 224 337 l 1
 229 337 l 1
 391 495 l 2
 437 539 462 566 462 596 c 0
 462 617 452 627 424 627 c 2
 408 627 l 1
 408 657 l 1
 653 657 l 1
 653 627 l 1
 596 624 576 608 522 558 c 2
 305 355 l 1
 592 73 l 2
 625 42 647 30 696 30 c 1
 696 0 l 1
 407 0 l 1
 407 30 l 1
 427 30 l 2
 455 30 466 35 466 50 c 0
 466 83 422 124 321 223 c 2
 233 311 l 1
 224 311 l 1
 224 131 l 2
 224 47 234 30 322 30 c 1
 322 0 l 1
EndSplineSet
Substitution2: "'c2sc' Capitals to Small Capitals in Latin lookup 5 subtable" K.c2sc
EndChar

StartChar: L
Encoding: 76 76 14
Width: 585
GlyphClass: 2
Flags: MW
HStem: 0 30<42 82 42 538 42 82> 0 42<301 347 347 414> 627 30<42 82 282.5 323>
VStem: 133 92<123 529>
AnchorPoint: "Anchor-5" 412 0 basechar 0
AnchorPoint: "Anchor-4" 291 0 basechar 0
AnchorPoint: "Anchor-2" 291 0 basechar 0
AnchorPoint: "Anchor-0" 182 657 basechar 0
LayerCount: 2
Fore
SplineSet
538 0 m 1x70
 42 0 l 1x70
 42 30 l 1
 122 30 133 45 133 123 c 2xb0
 133 530 l 2
 133 607 122 627 42 627 c 1
 42 657 l 1
 323 657 l 1
 323 627 l 1
 242 627 225 607 225 529 c 2
 225 95 l 2
 225 51 242 42 301 42 c 2
 347 42 l 2
 481 42 497 79 536 195 c 1
 568 195 l 1
 538 0 l 1x70
EndSplineSet
Substitution2: "'c2sc' Capitals to Small Capitals in Latin lookup 5 subtable" L.c2sc
EndChar

StartChar: M
Encoding: 77 77 15
Width: 895
GlyphClass: 2
Flags: MW
HStem: 0 30<28 68.5 225 263 28 68.5 584 622.5 814 850> 627 30<30 69.5 813.5 849>
VStem: 123 49<146 535 535 549> 673 89<119 536>
AnchorPoint: "Anchor-5" 721 0 basechar 0
AnchorPoint: "Anchor-4" 424 0 basechar 0
AnchorPoint: "Anchor-2" 424 0 basechar 0
AnchorPoint: "Anchor-0" 436 657 basechar 0
LayerCount: 2
Fore
SplineSet
263 0 m 1
 28 0 l 1
 28 30 l 1
 109 30 123 43 123 146 c 2
 123 535 l 2
 123 610 109 627 30 627 c 1
 30 657 l 1
 234 657 l 1
 445 154 l 1
 449 154 l 1
 659 657 l 1
 849 657 l 1
 849 627 l 1
 778 627 762 610 762 536 c 2
 762 119 l 2
 762 46 778 30 850 30 c 1
 850 0 l 1
 584 0 l 1
 584 30 l 1
 661 30 673 46 673 119 c 2
 673 550 l 1
 669 550 l 1
 436 0 l 1
 412 0 l 1
 176 549 l 1
 172 549 l 1
 172 146 l 2
 172 43 187 30 263 30 c 1
 263 0 l 1
EndSplineSet
Substitution2: "'c2sc' Capitals to Small Capitals in Latin lookup 5 subtable" M.c2sc
EndChar

StartChar: N
Encoding: 78 78 16
Width: 742
GlyphClass: 2
Flags: MW
HStem: -8 21G<591 624 591 591> 0 30<29 68.5 225.5 263 29 68.5> 627 30<29 50 479 522 676.5 715>
VStem: 123 49<149 527> 574 50<174 493>
AnchorPoint: "Anchor-5" 357 0 basechar 0
AnchorPoint: "Anchor-4" 358 0 basechar 0
AnchorPoint: "Anchor-2" 357 0 basechar 0
AnchorPoint: "Anchor-0" 379 657 basechar 0
LayerCount: 2
Fore
SplineSet
624 -8 m 1xb8
 591 -8 l 1xb8
 177 527 l 1
 172 527 l 1
 172 149 l 2
 172 49 188 30 263 30 c 1
 263 0 l 1
 29 0 l 1
 29 30 l 1x78
 108 30 123 48 123 149 c 2
 123 576 l 1
 90 618 71 627 29 627 c 1
 29 657 l 1
 199 657 l 1
 569 174 l 1
 574 174 l 1
 574 498 l 2
 574 591 565 627 479 627 c 1
 479 657 l 1
 715 657 l 1
 715 627 l 1
 638 627 624 588 624 493 c 2
 624 -8 l 1xb8
EndSplineSet
Substitution2: "'c2sc' Capitals to Small Capitals in Latin lookup 5 subtable" N.c2sc
EndChar

StartChar: O
Encoding: 79 79 17
Width: 737
GlyphClass: 2
Flags: MW
HStem: -12 42<298 441 298 467.5> 627 42<301.5 431>
VStem: 50 105<241 426.5 241 430.5> 582 105<234.5 425>
AnchorPoint: "Anchor-5" 419 0 basechar 0
AnchorPoint: "Anchor-4" 382 0 basechar 0
AnchorPoint: "Anchor-2" 369 0 basechar 0
AnchorPoint: "Anchor-0" 369 657 basechar 0
LayerCount: 2
Fore
SplineSet
369 -12 m 0
 170 -12 50 117 50 329 c 0
 50 532 171 669 369 669 c 0
 568 669 687 536 687 338 c 0
 687 129 566 -12 369 -12 c 0
370 30 m 0
 512 30 582 134 582 335 c 0
 582 515 496 627 366 627 c 0
 237 627 155 518 155 335 c 0
 155 147 226 30 370 30 c 0
EndSplineSet
Substitution2: "'c2sc' Capitals to Small Capitals in Latin lookup 5 subtable" O.c2sc
EndChar

StartChar: P
Encoding: 80 80 18
Width: 569
GlyphClass: 2
Flags: MW
HStem: 0 30<44 83 285.5 326 44 83> 286 41<272 333 269 347.5> 618 39<275 297 297 339> 627 30<48 80>
VStem: 133 92<127 294 331 557 557 586.5> 445 99<419 522>
AnchorPoint: "Anchor-5" 167 0 basechar 0
AnchorPoint: "Anchor-4" 190 0 basechar 0
AnchorPoint: "Anchor-2" 172 0 basechar 0
AnchorPoint: "Anchor-0" 292 657 basechar 0
LayerCount: 2
Fore
SplineSet
326 0 m 1xec
 44 0 l 1
 44 30 l 1
 122 30 133 43 133 127 c 2
 133 557 l 2
 133 616 112 627 48 627 c 1xdc
 48 657 l 1
 297 657 l 2
 425 657 544 624 544 491 c 0
 544 335 413 286 282 286 c 0
 262 286 236 289 225 294 c 1
 225 123 l 2
 225 41 245 30 326 30 c 1
 326 0 l 1xec
279 327 m 0
 387 327 445 361 445 477 c 0
 445 567 393 618 285 618 c 0
 265 618 246 616 225 614 c 1xec
 225 331 l 1
 236 329 259 327 279 327 c 0
EndSplineSet
Substitution2: "'c2sc' Capitals to Small Capitals in Latin lookup 5 subtable" P.c2sc
EndChar

StartChar: Q
Encoding: 81 81 19
Width: 737
GlyphClass: 2
Flags: MW
HStem: -173 33<654 664 664 714> 2 28<298 459> 627 42<301.5 430.5>
VStem: 50 105<241 426.5 241 430.5> 582 105<252 425>
AnchorPoint: "Anchor-5" 369 -120 basechar 0
AnchorPoint: "Anchor-4" 370 -120 basechar 0
AnchorPoint: "Anchor-2" 369 -120 basechar 0
AnchorPoint: "Anchor-0" 369 657 basechar 0
LayerCount: 2
Fore
SplineSet
714 -173 m 1
 664 -173 l 2
 498 -173 421 -143 368 -52 c 2
 344 -11 l 1
 162 1 50 126 50 329 c 0
 50 532 171 669 369 669 c 0
 568 669 687 535 687 339 c 0
 687 165 600 36 459 2 c 1
 459 0 l 1
 530 -100 594 -140 714 -140 c 1
 714 -173 l 1
370 30 m 0
 512 30 582 134 582 335 c 0
 582 515 495 627 366 627 c 0
 237 627 155 518 155 335 c 0
 155 147 226 30 370 30 c 0
EndSplineSet
Substitution2: "'c2sc' Capitals to Small Capitals in Latin lookup 5 subtable" Q.c2sc
EndChar

StartChar: R
Encoding: 82 82 20
Width: 659
GlyphClass: 2
Flags: MW
HStem: 0 30<43 80.5 281 324 43 80.5 641 664> 301 38<225 263> 618 39<280 289 289 345> 627 30<43 83>
VStem: 132 93<124 301 340 553 553 580.5> 446 101<437 529>
AnchorPoint: "Anchor-5" 348 0 basechar 0
AnchorPoint: "Anchor-4" 346 0 basechar 0
AnchorPoint: "Anchor-2" 332 0 basechar 0
AnchorPoint: "Anchor-0" 312 657 basechar 0
LayerCount: 2
Fore
SplineSet
324 0 m 1xec
 43 0 l 1
 43 30 l 1
 118 30 132 40 132 124 c 2
 132 553 l 2
 132 608 123 627 43 627 c 1xdc
 43 657 l 1
 289 657 l 2
 439 657 547 620 547 493 c 0
 547 381 459 337 378 318 c 1
 378 314 l 1
 412 294 451 238 561 81 c 0
 593 37 618 30 664 30 c 1
 664 0 l 1
 499 0 l 1
 390 165 361 208 320 268 c 0
 300 298 289 301 253 301 c 2
 225 301 l 1
 225 124 l 2
 225 41 238 30 324 30 c 1
 324 0 l 1xec
225 340 m 1
 263 339 l 1
 373 344 446 383 446 489 c 0
 446 569 399 618 291 618 c 0
 269 618 246 617 225 615 c 1xec
 225 340 l 1
EndSplineSet
Substitution2: "'c2sc' Capitals to Small Capitals in Latin lookup 5 subtable" R.c2sc
EndChar

StartChar: S
Encoding: 83 83 21
Width: 504
GlyphClass: 2
Flags: MW
HStem: -15 21G<44 75 44 44> -12 44<254 291.5 254 326> 618 20G<364 384> 629 40<239 243>
VStem: 39.5 35.5 49 87<497.5 559.5> 376 95<109 182> 407 29.5 410 26.5
AnchorPoint: "Anchor-5" 250 0 basechar 0
AnchorPoint: "Anchor-4" 250 0 basechar 0
AnchorPoint: "Anchor-2" 245 0 basechar 0
AnchorPoint: "Anchor-0" 254 657 basechar 0
LayerCount: 2
Fore
SplineSet
75 -15 m 1x9a
 44 -15 l 1x9a
 35 201 l 1
 66 201 l 1x5a
 101 63 152 31 254 32 c 0
 329 32 376 62 376 138 c 0
 376 226 292 261 210 308 c 0
 130 354 49 402 49 507 c 0x56
 49 612 135 668 239 669 c 0
 330 669 352 638 376 638 c 0x65
 392 638 402 646 407 667 c 1x55
 433 667 l 1
 440 467 l 1
 410 467 l 1
 382 577 344 630 243 629 c 0
 175 629 136 597 136 535 c 0x5480
 136 460 208 424 283 381 c 0
 372 331 471 286 471 167 c 0
 471 51 384 -12 268 -12 c 0
 164 -12 125 18 102 18 c 0x5a
 88 18 76 5 75 -15 c 1x9a
EndSplineSet
Substitution2: "'c2sc' Capitals to Small Capitals in Latin lookup 5 subtable" S.c2sc
EndChar

StartChar: T
Encoding: 84 84 22
Width: 603
GlyphClass: 2
Flags: MW
HStem: 0 30<157 199 404 447 157 199> 477 180<26 46 15 579 556 556 556 579 26 587> 612 45<136 191 191 255 348 348 348 411>
VStem: 255 93<131 612>
AnchorPoint: "Anchor-5" 300 0 basechar 0
AnchorPoint: "Anchor-4" 307 0 basechar 0
AnchorPoint: "Anchor-2" 302 0 basechar 0
AnchorPoint: "Anchor-0" 302 657 basechar 0
LayerCount: 2
Fore
SplineSet
447 0 m 1xb0
 157 0 l 1
 157 30 l 1
 241 30 255 40 255 131 c 2
 255 612 l 1
 191 612 l 2xb0
 81 612 67 586 46 477 c 1
 15 477 l 1xd0
 26 657 l 1
 579 657 l 1xb0
 587 477 l 1
 556 477 l 1xd0
 534 586 522 612 411 612 c 2
 348 612 l 1
 348 131 l 2
 348 40 361 30 447 30 c 1
 447 0 l 1xb0
EndSplineSet
Substitution2: "'c2sc' Capitals to Small Capitals in Latin lookup 5 subtable" T.c2sc
EndChar

StartChar: U
Encoding: 85 85 23
Width: 752
GlyphClass: 2
Flags: MW
HStem: -12 63<326.5 463.5 326.5 467.5> 627 30<20 59.5 265.5 308 489 531 691 734>
VStem: 118 92<250 251 251 534> 583 57<247 261 261 499 499 502>
AnchorPoint: "Anchor-5" 435 0 basechar 0
AnchorPoint: "Anchor-4" 381 0 basechar 0
AnchorPoint: "Anchor-2" 379 0 basechar 0
AnchorPoint: "Anchor-0" 399 657 basechar 0
LayerCount: 2
Fore
SplineSet
373 -12 m 0
 196 -12 118 64 118 250 c 2
 118 539 l 2
 118 609 99 627 20 627 c 1
 20 657 l 1
 308 657 l 1
 308 627 l 1
 223 627 210 609 210 534 c 2
 210 251 l 2
 210 121 255 51 398 51 c 0
 529 51 583 109 583 247 c 2
 583 499 l 2
 583 604 573 627 489 627 c 1
 489 657 l 1
 734 657 l 1
 734 627 l 1
 648 627 640 605 640 502 c 2
 640 261 l 2
 640 79 562 -12 373 -12 c 0
EndSplineSet
Substitution2: "'c2sc' Capitals to Small Capitals in Latin lookup 5 subtable" U.c2sc
EndChar

StartChar: V
Encoding: 86 86 24
Width: 680
GlyphClass: 2
Flags: MW
HStem: -5 21G<324 364 324 324> 627 30<-10 17 245 258 477 500.5 659 687>
VStem: -10 697<627 657 627 657> 477 210<627 657 627 657> 544 143<584 657>
AnchorPoint: "Anchor-5" 317 0 basechar 0
AnchorPoint: "Anchor-4" 344 0 basechar 0
AnchorPoint: "Anchor-2" 343 0 basechar 0
AnchorPoint: "Anchor-0" 342 657 basechar 0
LayerCount: 2
Fore
SplineSet
364 -5 m 1xe0
 324 -5 l 1
 95 536 l 2
 66 603 44 627 -10 627 c 1
 -10 657 l 1
 258 657 l 1
 258 627 l 1
 232 627 190 626 190 589 c 0
 190 576 195 557 207 528 c 2
 328 231 l 1
 367 126 l 1
 372 126 l 1
 407 226 l 1
 533 544 l 2
 539 559 544 575 544 593 c 0xc8
 544 620 524 627 477 627 c 1
 477 657 l 1xd0
 687 657 l 1
 687 627 l 1xc8
 631 627 618 610 570 497 c 2
 364 -5 l 1xe0
EndSplineSet
Substitution2: "'c2sc' Capitals to Small Capitals in Latin lookup 5 subtable" V.c2sc
EndChar

StartChar: W
Encoding: 87 87 25
Width: 944
GlyphClass: 2
Flags: MW
HStem: -6 21G<308 333 308 308 638 665 638 638> 627 30<-10 248 222.5 248 328 356.5 564 589 737 760>
VStem: -10 953<627 657 627 657> 737 206<627 657 627 657> 804 139<572.5 657>
AnchorPoint: "Anchor-5" 614 0 basechar 0
AnchorPoint: "Anchor-4" 480 0 basechar 0
AnchorPoint: "Anchor-2" 480 0 basechar 0
AnchorPoint: "Anchor-0" 460 657 basechar 0
LayerCount: 2
Fore
SplineSet
665 -6 m 1xe0
 638 -6 l 1
 488 391 l 1
 484 391 l 1
 333 -6 l 1
 308 -6 l 1
 100 518 l 2
 69 602 42 625 -10 627 c 1
 -10 657 l 1
 248 657 l 1
 248 627 l 1
 197 627 182 615 182 594 c 0
 182 582 186 565 196 539 c 2
 312 247 l 1
 343 163 l 1
 348 163 l 1
 461 455 l 1
 433 532 l 2
 401 619 385 627 328 627 c 1
 328 657 l 1
 589 657 l 1
 589 627 l 1
 539 627 513 615 513 593 c 0
 513 577 523 553 530 535 c 2
 634 265 l 1
 667 166 l 1
 672 166 l 1
 786 498 l 2
 796 530 804 560 804 585 c 0xc8
 804 615 783 627 737 627 c 1
 737 657 l 1xd0
 943 657 l 1
 943 627 l 1
 896 626 876 609 858 558 c 2xc8
 665 -6 l 1xe0
EndSplineSet
Substitution2: "'c2sc' Capitals to Small Capitals in Latin lookup 5 subtable" W.c2sc
EndChar

StartChar: X
Encoding: 88 88 26
Width: 664
GlyphClass: 2
Flags: MW
HStem: 0 29<196.5 223 2 2 380 390 390 409.5> 627 30<17 51.5 265.5 284 284 295 422 446>
VStem: 2 157<0 66.5 29 66.5> 2 658<0 29 0 29>
AnchorPoint: "Anchor-5" 521 0 basechar 0
AnchorPoint: "Anchor-4" 316 0 basechar 0
AnchorPoint: "Anchor-2" 316 0 basechar 0
AnchorPoint: "Anchor-0" 342 657 basechar 0
LayerCount: 2
Fore
SplineSet
660 0 m 1xd0
 380 0 l 1
 380 29 l 1
 390 29 l 2
 429 29 443 35 443 57 c 0
 443 78 433 101 407 142 c 2
 344 241 l 1
 315 291 l 1
 313 291 l 1
 192 120 l 2
 179 103 159 76 159 57 c 0
 159 40 170 29 223 29 c 1
 223 0 l 1
 2 0 l 1
 2 29 l 1xe0
 55 31 72 45 120 108 c 2
 287 327 l 1
 144 542 l 2
 96 612 86 627 17 627 c 1
 17 657 l 1
 295 657 l 1
 295 627 l 1
 284 627 l 2
 247 627 232 619 232 598 c 0
 232 574 267 533 291 486 c 2
 348 391 l 1
 349 391 l 1
 454 542 l 2
 470 568 481 588 481 604 c 0
 481 619 470 627 422 627 c 1
 422 657 l 1
 652 657 l 1
 652 627 l 1
 588 625 568 611 513 538 c 2
 374 357 l 1
 557 89 l 2
 590 41 610 30 660 29 c 1
 660 0 l 1xd0
EndSplineSet
Substitution2: "'c2sc' Capitals to Small Capitals in Latin lookup 5 subtable" X.c2sc
EndChar

StartChar: Y
Encoding: 89 89 27
Width: 647
GlyphClass: 2
Flags: MW
HStem: 0 30<180 224 434 476 180 224> 627 30<-5 18.5 236 264 434 459.5>
VStem: 280 92<131 276 276 276> 434 218<627 657 627 657> 498 154<592.5 657>
AnchorPoint: "Anchor-5" 338 0 basechar 0
AnchorPoint: "Anchor-4" 332 0 basechar 0
AnchorPoint: "Anchor-2" 326 0 basechar 0
AnchorPoint: "Anchor-0" 340 657 basechar 0
LayerCount: 2
Fore
SplineSet
476 0 m 1xf0
 180 0 l 1
 180 30 l 1
 268 30 280 42 280 131 c 2
 280 276 l 1
 153 481 l 2
 70 616 42 627 -5 627 c 1
 -5 657 l 1
 264 657 l 1
 264 627 l 1
 208 627 197 618 197 604 c 0
 197 591 204 573 214 558 c 2
 304 414 l 1
 348 336 l 1
 354 336 l 1
 486 561 l 2
 493 572 498 585 498 600 c 0xe8
 498 618 485 627 434 627 c 1
 434 657 l 1
 652 657 l 1
 652 627 l 1
 593 622 570 609 520 528 c 2
 372 281 l 1
 372 131 l 2
 372 43 392 30 476 30 c 1
 476 0 l 1xf0
EndSplineSet
Substitution2: "'c2sc' Capitals to Small Capitals in Latin lookup 5 subtable" Y.c2sc
EndChar

StartChar: Z
Encoding: 90 90 28
Width: 594
GlyphClass: 2
Flags: MW
HStem: 0 44<155 364 364 421> 482 175<71 92 60 560> 612 45<203.5 255 255 436>
VStem: 28 539<0 186 29 186> 436 124<604 657 612 657>
AnchorPoint: "Anchor-5" 395 0 basechar 0
AnchorPoint: "Anchor-4" 289 0 basechar 0
AnchorPoint: "Anchor-2" 289 0 basechar 0
AnchorPoint: "Anchor-0" 314 657 basechar 0
LayerCount: 2
Fore
SplineSet
538 0 m 1xb0
 28 0 l 1
 28 29 l 1
 436 604 l 1
 436 612 l 1
 255 612 l 2xa8
 152 612 112 593 92 482 c 1
 60 482 l 1xd0
 71 657 l 1
 560 657 l 1
 560 629 l 1xa8
 155 50 l 1
 155 44 l 1
 364 44 l 2
 478 44 503 75 536 186 c 1
 567 186 l 1
 538 0 l 1xb0
EndSplineSet
Substitution2: "'c2sc' Capitals to Small Capitals in Latin lookup 5 subtable" Z.c2sc
EndChar

StartChar: Agrave
Encoding: 192 192 29
Width: 718
GlyphClass: 2
Flags: MW
HStem: 0 30<3 31 189.5 213 3 31 445 460 687 714> 219 40<217 443 217 458 202 443> 642 20G<333 374 374 374> 698 128<246 451 246 404> 805 21<246 346>
VStem: 3 143<0 73 30 73> 3 210<0 30 0 30> 3 711<0 30 0 30>
AnchorPoint: "Anchor-5" 444 0 basechar 0
AnchorPoint: "Anchor-4" 337 0 basechar 0
AnchorPoint: "Anchor-2" 336 0 basechar 0
AnchorPoint: "Anchor-1" 354 826 basechar 0
LayerCount: 2
Fore
SplineSet
213 0 m 1xea
 3 0 l 1
 3 30 l 1
 59 30 73 46 121 160 c 2
 333 662 l 1
 374 662 l 1
 611 119 l 2
 640 53 660 30 714 30 c 1
 714 0 l 1
 445 0 l 1
 445 30 l 1
 475 30 514 32 514 67 c 0
 514 81 510 99 497 129 c 2
 458 219 l 1
 202 219 l 1
 157 113 l 2
 151 97 146 82 146 64 c 0xf4
 146 36 166 30 213 30 c 1
 213 0 l 1xea
217 259 m 1
 443 259 l 1
 333 539 l 1
 330 539 l 1
 217 259 l 1
451 698 m 1
 404 698 l 1xf1
 246 805 l 1
 246 826 l 1
 346 826 l 1xe9
 451 698 l 1
EndSplineSet
Substitution2: "'c2sc' Capitals to Small Capitals in Latin lookup 5 subtable" Agrave.c2sc
EndChar

StartChar: Aacute
Encoding: 193 193 30
Width: 718
GlyphClass: 2
Flags: MW
HStem: 0 30<3 31 189.5 213 3 31 445 460 687 714> 219 40<217 443 217 458 202 443> 642 20G<333 374 374 374> 698 128<258 463 258 463> 805 21<363 463>
VStem: 3 143<0 73 30 73> 3 210<0 30 0 30> 3 711<0 30 0 30>
AnchorPoint: "Anchor-5" 444 0 basechar 0
AnchorPoint: "Anchor-4" 337 0 basechar 0
AnchorPoint: "Anchor-2" 336 0 basechar 0
AnchorPoint: "Anchor-1" 354 826 basechar 0
LayerCount: 2
Fore
SplineSet
213 0 m 1xea
 3 0 l 1
 3 30 l 1
 59 30 73 46 121 160 c 2
 333 662 l 1
 374 662 l 1
 611 119 l 2
 640 53 660 30 714 30 c 1
 714 0 l 1
 445 0 l 1
 445 30 l 1
 475 30 514 32 514 67 c 0
 514 81 510 99 497 129 c 2
 458 219 l 1
 202 219 l 1
 157 113 l 2
 151 97 146 82 146 64 c 0xf4
 146 36 166 30 213 30 c 1
 213 0 l 1xea
217 259 m 1
 443 259 l 1
 333 539 l 1
 330 539 l 1
 217 259 l 1
304 698 m 1
 258 698 l 1xf1
 363 826 l 1
 463 826 l 1
 463 805 l 1xe9
 304 698 l 1
EndSplineSet
Substitution2: "'c2sc' Capitals to Small Capitals in Latin lookup 5 subtable" Aacute.c2sc
EndChar

StartChar: Acircumflex
Encoding: 194 194 31
Width: 718
GlyphClass: 2
Flags: MW
HStem: 0 30<3 31 189.5 213 3 31 445 460 687 714> 219 40<217 443 217 458 202 443> 642 20G<333 374 374 374> 698 138<207 391 207 391 319 461 319 501> 779 57<354 354>
VStem: 3 143<0 73 30 73> 3 210<0 30 0 30> 3 711<0 30 0 30>
AnchorPoint: "Anchor-5" 444 0 basechar 0
AnchorPoint: "Anchor-4" 337 0 basechar 0
AnchorPoint: "Anchor-2" 336 0 basechar 0
AnchorPoint: "Anchor-1" 354 836 basechar 0
LayerCount: 2
Fore
SplineSet
213 0 m 1xf2
 3 0 l 1
 3 30 l 1
 59 30 73 46 121 160 c 2
 333 662 l 1
 374 662 l 1
 611 119 l 2
 640 53 660 30 714 30 c 1
 714 0 l 1
 445 0 l 1
 445 30 l 1
 475 30 514 32 514 67 c 0
 514 81 510 99 497 129 c 2
 458 219 l 1
 202 219 l 1
 157 113 l 2
 151 97 146 82 146 64 c 0xf4
 146 36 166 30 213 30 c 1
 213 0 l 1xf2
217 259 m 1
 443 259 l 1
 333 539 l 1
 330 539 l 1
 217 259 l 1
249 698 m 1
 207 698 l 1
 319 836 l 1
 391 836 l 1
 501 698 l 1
 461 698 l 1xf1
 354 779 l 1xe9
 249 698 l 1
EndSplineSet
Substitution2: "'c2sc' Capitals to Small Capitals in Latin lookup 5 subtable" Acircumflex.c2sc
EndChar

StartChar: uni1EA6
Encoding: 7846 7846 32
Width: 718
GlyphClass: 2
Flags: MW
HStem: 0 30<3 31 189.5 213 3 31 445 460 687 714> 219 40<217 443 217 458 202 443> 642 20G<333 374 374 374> 693 133<207 391 207 391 319 461 319 501> 774 52<354 354> 860 21<401 489>
VStem: 3 143<0 73 30 73> 3 210<0 30 0 30> 3 711<0 30 0 30>
AnchorPoint: "Anchor-5" 444 0 basechar 0
AnchorPoint: "Anchor-4" 337 0 basechar 0
AnchorPoint: "Anchor-2" 336 0 basechar 0
AnchorPoint: "Anchor-0" 354 657 basechar 0
LayerCount: 2
Fore
SplineSet
213 0 m 1xf5
 3 0 l 1
 3 30 l 1
 59 30 73 46 121 160 c 2
 333 662 l 1
 374 662 l 1
 611 119 l 2
 640 53 660 30 714 30 c 1
 714 0 l 1
 445 0 l 1
 445 30 l 1
 475 30 514 32 514 67 c 0
 514 81 510 99 497 129 c 2
 458 219 l 1
 202 219 l 1
 157 113 l 2
 151 97 146 82 146 64 c 0xf6
 146 36 166 30 213 30 c 1
 213 0 l 1xf5
217 259 m 1
 443 259 l 1
 333 539 l 1
 330 539 l 1
 217 259 l 1
249 693 m 1
 207 693 l 1
 319 826 l 1
 391 826 l 1
 501 693 l 1
 461 693 l 1xf480
 354 774 l 1xec80
 249 693 l 1
586 763 m 1
 545 763 l 1
 401 860 l 1
 401 881 l 1
 489 881 l 1
 586 763 l 1
EndSplineSet
Substitution2: "'c2sc' Capitals to Small Capitals in Latin lookup 5 subtable" uni1EA6.c2sc
EndChar

StartChar: uni1EA4
Encoding: 7844 7844 33
Width: 718
GlyphClass: 2
Flags: MW
HStem: 0 30<3 31 189.5 213 3 31 445 460 687 714> 219 40<217 443 217 458 202 443> 642 20G<333 374 374 374> 693 133<207 391 207 391 319 461 319 501> 763 63<319 494 319 453> 774 52<354 354> 860 21<550 638>
VStem: 3 143<0 73 30 73> 3 210<0 30 0 30> 3 711<0 30 0 30>
AnchorPoint: "Anchor-5" 444 0 basechar 0
AnchorPoint: "Anchor-4" 337 0 basechar 0
AnchorPoint: "Anchor-2" 336 0 basechar 0
AnchorPoint: "Anchor-0" 354 657 basechar 0
LayerCount: 2
Fore
SplineSet
213 0 m 1xea80
 3 0 l 1
 3 30 l 1
 59 30 73 46 121 160 c 2
 333 662 l 1
 374 662 l 1
 611 119 l 2
 640 53 660 30 714 30 c 1
 714 0 l 1
 445 0 l 1
 445 30 l 1
 475 30 514 32 514 67 c 0
 514 81 510 99 497 129 c 2
 458 219 l 1
 202 219 l 1
 157 113 l 2
 151 97 146 82 146 64 c 0xf3
 146 36 166 30 213 30 c 1
 213 0 l 1xea80
217 259 m 1
 443 259 l 1
 333 539 l 1
 330 539 l 1
 217 259 l 1
249 693 m 1
 207 693 l 1xf240
 319 826 l 1
 391 826 l 1xea40
 501 693 l 1
 461 693 l 1xf240
 354 774 l 1xe640
 249 693 l 1
494 763 m 1xea40
 453 763 l 1
 550 881 l 1
 638 881 l 1
 638 860 l 1
 494 763 l 1xea40
EndSplineSet
Substitution2: "'c2sc' Capitals to Small Capitals in Latin lookup 5 subtable" uni1EA4.c2sc
EndChar

StartChar: uni1EAA
Encoding: 7850 7850 34
Width: 718
GlyphClass: 2
Flags: MW
HStem: 0 30<3 31 189.5 213 3 31 445 460 687 714> 219 40<217 443 217 458 202 443> 642 20G<333 374 374 374> 693 123<207 391 207 391 319 461 319 501> 764 52<354 354> 840 59<411.5 440.5> 876 58<275 304.5>
VStem: 3 143<0 73 30 73> 3 210<0 30 0 30> 3 711<0 30 0 30>
AnchorPoint: "Anchor-5" 444 0 basechar 0
AnchorPoint: "Anchor-4" 337 0 basechar 0
AnchorPoint: "Anchor-2" 336 0 basechar 0
AnchorPoint: "Anchor-0" 354 657 basechar 0
LayerCount: 2
Fore
SplineSet
213 0 m 1xf280
 3 0 l 1
 3 30 l 1
 59 30 73 46 121 160 c 2
 333 662 l 1
 374 662 l 1
 611 119 l 2
 640 53 660 30 714 30 c 1
 714 0 l 1
 445 0 l 1
 445 30 l 1
 475 30 514 32 514 67 c 0
 514 81 510 99 497 129 c 2
 458 219 l 1
 202 219 l 1
 157 113 l 2
 151 97 146 82 146 64 c 0xf3
 146 36 166 30 213 30 c 1
 213 0 l 1xf280
217 259 m 1
 443 259 l 1
 333 539 l 1
 330 539 l 1
 217 259 l 1
225 838 m 1
 200 838 l 1
 212 900 251 934 299 934 c 0xf240
 358 934 389 899 434 899 c 0
 461 899 480 906 492 939 c 1
 517 939 l 1
 501 867 467 840 414 840 c 0xf440
 358 840 328 876 281 876 c 0
 256 876 235 868 225 838 c 1
249 693 m 1
 207 693 l 1
 319 816 l 1
 391 816 l 1
 501 693 l 1
 461 693 l 1xf240
 354 764 l 1xea40
 249 693 l 1
EndSplineSet
Substitution2: "'c2sc' Capitals to Small Capitals in Latin lookup 5 subtable" uni1EAA.c2sc
EndChar

StartChar: uni1EA8
Encoding: 7848 7848 35
Width: 718
GlyphClass: 2
Flags: MW
HStem: 0 30<3 31 189.5 213 3 31 445 460 687 714> 219 40<217 443 217 458 202 443> 642 20G<333 374 374 374> 693 133<207 391 207 391 319 461 319 501> 763 63 774 52<354 354> 928 29<470 500.5>
VStem: 3 143<0 73 30 73> 3 210<0 30 0 30> 458 41<763 800 763 817> 523 60<862.5 901.5 851.5 903>
AnchorPoint: "Anchor-5" 444 0 basechar 0
AnchorPoint: "Anchor-4" 337 0 basechar 0
AnchorPoint: "Anchor-2" 336 0 basechar 0
AnchorPoint: "Anchor-0" 354 657 basechar 0
LayerCount: 2
Fore
SplineSet
213 0 m 1xe2c0
 3 0 l 1
 3 30 l 1
 59 30 73 46 121 160 c 2
 333 662 l 1
 374 662 l 1
 611 119 l 2
 640 53 660 30 714 30 c 1
 714 0 l 1
 445 0 l 1
 445 30 l 1
 475 30 514 32 514 67 c 0
 514 81 510 99 497 129 c 2
 458 219 l 1
 202 219 l 1
 157 113 l 2
 151 97 146 82 146 64 c 0xf340
 146 36 166 30 213 30 c 1
 213 0 l 1xe2c0
217 259 m 1
 443 259 l 1
 333 539 l 1
 330 539 l 1
 217 259 l 1
249 693 m 1
 207 693 l 1xf2c0
 319 826 l 1
 391 826 l 1xeac0
 501 693 l 1
 461 693 l 1xf2c0
 354 774 l 1xe6c0
 249 693 l 1
499 763 m 1xeac0
 458 763 l 1
 458 817 l 1xeac0
 509 818 523 842 523 883 c 0
 523 923 508 928 493 928 c 0
 447 928 463 881 430 881 c 0
 413 881 403 893 403 909 c 0
 403 941 448 957 492 957 c 0
 556 957 583 922 583 881 c 0xeae0
 583 822 530 805 499 800 c 1
 499 763 l 1xeac0
EndSplineSet
Substitution2: "'c2sc' Capitals to Small Capitals in Latin lookup 5 subtable" uni1EA8.c2sc
EndChar

StartChar: uni1EAC
Encoding: 7852 7852 36
Width: 718
GlyphClass: 2
Flags: MW
HStem: -181 113<319 353.5> 0 30<3 31 189.5 213 3 31 445 460 687 714> 219 40<217 443 217 458 202 443> 642 20G<333 374 374 374> 698 138<207 391 207 391 319 461 319 501> 779 57<354 354>
VStem: 3 143<0 73 30 73> 3 210<0 30 0 30> 279 114<-139.5 -109>
AnchorPoint: "Anchor-5" 444 0 basechar 0
AnchorPoint: "Anchor-4" 337 0 basechar 0
AnchorPoint: "Anchor-3" 336 -181 basechar 0
AnchorPoint: "Anchor-1" 354 836 basechar 0
LayerCount: 2
Fore
SplineSet
213 0 m 1xf980
 3 0 l 1
 3 30 l 1
 59 30 73 46 121 160 c 2
 333 662 l 1
 374 662 l 1
 611 119 l 2
 640 53 660 30 714 30 c 1
 714 0 l 1
 445 0 l 1
 445 30 l 1
 475 30 514 32 514 67 c 0
 514 81 510 99 497 129 c 2
 458 219 l 1
 202 219 l 1
 157 113 l 2
 151 97 146 82 146 64 c 0xfa80
 146 36 166 30 213 30 c 1
 213 0 l 1xf980
217 259 m 1
 443 259 l 1
 333 539 l 1
 330 539 l 1
 217 259 l 1
249 698 m 1
 207 698 l 1
 319 836 l 1
 391 836 l 1
 501 698 l 1
 461 698 l 1xfa80
 354 779 l 1xf680
 249 698 l 1
336 -181 m 0
 302 -181 279 -155 279 -124 c 0
 279 -94 301 -68 336 -68 c 0
 371 -68 393 -94 393 -124 c 0
 393 -155 371 -181 336 -181 c 0
EndSplineSet
Substitution2: "'c2sc' Capitals to Small Capitals in Latin lookup 5 subtable" uni1EAC.c2sc
EndChar

StartChar: Atilde
Encoding: 195 195 37
Width: 718
GlyphClass: 2
Flags: MW
HStem: 0 30<3 31 189.5 213 3 31 445 460 687 714> 219 40<217 443 217 458 202 443> 642 20G<333 374 374 374> 714 61<413.5 443.5> 751 60<273 303.5>
VStem: 3 143<0 73 30 73> 3 210<0 30 0 30> 3 711<0 30 0 30>
AnchorPoint: "Anchor-5" 444 0 basechar 0
AnchorPoint: "Anchor-4" 337 0 basechar 0
AnchorPoint: "Anchor-2" 336 0 basechar 0
AnchorPoint: "Anchor-1" 354 811 basechar 0
LayerCount: 2
Fore
SplineSet
213 0 m 1xea
 3 0 l 1
 3 30 l 1
 59 30 73 46 121 160 c 2
 333 662 l 1
 374 662 l 1
 611 119 l 2
 640 53 660 30 714 30 c 1
 714 0 l 1
 445 0 l 1
 445 30 l 1
 475 30 514 32 514 67 c 0
 514 81 510 99 497 129 c 2
 458 219 l 1
 202 219 l 1
 157 113 l 2
 151 97 146 82 146 64 c 0xec
 146 36 166 30 213 30 c 1
 213 0 l 1xea
217 259 m 1
 443 259 l 1
 333 539 l 1
 330 539 l 1
 217 259 l 1
222 712 m 1
 196 712 l 1
 208 776 248 811 298 811 c 0xe9
 358 811 390 775 437 775 c 0
 464 775 484 782 496 816 c 1
 522 816 l 1xf1
 506 742 471 714 416 714 c 0
 358 714 328 751 279 751 c 0
 254 751 232 743 222 712 c 1
EndSplineSet
Substitution2: "'c2sc' Capitals to Small Capitals in Latin lookup 5 subtable" Atilde.c2sc
EndChar

StartChar: Adieresis
Encoding: 196 196 38
Width: 718
GlyphClass: 2
Flags: MW
HStem: 0 30<3 31 189.5 213 3 31 445 460 687 714> 219 40<217 443 217 458 202 443> 642 20G<333 374 374 374> 706 110<226.5 260.5 447.5 481.5>
VStem: 3 143<0 73 30 73> 3 210<0 30 0 30> 187 113<746.5 775.5> 408 113<746.5 775.5>
AnchorPoint: "Anchor-5" 444 0 basechar 0
AnchorPoint: "Anchor-4" 337 0 basechar 0
AnchorPoint: "Anchor-2" 336 0 basechar 0
AnchorPoint: "Anchor-1" 354 816 basechar 0
LayerCount: 2
Fore
SplineSet
213 0 m 1xf5
 3 0 l 1
 3 30 l 1
 59 30 73 46 121 160 c 2
 333 662 l 1
 374 662 l 1
 611 119 l 2
 640 53 660 30 714 30 c 1
 714 0 l 1
 445 0 l 1
 445 30 l 1
 475 30 514 32 514 67 c 0
 514 81 510 99 497 129 c 2
 458 219 l 1
 202 219 l 1
 157 113 l 2
 151 97 146 82 146 64 c 0xfb
 146 36 166 30 213 30 c 1
 213 0 l 1xf5
217 259 m 1
 443 259 l 1
 333 539 l 1
 330 539 l 1
 217 259 l 1
243 706 m 0
 210 706 187 732 187 761 c 0
 187 790 209 816 243 816 c 0
 278 816 300 790 300 761 c 0
 300 732 278 706 243 706 c 0
464 706 m 0
 431 706 408 732 408 761 c 0
 408 790 430 816 464 816 c 0
 499 816 521 790 521 761 c 0
 521 732 499 706 464 706 c 0
EndSplineSet
Substitution2: "'c2sc' Capitals to Small Capitals in Latin lookup 5 subtable" Adieresis.c2sc
EndChar

StartChar: uni01DE
Encoding: 478 478 39
Width: 718
GlyphClass: 2
Flags: MW
HStem: 0 30<3 31 189.5 213 3 31 445 460 687 714> 219 40<217 443 217 458 202 443> 642 20G<333 374 374 374> 696 110<226.5 260.5 447.5 481.5> 846 53<207 501 207 501>
VStem: 3 143<0 73 30 73> 3 210<0 30 0 30> 187 113<736.5 765.5> 408 113<736.5 765.5>
AnchorPoint: "Anchor-5" 444 0 basechar 0
AnchorPoint: "Anchor-4" 337 0 basechar 0
AnchorPoint: "Anchor-2" 336 0 basechar 0
AnchorPoint: "Anchor-1" 354 899 basechar 0
LayerCount: 2
Fore
SplineSet
213 0 m 1xfa80
 3 0 l 1
 3 30 l 1
 59 30 73 46 121 160 c 2
 333 662 l 1
 374 662 l 1
 611 119 l 2
 640 53 660 30 714 30 c 1
 714 0 l 1
 445 0 l 1
 445 30 l 1
 475 30 514 32 514 67 c 0
 514 81 510 99 497 129 c 2
 458 219 l 1
 202 219 l 1
 157 113 l 2
 151 97 146 82 146 64 c 0xfd80
 146 36 166 30 213 30 c 1
 213 0 l 1xfa80
217 259 m 1
 443 259 l 1
 333 539 l 1
 330 539 l 1
 217 259 l 1
501 846 m 1
 207 846 l 1
 207 899 l 1
 501 899 l 1
 501 846 l 1
243 696 m 0
 210 696 187 722 187 751 c 0
 187 780 209 806 243 806 c 0
 278 806 300 780 300 751 c 0
 300 722 278 696 243 696 c 0
464 696 m 0
 431 696 408 722 408 751 c 0
 408 780 430 806 464 806 c 0
 499 806 521 780 521 751 c 0
 521 722 499 696 464 696 c 0
EndSplineSet
Substitution2: "'c2sc' Capitals to Small Capitals in Latin lookup 5 subtable" uni01DE.c2sc
EndChar

StartChar: Amacron
Encoding: 256 256 40
Width: 718
GlyphClass: 2
Flags: MW
HStem: 0 30<3 31 189.5 213 3 31 445 460 687 714> 219 40<217 443 217 458 202 443> 642 20G<333 374 374 374> 726 53<207 501 207 501>
VStem: 3 143<0 73 30 73> 3 210<0 30 0 30>
AnchorPoint: "Anchor-5" 444 0 basechar 0
AnchorPoint: "Anchor-4" 337 0 basechar 0
AnchorPoint: "Anchor-2" 336 0 basechar 0
AnchorPoint: "Anchor-1" 354 779 basechar 0
LayerCount: 2
Fore
SplineSet
213 0 m 1xf4
 3 0 l 1
 3 30 l 1
 59 30 73 46 121 160 c 2
 333 662 l 1
 374 662 l 1
 611 119 l 2
 640 53 660 30 714 30 c 1
 714 0 l 1
 445 0 l 1
 445 30 l 1
 475 30 514 32 514 67 c 0
 514 81 510 99 497 129 c 2
 458 219 l 1
 202 219 l 1
 157 113 l 2
 151 97 146 82 146 64 c 0xf8
 146 36 166 30 213 30 c 1
 213 0 l 1xf4
217 259 m 1
 443 259 l 1
 333 539 l 1
 330 539 l 1
 217 259 l 1
501 726 m 1
 207 726 l 1
 207 779 l 1
 501 779 l 1
 501 726 l 1
EndSplineSet
Substitution2: "'c2sc' Capitals to Small Capitals in Latin lookup 5 subtable" Amacron.c2sc
EndChar

StartChar: Abreve
Encoding: 258 258 41
Width: 718
GlyphClass: 2
Flags: MW
HStem: 0 30<3 31 189.5 213 3 31 445 460 687 714> 219 40<217 443 217 458 202 443> 642 20G<333 374 374 374> 712 64<321 387.5 321 400.5>
VStem: 3 143<0 73 30 73> 3 210<0 30 0 30> 206 30<865 865>
AnchorPoint: "Anchor-5" 444 0 basechar 0
AnchorPoint: "Anchor-4" 337 0 basechar 0
AnchorPoint: "Anchor-2" 336 0 basechar 0
AnchorPoint: "Anchor-1" 354 865 basechar 0
LayerCount: 2
Fore
SplineSet
213 0 m 1xf4
 3 0 l 1
 3 30 l 1
 59 30 73 46 121 160 c 2
 333 662 l 1
 374 662 l 1
 611 119 l 2
 640 53 660 30 714 30 c 1
 714 0 l 1
 445 0 l 1
 445 30 l 1
 475 30 514 32 514 67 c 0
 514 81 510 99 497 129 c 2
 458 219 l 1
 202 219 l 1
 157 113 l 2
 151 97 146 82 146 64 c 0xfa
 146 36 166 30 213 30 c 1
 213 0 l 1xf4
217 259 m 1
 443 259 l 1
 333 539 l 1
 330 539 l 1
 217 259 l 1
354 712 m 0
 262 712 210 761 206 865 c 1
 236 865 l 1
 255 793 288 776 354 776 c 0
 421 776 448 793 473 865 c 1
 502 865 l 1
 491 761 447 712 354 712 c 0
EndSplineSet
Substitution2: "'c2sc' Capitals to Small Capitals in Latin lookup 5 subtable" Abreve.c2sc
EndChar

StartChar: uni1EB0
Encoding: 7856 7856 42
Width: 718
GlyphClass: 2
Flags: MW
HStem: 0 30<3 31 189.5 213 3 31 445 460 687 714> 219 40<217 443 217 458 202 443> 642 20G<333 374 374 374> 702 64<321 387.5 321 400.5> 798 57 895 21<240 326>
VStem: 3 143<0 73 30 73> 3 210<0 30 0 30> 206 30<855 855>
AnchorPoint: "Anchor-5" 444 0 basechar 0
AnchorPoint: "Anchor-4" 337 0 basechar 0
AnchorPoint: "Anchor-2" 336 0 basechar 0
AnchorPoint: "Anchor-0" 354 657 basechar 0
LayerCount: 2
Fore
SplineSet
213 0 m 1xfd
 3 0 l 1
 3 30 l 1
 59 30 73 46 121 160 c 2
 333 662 l 1
 374 662 l 1
 611 119 l 2
 640 53 660 30 714 30 c 1
 714 0 l 1
 445 0 l 1
 445 30 l 1
 475 30 514 32 514 67 c 0
 514 81 510 99 497 129 c 2
 458 219 l 1
 202 219 l 1
 157 113 l 2
 151 97 146 82 146 64 c 0xfe80
 146 36 166 30 213 30 c 1
 213 0 l 1xfd
217 259 m 1
 443 259 l 1
 333 539 l 1
 330 539 l 1
 217 259 l 1
354 702 m 0
 262 702 210 751 206 855 c 1
 236 855 l 1
 255 783 288 766 354 766 c 0
 421 766 448 783 473 855 c 1
 502 855 l 1
 491 751 447 702 354 702 c 0
415 798 m 1
 374 798 l 1
 240 895 l 1
 240 916 l 1
 326 916 l 1
 415 798 l 1
EndSplineSet
Substitution2: "'c2sc' Capitals to Small Capitals in Latin lookup 5 subtable" uni1EB0.c2sc
EndChar

StartChar: uni1EAE
Encoding: 7854 7854 43
Width: 718
GlyphClass: 2
Flags: MW
HStem: 0 30<3 31 189.5 213 3 31 445 460 687 714> 219 40<217 443 217 458 202 443> 642 20G<333 374 374 374> 702 64<321 387.5 321 400.5> 798 57 895 21<382 468>
VStem: 3 143<0 73 30 73> 3 210<0 30 0 30> 206 30<855 855>
AnchorPoint: "Anchor-5" 444 0 basechar 0
AnchorPoint: "Anchor-4" 337 0 basechar 0
AnchorPoint: "Anchor-2" 336 0 basechar 0
AnchorPoint: "Anchor-0" 354 657 basechar 0
LayerCount: 2
Fore
SplineSet
213 0 m 1xfd
 3 0 l 1
 3 30 l 1
 59 30 73 46 121 160 c 2
 333 662 l 1
 374 662 l 1
 611 119 l 2
 640 53 660 30 714 30 c 1
 714 0 l 1
 445 0 l 1
 445 30 l 1
 475 30 514 32 514 67 c 0
 514 81 510 99 497 129 c 2
 458 219 l 1
 202 219 l 1
 157 113 l 2
 151 97 146 82 146 64 c 0xfe80
 146 36 166 30 213 30 c 1
 213 0 l 1xfd
217 259 m 1
 443 259 l 1
 333 539 l 1
 330 539 l 1
 217 259 l 1
354 702 m 0
 262 702 210 751 206 855 c 1
 236 855 l 1
 255 783 288 766 354 766 c 0
 421 766 448 783 473 855 c 1
 502 855 l 1
 491 751 447 702 354 702 c 0
334 798 m 1
 293 798 l 1
 382 916 l 1
 468 916 l 1
 468 895 l 1
 334 798 l 1
EndSplineSet
Substitution2: "'c2sc' Capitals to Small Capitals in Latin lookup 5 subtable" uni1EAE.c2sc
EndChar

StartChar: uni1EB4
Encoding: 7860 7860 44
Width: 718
GlyphClass: 2
Flags: MW
HStem: 0 30<3 31 189.5 213 3 31 445 460 687 714> 219 40<217 443 217 458 202 443> 642 20G<333 374 374 374> 702 64<322 386.5 322 399.5> 868 58<411 440> 903 57<276.5 306>
VStem: 3 143<0 73 30 73> 3 210<0 30 0 30> 206 22<848 866> 206 32<848 848>
AnchorPoint: "Anchor-5" 444 0 basechar 0
AnchorPoint: "Anchor-4" 337 0 basechar 0
AnchorPoint: "Anchor-2" 336 0 basechar 0
AnchorPoint: "Anchor-0" 354 657 basechar 0
LayerCount: 2
Fore
SplineSet
213 0 m 1xf5
 3 0 l 1
 3 30 l 1
 59 30 73 46 121 160 c 2
 333 662 l 1
 374 662 l 1
 611 119 l 2
 640 53 660 30 714 30 c 1
 714 0 l 1
 445 0 l 1
 445 30 l 1
 475 30 514 32 514 67 c 0
 514 81 510 99 497 129 c 2
 458 219 l 1
 202 219 l 1
 157 113 l 2
 151 97 146 82 146 64 c 0xf640
 146 36 166 30 213 30 c 1
 213 0 l 1xf5
217 259 m 1
 443 259 l 1
 333 539 l 1
 330 539 l 1
 217 259 l 1
354 702 m 0
 264 702 212 749 206 848 c 1
 238 848 l 1
 257 781 290 766 354 766 c 0
 419 766 447 781 471 848 c 1
 501 848 l 1
 489 749 445 702 354 702 c 0
228 866 m 1xf680
 203 866 l 1
 215 927 253 960 300 960 c 0xf680
 359 960 389 926 433 926 c 0
 460 926 479 933 490 965 c 1
 515 965 l 1
 499 894 466 868 414 868 c 0xfa40
 359 868 329 903 283 903 c 0
 258 903 237 895 228 866 c 1xf680
EndSplineSet
Substitution2: "'c2sc' Capitals to Small Capitals in Latin lookup 5 subtable" uni1EB4.c2sc
EndChar

StartChar: uni1EB2
Encoding: 7858 7858 45
Width: 718
GlyphClass: 2
Flags: MW
HStem: 0 30<3 31 189.5 213 3 31 445 460 687 714> 219 40<217 443 217 458 202 443> 642 20G<333 374 374 374> 702 64<321 387.5 321 400.5> 953 29<338 368.5>
VStem: 3 143<0 73 30 73> 3 210<0 30 0 30> 206 30<855 855> 326 41<788 825 788 842> 391 60<887.5 926.5 876.5 928>
AnchorPoint: "Anchor-5" 444 0 basechar 0
AnchorPoint: "Anchor-4" 337 0 basechar 0
AnchorPoint: "Anchor-2" 336 0 basechar 0
AnchorPoint: "Anchor-0" 354 657 basechar 0
LayerCount: 2
Fore
SplineSet
213 0 m 1xfa80
 3 0 l 1
 3 30 l 1
 59 30 73 46 121 160 c 2
 333 662 l 1
 374 662 l 1
 611 119 l 2
 640 53 660 30 714 30 c 1
 714 0 l 1
 445 0 l 1
 445 30 l 1
 475 30 514 32 514 67 c 0
 514 81 510 99 497 129 c 2
 458 219 l 1
 202 219 l 1
 157 113 l 2
 151 97 146 82 146 64 c 0xfd80
 146 36 166 30 213 30 c 1
 213 0 l 1xfa80
217 259 m 1
 443 259 l 1
 333 539 l 1
 330 539 l 1
 217 259 l 1
354 702 m 0
 262 702 210 751 206 855 c 1
 236 855 l 1
 255 783 288 766 354 766 c 0
 421 766 448 783 473 855 c 1
 502 855 l 1
 491 751 447 702 354 702 c 0
367 788 m 1
 326 788 l 1
 326 842 l 1xfa80
 377 843 391 867 391 908 c 0
 391 948 376 953 361 953 c 0
 315 953 331 906 298 906 c 0
 281 906 271 918 271 934 c 0
 271 966 316 982 360 982 c 0
 424 982 451 947 451 906 c 0xfac0
 451 847 398 830 367 825 c 1
 367 788 l 1
EndSplineSet
Substitution2: "'c2sc' Capitals to Small Capitals in Latin lookup 5 subtable" uni1EB2.c2sc
EndChar

StartChar: uni1EB6
Encoding: 7862 7862 46
Width: 718
GlyphClass: 2
Flags: MW
HStem: -181 113<319 353.5> 0 30<3 31 189.5 213 3 31 445 460 687 714> 219 40<217 443 217 458 202 443> 642 20G<333 374 374 374> 712 64<321 387.5 321 400.5>
VStem: 3 143<0 73 30 73> 3 210<0 30 0 30> 206 30<865 865> 279 114<-139.5 -109>
AnchorPoint: "Anchor-5" 444 0 basechar 0
AnchorPoint: "Anchor-4" 337 0 basechar 0
AnchorPoint: "Anchor-3" 336 -181 basechar 0
AnchorPoint: "Anchor-1" 354 865 basechar 0
LayerCount: 2
Fore
SplineSet
213 0 m 1x7a80
 3 0 l 1
 3 30 l 1
 59 30 73 46 121 160 c 2
 333 662 l 1
 374 662 l 1
 611 119 l 2
 640 53 660 30 714 30 c 1
 714 0 l 1
 445 0 l 1
 445 30 l 1
 475 30 514 32 514 67 c 0
 514 81 510 99 497 129 c 2
 458 219 l 1
 202 219 l 1
 157 113 l 2
 151 97 146 82 146 64 c 0xfd80
 146 36 166 30 213 30 c 1
 213 0 l 1x7a80
217 259 m 1
 443 259 l 1
 333 539 l 1
 330 539 l 1
 217 259 l 1
354 712 m 0
 262 712 210 761 206 865 c 1
 236 865 l 1
 255 793 288 776 354 776 c 0
 421 776 448 793 473 865 c 1
 502 865 l 1
 491 761 447 712 354 712 c 0
336 -181 m 0
 302 -181 279 -155 279 -124 c 0
 279 -94 301 -68 336 -68 c 0
 371 -68 393 -94 393 -124 c 0
 393 -155 371 -181 336 -181 c 0
EndSplineSet
Substitution2: "'c2sc' Capitals to Small Capitals in Latin lookup 5 subtable" uni1EB6.c2sc
EndChar

StartChar: Aring
Encoding: 197 197 47
Width: 718
GlyphClass: 2
Flags: MW
HStem: 0 30<3 31 189.5 213 3 31 445 460 687 714> 219 40<217 443 217 458 202 443> 642 20G<333 374 374 374> 699 35<333.5 373.5 333.5 383> 854 35<333.5 372.5>
VStem: 3 143<0 73 30 73> 3 210<0 30 0 30> 251 43<776.5 811.5 776.5 823> 412 44<776.5 811.5>
AnchorPoint: "Anchor-5" 444 0 basechar 0
AnchorPoint: "Anchor-4" 337 0 basechar 0
AnchorPoint: "Anchor-2" 336 0 basechar 0
AnchorPoint: "Anchor-1" 353 889 basechar 0
LayerCount: 2
Fore
SplineSet
213 0 m 1xfb80
 3 0 l 1
 3 30 l 1
 59 30 73 46 121 160 c 2
 333 662 l 1
 374 662 l 1
 611 119 l 2
 640 53 660 30 714 30 c 1
 714 0 l 1
 445 0 l 1
 445 30 l 1
 475 30 514 32 514 67 c 0
 514 81 510 99 497 129 c 2
 458 219 l 1
 202 219 l 1
 157 113 l 2
 151 97 146 82 146 64 c 0xfd80
 146 36 166 30 213 30 c 1
 213 0 l 1xfb80
217 259 m 1
 443 259 l 1
 333 539 l 1
 330 539 l 1
 217 259 l 1
353 699 m 0
 295 699 251 732 251 794 c 0
 251 852 294 889 353 889 c 0
 413 889 456 852 456 794 c 0
 456 732 413 699 353 699 c 0
353 734 m 0
 394 734 412 759 412 794 c 0
 412 829 392 854 353 854 c 0
 314 854 294 829 294 794 c 0
 294 759 314 734 353 734 c 0
EndSplineSet
Substitution2: "'c2sc' Capitals to Small Capitals in Latin lookup 5 subtable" Aring.c2sc
EndChar

StartChar: Aringacute
Encoding: 506 506 48
Width: 718
GlyphClass: 2
Flags: MW
HStem: 0 30<3 31 189.5 213 3 31 445 460 687 714> 219 40<217 443 217 458 202 443> 642 20G<333 374 374 374> 684 35<333.5 373.5 333.5 383> 839 35<333.5 372.5> 898 128<258 463 258 463> 1005 21<363 463>
VStem: 3 143<0 73 30 73> 3 210<0 30 0 30> 251 43<761.5 796.5 761.5 808> 412 44<761.5 796.5>
AnchorPoint: "Anchor-5" 444 0 basechar 0
AnchorPoint: "Anchor-4" 337 0 basechar 0
AnchorPoint: "Anchor-2" 336 0 basechar 0
AnchorPoint: "Anchor-1" 354 1026 basechar 0
LayerCount: 2
Fore
SplineSet
213 0 m 1xeae0
 3 0 l 1
 3 30 l 1
 59 30 73 46 121 160 c 2
 333 662 l 1
 374 662 l 1
 611 119 l 2
 640 53 660 30 714 30 c 1
 714 0 l 1
 445 0 l 1
 445 30 l 1
 475 30 514 32 514 67 c 0
 514 81 510 99 497 129 c 2
 458 219 l 1
 202 219 l 1
 157 113 l 2
 151 97 146 82 146 64 c 0xeb60
 146 36 166 30 213 30 c 1
 213 0 l 1xeae0
217 259 m 1
 443 259 l 1
 333 539 l 1
 330 539 l 1
 217 259 l 1
353 684 m 0xfae0
 295 684 251 717 251 779 c 0
 251 837 294 874 353 874 c 0
 413 874 456 837 456 779 c 0
 456 717 413 684 353 684 c 0xfae0
353 719 m 0
 394 719 412 744 412 779 c 0
 412 814 392 839 353 839 c 0
 314 839 294 814 294 779 c 0
 294 744 314 719 353 719 c 0
304 898 m 1xece0
 258 898 l 1xece0
 363 1026 l 1
 463 1026 l 1
 463 1005 l 1xeae0
 304 898 l 1xece0
EndSplineSet
Substitution2: "'c2sc' Capitals to Small Capitals in Latin lookup 5 subtable" Aringacute.c2sc
EndChar

StartChar: uni1EA2
Encoding: 7842 7842 49
Width: 718
GlyphClass: 2
Flags: MW
HStem: 0 30<3 31 189.5 213 3 31 445 460 687 714> 219 40<217 443 217 458 202 443> 642 20G<333 374 374 374> 870 29<342 372.5>
VStem: 3 143<0 73 30 73> 3 210<0 30 0 30> 330 41<698 737 698 754> 395 62<801.5 842 790.5 844>
AnchorPoint: "Anchor-5" 444 0 basechar 0
AnchorPoint: "Anchor-4" 337 0 basechar 0
AnchorPoint: "Anchor-2" 336 0 basechar 0
AnchorPoint: "Anchor-0" 354 657 basechar 0
LayerCount: 2
Fore
SplineSet
213 0 m 1xf6
 3 0 l 1
 3 30 l 1
 59 30 73 46 121 160 c 2
 333 662 l 1
 374 662 l 1
 611 119 l 2
 640 53 660 30 714 30 c 1
 714 0 l 1
 445 0 l 1
 445 30 l 1
 475 30 514 32 514 67 c 0
 514 81 510 99 497 129 c 2
 458 219 l 1
 202 219 l 1
 157 113 l 2
 151 97 146 82 146 64 c 0xfa
 146 36 166 30 213 30 c 1
 213 0 l 1xf6
217 259 m 1
 443 259 l 1
 333 539 l 1
 330 539 l 1
 217 259 l 1
371 698 m 1
 330 698 l 1
 330 754 l 1xf6
 381 755 395 780 395 823 c 0
 395 865 380 870 365 870 c 0
 319 870 335 823 302 823 c 0
 285 823 275 835 275 851 c 0
 275 883 320 899 364 899 c 0
 428 899 457 863 457 821 c 0xf7
 457 760 402 742 371 737 c 1
 371 698 l 1
EndSplineSet
Substitution2: "'c2sc' Capitals to Small Capitals in Latin lookup 5 subtable" uni1EA2.c2sc
EndChar

StartChar: uni1E00
Encoding: 7680 7680 50
Width: 718
GlyphClass: 2
Flags: MW
HStem: -254 37<315.5 355 315.5 364.5> -91 36<315.5 354> 0 30<3 31 189.5 213 3 31 445 460 687 714> 219 40<217 443 217 458 202 443> 642 20G<333 374 374 374>
VStem: 3 143<0 73 30 73> 3 210<0 30 0 30> 233 44<-173 -136 -173 -124> 394 44<-173 -136>
AnchorPoint: "Anchor-5" 444 0 basechar 0
AnchorPoint: "Anchor-4" 337 0 basechar 0
AnchorPoint: "Anchor-3" 336 -254 basechar 0
AnchorPoint: "Anchor-0" 354 657 basechar 0
LayerCount: 2
Fore
SplineSet
213 0 m 1xfb80
 3 0 l 1
 3 30 l 1
 59 30 73 46 121 160 c 2
 333 662 l 1
 374 662 l 1
 611 119 l 2
 640 53 660 30 714 30 c 1
 714 0 l 1
 445 0 l 1
 445 30 l 1
 475 30 514 32 514 67 c 0
 514 81 510 99 497 129 c 2
 458 219 l 1
 202 219 l 1
 157 113 l 2
 151 97 146 82 146 64 c 0xfd80
 146 36 166 30 213 30 c 1
 213 0 l 1xfb80
335 -254 m 0
 278 -254 233 -219 233 -154 c 0
 233 -94 277 -55 335 -55 c 0
 394 -55 438 -94 438 -155 c 0
 438 -219 394 -254 335 -254 c 0
217 259 m 1
 443 259 l 1
 333 539 l 1
 330 539 l 1
 217 259 l 1
335 -217 m 0
 375 -217 394 -192 394 -154 c 0
 394 -118 373 -91 335 -91 c 0
 296 -91 277 -118 277 -154 c 0
 277 -192 296 -217 335 -217 c 0
EndSplineSet
Substitution2: "'c2sc' Capitals to Small Capitals in Latin lookup 5 subtable" uni1E00.c2sc
EndChar

StartChar: uni1EA0
Encoding: 7840 7840 51
Width: 718
GlyphClass: 2
Flags: MW
HStem: -181 113<319 353.5> 0 30<3 31 189.5 213 3 31 445 460 687 714> 219 40<217 443 217 458 202 443> 642 20G<333 374 374 374>
VStem: 3 143<0 73 30 73> 3 210<0 30 0 30> 279 114<-139.5 -109>
AnchorPoint: "Anchor-5" 444 0 basechar 0
AnchorPoint: "Anchor-4" 337 0 basechar 0
AnchorPoint: "Anchor-3" 336 -181 basechar 0
AnchorPoint: "Anchor-0" 354 657 basechar 0
LayerCount: 2
Fore
SplineSet
213 0 m 1xf6
 3 0 l 1
 3 30 l 1
 59 30 73 46 121 160 c 2
 333 662 l 1
 374 662 l 1
 611 119 l 2
 640 53 660 30 714 30 c 1
 714 0 l 1
 445 0 l 1
 445 30 l 1
 475 30 514 32 514 67 c 0
 514 81 510 99 497 129 c 2
 458 219 l 1
 202 219 l 1
 157 113 l 2
 151 97 146 82 146 64 c 0xfa
 146 36 166 30 213 30 c 1
 213 0 l 1xf6
217 259 m 1
 443 259 l 1
 333 539 l 1
 330 539 l 1
 217 259 l 1
336 -181 m 0
 302 -181 279 -155 279 -124 c 0
 279 -94 301 -68 336 -68 c 0
 371 -68 393 -94 393 -124 c 0
 393 -155 371 -181 336 -181 c 0
EndSplineSet
Substitution2: "'c2sc' Capitals to Small Capitals in Latin lookup 5 subtable" uni1EA0.c2sc
EndChar

StartChar: Aogonek
Encoding: 260 260 52
Width: 719
GlyphClass: 2
Flags: MW
HStem: -216 51<451 468> 0 30<4 34 190.5 214 4 34 688 715> 219 40<218 444 218 459 203 444> 642 20G<334 375 375 375>
VStem: 4 143<0 73 30 73> 4 210<0 30 0 30> 349 67<-128.5 -86>
AnchorPoint: "Anchor-5" 336 -250 basechar 0
AnchorPoint: "Anchor-4" 338 -250 basechar 0
AnchorPoint: "Anchor-3" 336 -250 basechar 0
AnchorPoint: "Anchor-0" 354 657 basechar 0
LayerCount: 2
Fore
SplineSet
438 -216 m 0xfa
 385 -216 349 -185 349 -126 c 0
 349 -46 414 -4 451 15 c 0
 488 34 515 45 515 67 c 0
 515 83 510 103 489 148 c 2
 459 219 l 1
 203 219 l 1
 158 113 l 2
 152 97 147 82 147 64 c 0xfa
 147 36 167 30 214 30 c 1
 214 0 l 1xf6
 4 0 l 1
 4 30 l 1
 64 30 75 48 130 180 c 2
 334 662 l 1
 375 662 l 1
 612 119 l 2
 641 53 661 30 715 30 c 1
 715 0 l 1
 528 0 l 2
 459 0 416 -59 416 -110 c 0
 416 -147 435 -165 467 -165 c 0
 504 -165 521 -156 551 -134 c 1
 565 -151 l 1
 527 -190 498 -216 438 -216 c 0xfa
218 259 m 1
 444 259 l 1
 334 539 l 1
 331 539 l 1
 218 259 l 1
EndSplineSet
Substitution2: "'c2sc' Capitals to Small Capitals in Latin lookup 5 subtable" Aogonek.c2sc
EndChar

StartChar: AE
Encoding: 198 198 53
Width: 894
GlyphClass: 2
Flags: MW
HStem: 0 30<-22 6 170.5 194 -22 6 316 361.5> 0 44<505 621 621 698.5> 301 39<259 413 259 413 242 413 505 609> 493 164<802 828 285 834 802 802> 612 45<406 413 406 406 505 640 505 505> 627 30<285 305>
VStem: -22 148<0 75 30 75> -22 216<0 30 0 30> 413 92<145 301 44 301 340 612> 720 34<212 252 400 440> 802 29
AnchorPoint: "Anchor-5" 731 0 basechar 0
AnchorPoint: "Anchor-4" 592 0 basechar 0
AnchorPoint: "Anchor-2" 460 0 basechar 0
AnchorPoint: "Anchor-0" 562 657 basechar 0
LayerCount: 2
Fore
SplineSet
194 0 m 1x69c0
 -22 0 l 1x6ac0
 -22 30 l 1
 34 30 55 59 96 134 c 2
 330 554 l 2
 337 568 343 581 343 596 c 0
 343 623 325 627 285 627 c 1xa6c0
 285 657 l 1
 828 657 l 1x69e0
 834 493 l 1
 802 493 l 1x71e0
 788 593 761 612 640 612 c 2
 505 612 l 1
 505 340 l 1
 609 340 l 2
 701 340 720 360 720 440 c 1
 754 440 l 1
 754 212 l 1
 720 212 l 1
 720 292 701 301 609 301 c 2
 505 301 l 1
 505 44 l 1
 621 44 l 2
 776 44 794 66 833 186 c 1
 865 186 l 1
 836 0 l 1
 316 0 l 1x69c0
 316 30 l 1
 407 30 413 43 413 145 c 2
 413 301 l 1
 242 301 l 1
 142 119 l 2
 133 105 126 82 126 68 c 0xaac0
 126 37 147 30 194 30 c 1xa9c0
 194 0 l 1x69c0
259 340 m 1
 413 340 l 1
 413 612 l 1
 406 612 l 1
 259 340 l 1
EndSplineSet
Substitution2: "'c2sc' Capitals to Small Capitals in Latin lookup 5 subtable" AE.c2sc
EndChar

StartChar: AEacute
Encoding: 508 508 54
Width: 894
GlyphClass: 2
Flags: MW
HStem: 0 30<-22 6 170.5 194 -22 6 316 361.5> 0 44<505 621 621 698.5> 301 39<259 413 259 413 242 413 505 609> 493 164<802 828 285 834 802 802> 612 45<406 413 406 406 505 640 505 505> 627 30<285 305> 698 128<466 671 466 671> 805 21<571 671>
VStem: -22 148<0 75 30 75> -22 216<0 30 0 30> 413 92<145 301 44 301 340 612> 720 34<212 252 400 440> 802 29
AnchorPoint: "Anchor-5" 731 0 basechar 0
AnchorPoint: "Anchor-4" 592 0 basechar 0
AnchorPoint: "Anchor-2" 460 0 basechar 0
AnchorPoint: "Anchor-1" 562 826 basechar 0
LayerCount: 2
Fore
SplineSet
194 0 m 1x6970
 -22 0 l 1x6ab0
 -22 30 l 1
 34 30 55 59 96 134 c 2
 330 554 l 2
 337 568 343 581 343 596 c 0
 343 623 325 627 285 627 c 1xa5b0
 285 657 l 1
 828 657 l 1x6978
 834 493 l 1
 802 493 l 1x7178
 788 593 761 612 640 612 c 2
 505 612 l 1
 505 340 l 1
 609 340 l 2
 701 340 720 360 720 440 c 1
 754 440 l 1
 754 212 l 1
 720 212 l 1
 720 292 701 301 609 301 c 2
 505 301 l 1
 505 44 l 1
 621 44 l 2
 776 44 794 66 833 186 c 1
 865 186 l 1
 836 0 l 1
 316 0 l 1x6970
 316 30 l 1
 407 30 413 43 413 145 c 2
 413 301 l 1
 242 301 l 1
 142 119 l 2
 133 105 126 82 126 68 c 0xa9b0
 126 37 147 30 194 30 c 1xa970
 194 0 l 1x6970
259 340 m 1
 413 340 l 1
 413 612 l 1
 406 612 l 1
 259 340 l 1
512 698 m 1
 466 698 l 1x6a70
 571 826 l 1
 671 826 l 1
 671 805 l 1x6970
 512 698 l 1
EndSplineSet
Substitution2: "'c2sc' Capitals to Small Capitals in Latin lookup 5 subtable" AEacute.c2sc
EndChar

StartChar: uni1E02
Encoding: 7682 7682 55
Width: 618
GlyphClass: 2
Flags: MW
HStem: 0 30<36 76.5 36 344 36 76.5> 0 37<285 340 285 344> 320 42<225 293 293 295 225 293> 618 39<275.5 306 306 346> 627 30<36 76.5> 705 112<278.5 312.5>
VStem: 133 92<127 320 40 362 362 536 536 576> 239 113<746 776> 452 99<456.5 532> 478 105<120 231.5 120 232>
AnchorPoint: "Anchor-5" 332 0 basechar 0
AnchorPoint: "Anchor-4" 295 0 basechar 0
AnchorPoint: "Anchor-2" 295 0 basechar 0
AnchorPoint: "Anchor-1" 295 817 basechar 0
LayerCount: 2
Fore
SplineSet
344 0 m 2x7240
 36 0 l 1x7240
 36 30 l 1
 117 30 133 44 133 127 c 2
 133 536 l 2
 133 616 117 627 36 627 c 1xaa40
 36 657 l 1
 306 657 l 2
 484 657 551 600 551 501 c 0x7280
 551 412 492 372 409 350 c 1
 409 346 l 1
 494 332 583 286 583 177 c 0
 583 63 493 0 344 0 c 2x7240
297 37 m 0
 383 37 478 48 478 175 c 0
 478 289 388 320 295 320 c 2
 225 320 l 1
 225 40 l 1
 249 38 273 37 297 37 c 0
225 615 m 1
 225 362 l 1
 293 362 l 2
 414 362 452 402 452 493 c 0x7280
 452 571 407 618 285 618 c 0
 266 618 245 617 225 615 c 1
295 705 m 0x7740
 262 705 239 731 239 761 c 0
 239 791 261 817 295 817 c 0
 330 817 352 791 352 761 c 0
 352 731 330 705 295 705 c 0x7740
EndSplineSet
Substitution2: "'c2sc' Capitals to Small Capitals in Latin lookup 5 subtable" uni1E02.c2sc
EndChar

StartChar: uni1E06
Encoding: 7686 7686 56
Width: 618
GlyphClass: 2
Flags: MW
HStem: -141 55<150 440 150 440> 0 30<36 76.5 36 344 36 76.5> 0 37<285 340 285 344> 320 42<225 293 293 295 225 293> 618 39<275.5 306 306 346> 627 30<36 76.5>
VStem: 133 92<127 320 40 362 362 536 536 576> 150 75 452 99<456.5 532> 478 105<120 231.5 120 232>
AnchorPoint: "Anchor-5" 332 0 basechar 0
AnchorPoint: "Anchor-4" 295 0 basechar 0
AnchorPoint: "Anchor-3" 295 -141 basechar 0
AnchorPoint: "Anchor-0" 295 657 basechar 0
LayerCount: 2
Fore
SplineSet
344 0 m 2xba40
 36 0 l 1xba40
 36 30 l 1
 117 30 133 44 133 127 c 2
 133 536 l 2
 133 616 117 627 36 627 c 1xd640
 36 657 l 1
 306 657 l 2
 484 657 551 600 551 501 c 0xba80
 551 412 492 372 409 350 c 1
 409 346 l 1
 494 332 583 286 583 177 c 0
 583 63 493 0 344 0 c 2xba40
297 37 m 0
 383 37 478 48 478 175 c 0
 478 289 388 320 295 320 c 2
 225 320 l 1
 225 40 l 1
 249 38 273 37 297 37 c 0
225 615 m 1
 225 362 l 1
 293 362 l 2
 414 362 452 402 452 493 c 0xba80
 452 571 407 618 285 618 c 0
 266 618 245 617 225 615 c 1
440 -141 m 1
 150 -141 l 1
 150 -86 l 1xb940
 440 -86 l 1
 440 -141 l 1
EndSplineSet
Substitution2: "'c2sc' Capitals to Small Capitals in Latin lookup 5 subtable" uni1E06.c2sc
EndChar

StartChar: uni1E04
Encoding: 7684 7684 57
Width: 618
GlyphClass: 2
Flags: MW
HStem: -181 113<278 312.5> 0 30<36 76.5 36 344 36 76.5> 0 37<285 340 285 344> 320 42<225 293 293 295 225 293> 618 39<275.5 306 306 346> 627 30<36 76.5>
VStem: 133 92<127 320 40 362 362 536 536 576> 238 114<-139.5 -109> 452 99<456.5 532> 478 105<120 231.5 120 232>
AnchorPoint: "Anchor-5" 332 0 basechar 0
AnchorPoint: "Anchor-4" 295 0 basechar 0
AnchorPoint: "Anchor-3" 295 -181 basechar 0
AnchorPoint: "Anchor-0" 295 657 basechar 0
LayerCount: 2
Fore
SplineSet
344 0 m 2x3a40
 36 0 l 1x3a40
 36 30 l 1
 117 30 133 44 133 127 c 2
 133 536 l 2
 133 616 117 627 36 627 c 1x5640
 36 657 l 1
 306 657 l 2
 484 657 551 600 551 501 c 0x3a80
 551 412 492 372 409 350 c 1
 409 346 l 1
 494 332 583 286 583 177 c 0
 583 63 493 0 344 0 c 2x3a40
297 37 m 0
 383 37 478 48 478 175 c 0
 478 289 388 320 295 320 c 2
 225 320 l 1
 225 40 l 1
 249 38 273 37 297 37 c 0
225 615 m 1
 225 362 l 1
 293 362 l 2
 414 362 452 402 452 493 c 0x3a80
 452 571 407 618 285 618 c 0
 266 618 245 617 225 615 c 1
295 -181 m 0xbb40
 261 -181 238 -155 238 -124 c 0
 238 -94 260 -68 295 -68 c 0
 330 -68 352 -94 352 -124 c 0
 352 -155 330 -181 295 -181 c 0xbb40
EndSplineSet
Substitution2: "'c2sc' Capitals to Small Capitals in Latin lookup 5 subtable" uni1E04.c2sc
EndChar

StartChar: Cacute
Encoding: 262 262 58
Width: 670
GlyphClass: 2
Flags: MW
HStem: -11 63<322.5 429.5> 613 20G<532.5 553> 626 43<307 430.5> 698 128<281 486 281 486> 805 21<386 486>
VStem: 50 104<238 427 238 437> 575 34<440 669> 579 30<440 669>
AnchorPoint: "Anchor-5" 357 0 basechar 0
AnchorPoint: "Anchor-4" 356 0 basechar 0
AnchorPoint: "Anchor-2" 364 0 basechar 0
AnchorPoint: "Anchor-1" 377 826 basechar 0
LayerCount: 2
Fore
SplineSet
364 -11 m 0xad
 158 -11 50 133 50 328 c 0xad
 50 546 186 669 378 669 c 0
 483 669 520 633 545 633 c 0xcd
 561 633 567 649 579 669 c 1
 609 669 l 1
 609 440 l 1xad
 575 440 l 1xae
 553 571 482 626 379 626 c 0
 235 626 154 516 154 338 c 0
 154 138 252 52 393 52 c 0
 485 52 552 88 608 149 c 1
 632 128 l 1
 578 47 495 -11 364 -11 c 0xad
327 698 m 1xb5
 281 698 l 1xb5
 386 826 l 1
 486 826 l 1
 486 805 l 1xad
 327 698 l 1xb5
EndSplineSet
Substitution2: "'c2sc' Capitals to Small Capitals in Latin lookup 5 subtable" Cacute.c2sc
EndChar

StartChar: Ccircumflex
Encoding: 264 264 59
Width: 670
GlyphClass: 2
Flags: MW
HStem: -11 63<322.5 429.5> 613 20G<532.5 553> 626 43<307 430.5> 698 138<230 414 230 414 342 484 342 524> 779 57<377 377>
VStem: 50 104<238 427 238 437> 575 34<440 669> 579 30<440 669>
AnchorPoint: "Anchor-5" 357 0 basechar 0
AnchorPoint: "Anchor-4" 356 0 basechar 0
AnchorPoint: "Anchor-2" 364 0 basechar 0
AnchorPoint: "Anchor-1" 377 836 basechar 0
LayerCount: 2
Fore
SplineSet
364 -11 m 0xa5
 158 -11 50 133 50 328 c 0xa5
 50 546 186 669 378 669 c 0
 483 669 520 633 545 633 c 0xc5
 561 633 567 649 579 669 c 1
 609 669 l 1
 609 440 l 1xa5
 575 440 l 1xa6
 553 571 482 626 379 626 c 0
 235 626 154 516 154 338 c 0
 154 138 252 52 393 52 c 0
 485 52 552 88 608 149 c 1
 632 128 l 1
 578 47 495 -11 364 -11 c 0xa5
272 698 m 1xb5
 230 698 l 1
 342 836 l 1
 414 836 l 1
 524 698 l 1
 484 698 l 1xb5
 377 779 l 1xad
 272 698 l 1xb5
EndSplineSet
Substitution2: "'c2sc' Capitals to Small Capitals in Latin lookup 5 subtable" Ccircumflex.c2sc
EndChar

StartChar: Ccaron
Encoding: 268 268 60
Width: 670
GlyphClass: 2
Flags: MW
HStem: -11 63<322.5 429.5> 613 20G<532.5 553> 626 43<307 430.5> 698 57<378 378 378 413 342 378> 698 138<230 413 230 342>
VStem: 50 104<238 427 238 437> 575 34<440 669> 579 30<440 669>
AnchorPoint: "Anchor-5" 357 0 basechar 0
AnchorPoint: "Anchor-4" 356 0 basechar 0
AnchorPoint: "Anchor-2" 364 0 basechar 0
AnchorPoint: "Anchor-1" 377 836 basechar 0
LayerCount: 2
Fore
SplineSet
364 -11 m 0xa5
 158 -11 50 133 50 328 c 0xa5
 50 546 186 669 378 669 c 0
 483 669 520 633 545 633 c 0xc5
 561 633 567 649 579 669 c 1
 609 669 l 1
 609 440 l 1xa5
 575 440 l 1xa6
 553 571 482 626 379 626 c 0
 235 626 154 516 154 338 c 0
 154 138 252 52 393 52 c 0
 485 52 552 88 608 149 c 1
 632 128 l 1
 578 47 495 -11 364 -11 c 0xa5
413 698 m 1xad
 342 698 l 1
 230 836 l 1
 272 836 l 1xad
 378 755 l 1xb5
 484 836 l 1
 524 836 l 1
 413 698 l 1xad
EndSplineSet
Substitution2: "'c2sc' Capitals to Small Capitals in Latin lookup 5 subtable" Ccaron.c2sc
EndChar

StartChar: Cdotaccent
Encoding: 266 266 61
Width: 670
GlyphClass: 2
Flags: MW
HStem: -11 63<322.5 429.5> 613 20G<532.5 553> 626 43<307 430.5> 705 112<360.5 394.5>
VStem: 50 104<238 427 238 437> 321 113<746 776> 575 34<440 669> 579 30<440 669>
AnchorPoint: "Anchor-5" 357 0 basechar 0
AnchorPoint: "Anchor-4" 356 0 basechar 0
AnchorPoint: "Anchor-2" 364 0 basechar 0
AnchorPoint: "Anchor-1" 377 817 basechar 0
LayerCount: 2
Fore
SplineSet
364 -11 m 0xa9
 158 -11 50 133 50 328 c 0xa9
 50 546 186 669 378 669 c 0
 483 669 520 633 545 633 c 0xc9
 561 633 567 649 579 669 c 1
 609 669 l 1
 609 440 l 1xa9
 575 440 l 1xaa
 553 571 482 626 379 626 c 0
 235 626 154 516 154 338 c 0
 154 138 252 52 393 52 c 0
 485 52 552 88 608 149 c 1
 632 128 l 1
 578 47 495 -11 364 -11 c 0xa9
377 705 m 0xbd
 344 705 321 731 321 761 c 0
 321 791 343 817 377 817 c 0
 412 817 434 791 434 761 c 0
 434 731 412 705 377 705 c 0xbd
EndSplineSet
Substitution2: "'c2sc' Capitals to Small Capitals in Latin lookup 5 subtable" Cdotaccent.c2sc
EndChar

StartChar: Ccedilla
Encoding: 199 199 62
Width: 670
GlyphClass: 2
Flags: MW
HStem: -215 39<328.5 355 325.5 378> -90 35<361 366.5> -11 63<352 364 352 354> 613 20G<532.5 553> 626 43<307 430.5>
VStem: 50 104<238 427 238 437> 393 58<-148 -120.5> 575 34<440 669> 579 30<440 669>
AnchorPoint: "Anchor-5" 357 0 basechar 0
AnchorPoint: "Anchor-4" 356 0 basechar 0
AnchorPoint: "Anchor-3" 351 -237 basechar 0
AnchorPoint: "Anchor-0" 377 657 basechar 0
LayerCount: 2
Fore
SplineSet
364 -11 m 0xee80
 360 -11 356 -11 352 -11 c 2
 341 -57 l 1
 341 -57 353 -55 369 -55 c 0
 420 -55 451 -81 451 -128 c 0
 451 -182 409 -215 347 -215 c 0
 310 -215 286 -197 264 -180 c 1
 274 -157 l 1
 292 -168 313 -176 338 -176 c 0
 372 -176 393 -164 393 -132 c 0
 393 -109 383 -90 350 -90 c 0
 334 -90 319 -93 319 -93 c 1
 305 -82 l 1
 323 -9 l 1
 144 9 50 146 50 328 c 0xee80
 50 546 186 669 378 669 c 0
 483 669 520 633 545 633 c 0xf680
 561 633 567 649 579 669 c 1
 609 669 l 1
 609 440 l 1xee80
 575 440 l 1xef
 553 571 482 626 379 626 c 0
 235 626 154 516 154 338 c 0
 154 138 252 52 393 52 c 0
 485 52 552 88 608 149 c 1
 632 128 l 1
 578 47 495 -11 364 -11 c 0xee80
EndSplineSet
Substitution2: "'c2sc' Capitals to Small Capitals in Latin lookup 5 subtable" Ccedilla.c2sc
EndChar

StartChar: uni1E08
Encoding: 7688 7688 63
Width: 670
GlyphClass: 2
Flags: MW
HStem: -215 39<328.5 355 325.5 378> -90 35<361 366.5> -11 63<352 364 352 354> 613 20G<532.5 553> 626 43<307 430.5> 698 128<281 486 281 486> 805 21<386 486>
VStem: 50 104<238 427 238 437> 393 58<-148 -120.5> 575 34<440 669> 579 30<440 669>
AnchorPoint: "Anchor-5" 357 0 basechar 0
AnchorPoint: "Anchor-4" 356 0 basechar 0
AnchorPoint: "Anchor-3" 351 -237 basechar 0
AnchorPoint: "Anchor-1" 377 826 basechar 0
LayerCount: 2
Fore
SplineSet
364 -11 m 0xeba0
 360 -11 356 -11 352 -11 c 2
 341 -57 l 1
 341 -57 353 -55 369 -55 c 0
 420 -55 451 -81 451 -128 c 0
 451 -182 409 -215 347 -215 c 0
 310 -215 286 -197 264 -180 c 1
 274 -157 l 1
 292 -168 313 -176 338 -176 c 0
 372 -176 393 -164 393 -132 c 0
 393 -109 383 -90 350 -90 c 0
 334 -90 319 -93 319 -93 c 1
 305 -82 l 1
 323 -9 l 1
 144 9 50 146 50 328 c 0xeba0
 50 546 186 669 378 669 c 0
 483 669 520 633 545 633 c 0xf3a0
 561 633 567 649 579 669 c 1
 609 669 l 1
 609 440 l 1xeba0
 575 440 l 1xebc0
 553 571 482 626 379 626 c 0
 235 626 154 516 154 338 c 0
 154 138 252 52 393 52 c 0
 485 52 552 88 608 149 c 1
 632 128 l 1
 578 47 495 -11 364 -11 c 0xeba0
327 698 m 1xeda0
 281 698 l 1xeda0
 386 826 l 1
 486 826 l 1
 486 805 l 1xeba0
 327 698 l 1xeda0
EndSplineSet
Substitution2: "'c2sc' Capitals to Small Capitals in Latin lookup 5 subtable" uni1E08.c2sc
EndChar

StartChar: Dcaron
Encoding: 270 270 64
Width: 730
GlyphClass: 2
Flags: MW
HStem: 0 30<35 79 35 321 35 79> 0 38<274 321> 616 41<266 310 310 377.5> 627 30<35 72.5> 698 57<344 344 344 379 308 344> 698 138<196 379 196 308>
VStem: 133 92<124 543 543 579.5> 575 105<217 418>
AnchorPoint: "Anchor-5" 335 0 basechar 0
AnchorPoint: "Anchor-4" 321 0 basechar 0
AnchorPoint: "Anchor-2" 322 0 basechar 0
AnchorPoint: "Anchor-1" 343 836 basechar 0
LayerCount: 2
Fore
SplineSet
321 0 m 2x63
 35 0 l 1x67
 35 30 l 1
 123 30 133 43 133 124 c 2
 133 543 l 2
 133 616 110 627 35 627 c 1x93
 35 657 l 1
 310 657 l 2
 518 657 680 576 680 332 c 0
 680 102 537 0 321 0 c 2x63
284 38 m 0
 466 38 575 98 575 323 c 0
 575 513 481 616 274 616 c 0
 258 616 244 616 225 614 c 1
 225 41 l 1
 245 39 264 38 284 38 c 0
379 698 m 1
 308 698 l 1
 196 836 l 1
 238 836 l 1x67
 344 755 l 1x6b
 450 836 l 1
 490 836 l 1
 379 698 l 1
EndSplineSet
Substitution2: "'c2sc' Capitals to Small Capitals in Latin lookup 5 subtable" Dcaron.c2sc
EndChar

StartChar: uni1E0A
Encoding: 7690 7690 65
Width: 730
GlyphClass: 2
Flags: MW
HStem: 0 30<35 79 35 321 35 79> 0 38<274 321> 616 41<266 310 310 377.5> 627 30<35 72.5> 705 112<326.5 360.5>
VStem: 133 92<124 543 543 579.5> 287 113<746 776> 575 105<217 418>
AnchorPoint: "Anchor-5" 335 0 basechar 0
AnchorPoint: "Anchor-4" 321 0 basechar 0
AnchorPoint: "Anchor-2" 322 0 basechar 0
AnchorPoint: "Anchor-1" 343 817 basechar 0
LayerCount: 2
Fore
SplineSet
321 0 m 2x65
 35 0 l 1x6f
 35 30 l 1
 123 30 133 43 133 124 c 2
 133 543 l 2
 133 616 110 627 35 627 c 1x95
 35 657 l 1
 310 657 l 2
 518 657 680 576 680 332 c 0
 680 102 537 0 321 0 c 2x65
284 38 m 0
 466 38 575 98 575 323 c 0
 575 513 481 616 274 616 c 0
 258 616 244 616 225 614 c 1
 225 41 l 1
 245 39 264 38 284 38 c 0
343 705 m 0
 310 705 287 731 287 761 c 0
 287 791 309 817 343 817 c 0
 378 817 400 791 400 761 c 0
 400 731 378 705 343 705 c 0
EndSplineSet
Substitution2: "'c2sc' Capitals to Small Capitals in Latin lookup 5 subtable" uni1E0A.c2sc
EndChar

StartChar: uni1E12
Encoding: 7698 7698 66
Width: 730
GlyphClass: 2
Flags: MW
HStem: -203 153<181 355 181 355 289 425 289 463> -105 55<322 322> 0 30<35 79 35 321 35 79> 0 38<274 321> 616 41<266 310 310 377.5> 627 30<35 72.5>
VStem: 133 92<124 543 543 579.5> 575 105<217 418>
AnchorPoint: "Anchor-5" 335 0 basechar 0
AnchorPoint: "Anchor-4" 321 0 basechar 0
AnchorPoint: "Anchor-3" 322 -203 basechar 0
AnchorPoint: "Anchor-0" 343 657 basechar 0
LayerCount: 2
Fore
SplineSet
321 0 m 2x1b
 35 0 l 1x9b
 35 30 l 1
 123 30 133 43 133 124 c 2
 133 543 l 2
 133 616 110 627 35 627 c 1x27
 35 657 l 1
 310 657 l 2
 518 657 680 576 680 332 c 0
 680 102 537 0 321 0 c 2x1b
284 38 m 0
 466 38 575 98 575 323 c 0
 575 513 481 616 274 616 c 0
 258 616 244 616 225 614 c 1
 225 41 l 1
 245 39 264 38 284 38 c 0
220 -203 m 1
 181 -203 l 1
 289 -50 l 1
 355 -50 l 1
 463 -203 l 1
 425 -203 l 1x9b
 322 -105 l 1x5b
 220 -203 l 1
EndSplineSet
Substitution2: "'c2sc' Capitals to Small Capitals in Latin lookup 5 subtable" uni1E12.c2sc
EndChar

StartChar: uni1E0E
Encoding: 7694 7694 67
Width: 730
GlyphClass: 2
Flags: MW
HStem: -141 55<177 467 177 467> 0 30<35 79 35 321 35 79> 0 38<274 321> 616 41<266 310 310 377.5> 627 30<35 72.5>
VStem: 133 92<124 543 543 579.5> 177 48 575 105<217 418>
AnchorPoint: "Anchor-5" 335 0 basechar 0
AnchorPoint: "Anchor-4" 321 0 basechar 0
AnchorPoint: "Anchor-3" 322 -141 basechar 0
AnchorPoint: "Anchor-0" 343 657 basechar 0
LayerCount: 2
Fore
SplineSet
321 0 m 2xb5
 35 0 l 1xb5
 35 30 l 1
 123 30 133 43 133 124 c 2
 133 543 l 2
 133 616 110 627 35 627 c 1xcd
 35 657 l 1
 310 657 l 2
 518 657 680 576 680 332 c 0
 680 102 537 0 321 0 c 2xb5
284 38 m 0
 466 38 575 98 575 323 c 0
 575 513 481 616 274 616 c 0
 258 616 244 616 225 614 c 1
 225 41 l 1
 245 39 264 38 284 38 c 0
467 -141 m 1
 177 -141 l 1
 177 -86 l 1xb3
 467 -86 l 1
 467 -141 l 1
EndSplineSet
Substitution2: "'c2sc' Capitals to Small Capitals in Latin lookup 5 subtable" uni1E0E.c2sc
EndChar

StartChar: uni1E0C
Encoding: 7692 7692 68
Width: 730
GlyphClass: 2
Flags: MW
HStem: -181 113<305 339.5> 0 30<35 79 35 321 35 79> 0 38<274 321> 616 41<266 310 310 377.5> 627 30<35 72.5>
VStem: 133 92<124 543 543 579.5> 265 114<-139.5 -109> 575 105<217 418>
AnchorPoint: "Anchor-5" 335 0 basechar 0
AnchorPoint: "Anchor-4" 321 0 basechar 0
AnchorPoint: "Anchor-3" 322 -181 basechar 0
AnchorPoint: "Anchor-0" 343 657 basechar 0
LayerCount: 2
Fore
SplineSet
321 0 m 2x35
 35 0 l 1xb7
 35 30 l 1
 123 30 133 43 133 124 c 2
 133 543 l 2
 133 616 110 627 35 627 c 1x4d
 35 657 l 1
 310 657 l 2
 518 657 680 576 680 332 c 0
 680 102 537 0 321 0 c 2x35
284 38 m 0
 466 38 575 98 575 323 c 0
 575 513 481 616 274 616 c 0
 258 616 244 616 225 614 c 1
 225 41 l 1
 245 39 264 38 284 38 c 0
322 -181 m 0
 288 -181 265 -155 265 -124 c 0
 265 -94 287 -68 322 -68 c 0
 357 -68 379 -94 379 -124 c 0
 379 -155 357 -181 322 -181 c 0
EndSplineSet
Substitution2: "'c2sc' Capitals to Small Capitals in Latin lookup 5 subtable" uni1E0C.c2sc
EndChar

StartChar: uni1E10
Encoding: 7696 7696 69
Width: 730
GlyphClass: 2
Flags: MW
HStem: -162 109<299 314> 0 30<35 79 35 321 35 79> 0 38<274 321> 616 41<266 310 310 377.5> 627 30<35 72.5>
VStem: 133 92<124 543 543 579.5> 340 50<-185 -156> 575 105<217 418>
AnchorPoint: "Anchor-5" 335 0 basechar 0
AnchorPoint: "Anchor-4" 321 0 basechar 0
AnchorPoint: "Anchor-3" 322 -277 basechar 0
AnchorPoint: "Anchor-0" 343 657 basechar 0
LayerCount: 2
Fore
SplineSet
321 0 m 2x37
 35 0 l 1xb7
 35 30 l 1
 123 30 133 43 133 124 c 2
 133 543 l 2
 133 616 110 627 35 627 c 1x4f
 35 657 l 1
 310 657 l 2
 518 657 680 576 680 332 c 0
 680 102 537 0 321 0 c 2x37
284 38 m 0
 466 38 575 98 575 323 c 0
 575 513 481 616 274 616 c 0
 258 616 244 616 225 614 c 1
 225 41 l 1
 245 39 264 38 284 38 c 0
272 -277 m 1
 262 -252 l 1
 298 -239 340 -214 340 -156 c 1
 329 -160 319 -162 309 -162 c 0
 280 -162 259 -143 259 -110 c 0
 259 -78 278 -53 320 -53 c 0
 368 -53 390 -86 390 -138 c 0
 390 -235 313 -263 272 -277 c 1
EndSplineSet
Substitution2: "'c2sc' Capitals to Small Capitals in Latin lookup 5 subtable" uni1E10.c2sc
EndChar

StartChar: Dcroat
Encoding: 272 272 70
Width: 733
GlyphClass: 2
Flags: MW
HStem: 0 30<35 78.5 35 321 35 78.5> 0 38<274 321> 309 48<35 133 35 133 225 396> 616 41<265.5 310 310 377.5> 627 30<35 72>
VStem: 133 92<124 309 41 309 357 543 543 579.5> 571 110<214 417>
AnchorPoint: "Anchor-5" 336 0 basechar 0
AnchorPoint: "Anchor-4" 330 0 basechar 0
AnchorPoint: "Anchor-2" 324 0 basechar 0
AnchorPoint: "Anchor-0" 345 657 basechar 0
LayerCount: 2
Fore
SplineSet
321 0 m 2x76
 35 0 l 1x76
 35 30 l 1
 122 30 133 43 133 124 c 2
 133 309 l 1
 35 309 l 1
 35 357 l 1
 133 357 l 1
 133 543 l 2
 133 616 109 627 35 627 c 1xae
 35 657 l 1
 310 657 l 2
 518 657 681 573 681 329 c 0
 681 99 537 0 321 0 c 2x76
396 309 m 1
 225 309 l 1
 225 41 l 1
 245 39 264 38 284 38 c 0
 466 38 571 100 571 320 c 0
 571 514 481 616 274 616 c 0
 257 616 245 616 225 614 c 1
 225 357 l 1
 396 357 l 1
 396 309 l 1
EndSplineSet
Substitution2: "'c2sc' Capitals to Small Capitals in Latin lookup 5 subtable" Dcroat.c2sc
EndChar

StartChar: Egrave
Encoding: 200 200 71
Width: 626
GlyphClass: 2
Flags: MW
HStem: 0 30<36 76.5 36 570 36 76.5> 0 44<225 354 225 570> 319 39<225 342 225 342> 493 164<535 561 36 567 535 535> 612 45<225 372 225 225> 627 30<36 76.5> 698 128<212 417 212 370> 805 21<212 312>
VStem: 133 92<118 319 358 535 535 573> 454 32<226 267 417.5 458> 535 29
AnchorPoint: "Anchor-5" 464 0 basechar 0
AnchorPoint: "Anchor-4" 325 0 basechar 0
AnchorPoint: "Anchor-2" 320 0 basechar 0
AnchorPoint: "Anchor-1" 320 826 basechar 0
LayerCount: 2
Fore
SplineSet
570 0 m 1x69c0
 36 0 l 1x6ac0
 36 30 l 1
 117 30 133 40 133 118 c 2
 133 535 l 2
 133 611 117 627 36 627 c 1xa5c0
 36 657 l 1
 561 657 l 1x69e0
 567 493 l 1
 535 493 l 1x71e0
 520 593 495 612 372 612 c 2
 225 612 l 1
 225 358 l 1
 342 358 l 2
 434 358 454 377 454 458 c 1
 486 458 l 1
 486 226 l 1
 454 226 l 1
 454 308 434 319 342 319 c 2
 225 319 l 1
 225 44 l 1
 354 44 l 2
 509 43 527 67 566 186 c 1
 598 186 l 1
 570 0 l 1x69c0
417 698 m 1
 370 698 l 1x6ac0
 212 805 l 1
 212 826 l 1
 312 826 l 1x69c0
 417 698 l 1
EndSplineSet
Substitution2: "'c2sc' Capitals to Small Capitals in Latin lookup 5 subtable" Egrave.c2sc
EndChar

StartChar: Eacute
Encoding: 201 201 72
Width: 626
GlyphClass: 2
Flags: MW
HStem: 0 30<36 76.5 36 570 36 76.5> 0 44<225 354 225 570> 319 39<225 342 225 342> 493 164<535 561 36 567 535 535> 612 45<225 372 225 225> 627 30<36 76.5> 698 128<224 429 224 429> 805 21<329 429>
VStem: 133 92<118 319 358 535 535 573> 454 32<226 267 417.5 458> 535 29
AnchorPoint: "Anchor-5" 464 0 basechar 0
AnchorPoint: "Anchor-4" 325 0 basechar 0
AnchorPoint: "Anchor-2" 320 0 basechar 0
AnchorPoint: "Anchor-1" 320 826 basechar 0
LayerCount: 2
Fore
SplineSet
570 0 m 1x69c0
 36 0 l 1x6ac0
 36 30 l 1
 117 30 133 40 133 118 c 2
 133 535 l 2
 133 611 117 627 36 627 c 1xa5c0
 36 657 l 1
 561 657 l 1x69e0
 567 493 l 1
 535 493 l 1x71e0
 520 593 495 612 372 612 c 2
 225 612 l 1
 225 358 l 1
 342 358 l 2
 434 358 454 377 454 458 c 1
 486 458 l 1
 486 226 l 1
 454 226 l 1
 454 308 434 319 342 319 c 2
 225 319 l 1
 225 44 l 1
 354 44 l 2
 509 43 527 67 566 186 c 1
 598 186 l 1
 570 0 l 1x69c0
270 698 m 1
 224 698 l 1x6ac0
 329 826 l 1
 429 826 l 1
 429 805 l 1x69c0
 270 698 l 1
EndSplineSet
Substitution2: "'c2sc' Capitals to Small Capitals in Latin lookup 5 subtable" Eacute.c2sc
EndChar

StartChar: Ecircumflex
Encoding: 202 202 73
Width: 626
GlyphClass: 2
Flags: MW
HStem: 0 30<36 76.5 36 570 36 76.5> 0 44<225 354 225 570> 319 39<225 342 225 342> 493 164<535 561 36 567 535 535> 612 45<225 372 225 225> 627 30<36 76.5> 698 138<173 357 173 357 285 427 285 467> 779 57<320 320>
VStem: 133 92<118 319 358 535 535 573> 454 32<226 267 417.5 458> 535 29
AnchorPoint: "Anchor-5" 464 0 basechar 0
AnchorPoint: "Anchor-4" 325 0 basechar 0
AnchorPoint: "Anchor-2" 320 0 basechar 0
AnchorPoint: "Anchor-1" 320 836 basechar 0
LayerCount: 2
Fore
SplineSet
570 0 m 1x68c0
 36 0 l 1x6ac0
 36 30 l 1
 117 30 133 40 133 118 c 2
 133 535 l 2
 133 611 117 627 36 627 c 1xa4c0
 36 657 l 1
 561 657 l 1x68e0
 567 493 l 1
 535 493 l 1x70e0
 520 593 495 612 372 612 c 2
 225 612 l 1
 225 358 l 1
 342 358 l 2
 434 358 454 377 454 458 c 1
 486 458 l 1
 486 226 l 1
 454 226 l 1
 454 308 434 319 342 319 c 2
 225 319 l 1
 225 44 l 1
 354 44 l 2
 509 43 527 67 566 186 c 1
 598 186 l 1
 570 0 l 1x68c0
215 698 m 1
 173 698 l 1
 285 836 l 1
 357 836 l 1
 467 698 l 1
 427 698 l 1x6ac0
 320 779 l 1x69c0
 215 698 l 1
EndSplineSet
Substitution2: "'c2sc' Capitals to Small Capitals in Latin lookup 5 subtable" Ecircumflex.c2sc
EndChar

StartChar: uni1EC0
Encoding: 7872 7872 74
Width: 626
GlyphClass: 2
Flags: MW
HStem: 0 30<36 76.5 36 570 36 76.5> 0 44<225 354 225 570> 319 39<225 342 225 342> 493 164<535 561 36 567 535 535> 612 45<225 372 225 225> 627 30<36 76.5> 693 133<173 357 173 357 285 427 285 467> 774 52<320 320> 860 21<367 455>
VStem: 133 92<118 319 358 535 535 573> 454 32<226 267 417.5 458> 535 29
AnchorPoint: "Anchor-5" 464 0 basechar 0
AnchorPoint: "Anchor-4" 325 0 basechar 0
AnchorPoint: "Anchor-2" 320 0 basechar 0
AnchorPoint: "Anchor-0" 320 657 basechar 0
LayerCount: 2
Fore
SplineSet
570 0 m 1x6ae0
 36 0 l 1x6ae0
 36 30 l 1
 117 30 133 40 133 118 c 2
 133 535 l 2
 133 611 117 627 36 627 c 1xa6e0
 36 657 l 1
 561 657 l 1x6af0
 567 493 l 1
 535 493 l 1x72f0
 520 593 495 612 372 612 c 2
 225 612 l 1
 225 358 l 1
 342 358 l 2
 434 358 454 377 454 458 c 1
 486 458 l 1
 486 226 l 1
 454 226 l 1
 454 308 434 319 342 319 c 2
 225 319 l 1
 225 44 l 1
 354 44 l 2
 509 43 527 67 566 186 c 1
 598 186 l 1
 570 0 l 1x6ae0
215 693 m 1
 173 693 l 1
 285 826 l 1
 357 826 l 1
 467 693 l 1
 427 693 l 1x6ae0
 320 774 l 1x69e0
 215 693 l 1
552 763 m 1
 511 763 l 1
 367 860 l 1
 367 881 l 1
 455 881 l 1
 552 763 l 1
EndSplineSet
Substitution2: "'c2sc' Capitals to Small Capitals in Latin lookup 5 subtable" uni1EC0.c2sc
EndChar

StartChar: uni1EBE
Encoding: 7870 7870 75
Width: 626
GlyphClass: 2
Flags: MW
HStem: 0 30<36 76.5 36 570 36 76.5> 0 44<225 354 225 570> 319 39<225 342 225 342> 493 164<535 561 36 567 535 535> 612 45<225 372 225 225> 627 30<36 76.5> 693 133<173 357 173 357 285 427 285 467> 763 63<285 460 285 419> 774 52<320 320> 860 21<516 604>
VStem: 133 92<118 319 358 535 535 573> 454 32<226 267 417.5 458> 535 29
AnchorPoint: "Anchor-5" 464 0 basechar 0
AnchorPoint: "Anchor-4" 325 0 basechar 0
AnchorPoint: "Anchor-2" 320 0 basechar 0
AnchorPoint: "Anchor-0" 320 657 basechar 0
LayerCount: 2
Fore
SplineSet
570 0 m 1x6970
 36 0 l 1x6a70
 36 30 l 1
 117 30 133 40 133 118 c 2
 133 535 l 2
 133 611 117 627 36 627 c 1xa570
 36 657 l 1
 561 657 l 1x6978
 567 493 l 1
 535 493 l 1x7178
 520 593 495 612 372 612 c 2
 225 612 l 1
 225 358 l 1
 342 358 l 2
 434 358 454 377 454 458 c 1
 486 458 l 1
 486 226 l 1
 454 226 l 1
 454 308 434 319 342 319 c 2
 225 319 l 1
 225 44 l 1
 354 44 l 2
 509 43 527 67 566 186 c 1
 598 186 l 1
 570 0 l 1x6970
215 693 m 1
 173 693 l 1x6a70
 285 826 l 1
 357 826 l 1x6970
 467 693 l 1
 427 693 l 1x6a70
 320 774 l 1x68f0
 215 693 l 1
460 763 m 1x6970
 419 763 l 1
 516 881 l 1
 604 881 l 1
 604 860 l 1
 460 763 l 1x6970
EndSplineSet
Substitution2: "'c2sc' Capitals to Small Capitals in Latin lookup 5 subtable" uni1EBE.c2sc
EndChar

StartChar: uni1EC4
Encoding: 7876 7876 76
Width: 626
GlyphClass: 2
Flags: MW
HStem: 0 30<36 76.5 36 570 36 76.5> 0 44<225 354 225 570> 319 39<225 342 225 342> 493 164<535 561 36 567 535 535> 612 45<225 372 225 225> 627 30<36 76.5> 693 123<173 357 173 357 285 427 285 467> 764 52<320 320> 840 59<377.5 406.5> 876 58<241 270.5>
VStem: 133 92<118 319 358 535 535 573> 454 32<226 267 417.5 458> 535 29
AnchorPoint: "Anchor-5" 464 0 basechar 0
AnchorPoint: "Anchor-4" 325 0 basechar 0
AnchorPoint: "Anchor-2" 320 0 basechar 0
AnchorPoint: "Anchor-0" 320 657 basechar 0
LayerCount: 2
Fore
SplineSet
570 0 m 1x6a70
 36 0 l 1x6a70
 36 30 l 1
 117 30 133 40 133 118 c 2
 133 535 l 2
 133 611 117 627 36 627 c 1xa670
 36 657 l 1
 561 657 l 1x6a78
 567 493 l 1
 535 493 l 1x7278
 520 593 495 612 372 612 c 2
 225 612 l 1
 225 358 l 1
 342 358 l 2
 434 358 454 377 454 458 c 1
 486 458 l 1
 486 226 l 1
 454 226 l 1
 454 308 434 319 342 319 c 2
 225 319 l 1
 225 44 l 1
 354 44 l 2
 509 43 527 67 566 186 c 1
 598 186 l 1
 570 0 l 1x6a70
191 838 m 1
 166 838 l 1
 178 900 217 934 265 934 c 0x6a70
 324 934 355 899 400 899 c 0
 427 899 446 906 458 939 c 1
 483 939 l 1
 467 867 433 840 380 840 c 0x6ab0
 324 840 294 876 247 876 c 0
 222 876 201 868 191 838 c 1
215 693 m 1
 173 693 l 1
 285 816 l 1
 357 816 l 1
 467 693 l 1
 427 693 l 1x6a70
 320 764 l 1x6970
 215 693 l 1
EndSplineSet
Substitution2: "'c2sc' Capitals to Small Capitals in Latin lookup 5 subtable" uni1EC4.c2sc
EndChar

StartChar: uni1EC2
Encoding: 7874 7874 77
Width: 626
GlyphClass: 2
Flags: MW
HStem: 0 30<36 76.5 36 570 36 76.5> 0 44<225 354 225 570> 319 39<225 342 225 342> 493 164<535 561 36 567 535 535> 612 45<225 372 225 225> 627 30<36 76.5> 693 133<173 357 173 357 285 427 285 467> 763 63 774 52<320 320> 928 29<436 466.5>
VStem: 133 92<118 319 358 535 535 573> 424 41<763 800 763 817> 454 32<226 267 417.5 458> 489 60<862.5 901.5 851.5 903> 535 29
AnchorPoint: "Anchor-5" 464 0 basechar 0
AnchorPoint: "Anchor-4" 325 0 basechar 0
AnchorPoint: "Anchor-2" 320 0 basechar 0
AnchorPoint: "Anchor-0" 320 657 basechar 0
LayerCount: 2
Fore
SplineSet
570 0 m 1x6868
 36 0 l 1x6a68
 36 30 l 1
 117 30 133 40 133 118 c 2
 133 535 l 2
 133 611 117 627 36 627 c 1xa468
 36 657 l 1
 561 657 l 1x686a
 567 493 l 1
 535 493 l 1x706a
 520 593 495 612 372 612 c 2
 225 612 l 1
 225 358 l 1
 342 358 l 2
 434 358 454 377 454 458 c 1
 486 458 l 1
 486 226 l 1
 454 226 l 1
 454 308 434 319 342 319 c 2
 225 319 l 1
 225 44 l 1
 354 44 l 2
 509 43 527 67 566 186 c 1
 598 186 l 1
 570 0 l 1x6868
215 693 m 1
 173 693 l 1x6a68
 285 826 l 1
 357 826 l 1x6968
 467 693 l 1
 427 693 l 1x6a68
 320 774 l 1x68e8
 215 693 l 1
465 763 m 1x6970
 424 763 l 1
 424 817 l 1x6970
 475 818 489 842 489 883 c 0
 489 923 474 928 459 928 c 0
 413 928 429 881 396 881 c 0
 379 881 369 893 369 909 c 0
 369 941 414 957 458 957 c 0
 522 957 549 922 549 881 c 0x6964
 549 822 496 805 465 800 c 1
 465 763 l 1x6970
EndSplineSet
Substitution2: "'c2sc' Capitals to Small Capitals in Latin lookup 5 subtable" uni1EC2.c2sc
EndChar

StartChar: uni1EC6
Encoding: 7878 7878 78
Width: 626
GlyphClass: 2
Flags: MW
HStem: -181 113<303 337.5> 0 30<36 76.5 36 570 36 76.5> 0 44<225 354 225 570> 319 39<225 342 225 342> 493 164<535 561 36 567 535 535> 612 45<225 372 225 225> 627 30<36 76.5> 698 138<173 357 173 357 285 427 285 467> 779 57<320 320>
VStem: 133 92<118 319 358 535 535 573> 263 114<-139.5 -109> 454 32<226 267 417.5 458> 535 29
AnchorPoint: "Anchor-5" 464 0 basechar 0
AnchorPoint: "Anchor-4" 325 0 basechar 0
AnchorPoint: "Anchor-3" 320 -181 basechar 0
AnchorPoint: "Anchor-1" 320 836 basechar 0
LayerCount: 2
Fore
SplineSet
570 0 m 1x3450
 36 0 l 1x3550
 36 30 l 1
 117 30 133 40 133 118 c 2
 133 535 l 2
 133 611 117 627 36 627 c 1x5250
 36 657 l 1
 561 657 l 1x3458
 567 493 l 1
 535 493 l 1x3858
 520 593 495 612 372 612 c 2
 225 612 l 1
 225 358 l 1
 342 358 l 2
 434 358 454 377 454 458 c 1
 486 458 l 1
 486 226 l 1
 454 226 l 1
 454 308 434 319 342 319 c 2
 225 319 l 1
 225 44 l 1
 354 44 l 2
 509 43 527 67 566 186 c 1
 598 186 l 1
 570 0 l 1x3450
215 698 m 1
 173 698 l 1
 285 836 l 1
 357 836 l 1
 467 698 l 1
 427 698 l 1xb570
 320 779 l 1x34d0
 215 698 l 1
320 -181 m 0
 286 -181 263 -155 263 -124 c 0
 263 -94 285 -68 320 -68 c 0
 355 -68 377 -94 377 -124 c 0
 377 -155 355 -181 320 -181 c 0
EndSplineSet
Substitution2: "'c2sc' Capitals to Small Capitals in Latin lookup 5 subtable" uni1EC6.c2sc
EndChar

StartChar: Ecaron
Encoding: 282 282 79
Width: 626
GlyphClass: 2
Flags: MW
HStem: 0 30<36 76.5 36 570 36 76.5> 0 44<225 354 225 570> 319 39<225 342 225 342> 493 164<535 561 36 567 535 535> 612 45<225 372 225 225> 627 30<36 76.5> 698 57<321 321 321 356 285 321> 698 138<173 356 173 285>
VStem: 133 92<118 319 358 535 535 573> 454 32<226 267 417.5 458> 535 29
AnchorPoint: "Anchor-5" 464 0 basechar 0
AnchorPoint: "Anchor-4" 325 0 basechar 0
AnchorPoint: "Anchor-2" 320 0 basechar 0
AnchorPoint: "Anchor-1" 320 836 basechar 0
LayerCount: 2
Fore
SplineSet
570 0 m 1x68c0
 36 0 l 1x69c0
 36 30 l 1
 117 30 133 40 133 118 c 2
 133 535 l 2
 133 611 117 627 36 627 c 1xa4c0
 36 657 l 1
 561 657 l 1x68e0
 567 493 l 1
 535 493 l 1x70e0
 520 593 495 612 372 612 c 2
 225 612 l 1
 225 358 l 1
 342 358 l 2
 434 358 454 377 454 458 c 1
 486 458 l 1
 486 226 l 1
 454 226 l 1
 454 308 434 319 342 319 c 2
 225 319 l 1
 225 44 l 1
 354 44 l 2
 509 43 527 67 566 186 c 1
 598 186 l 1
 570 0 l 1x68c0
356 698 m 1
 285 698 l 1
 173 836 l 1
 215 836 l 1x69c0
 321 755 l 1x6ac0
 427 836 l 1
 467 836 l 1
 356 698 l 1
EndSplineSet
Substitution2: "'c2sc' Capitals to Small Capitals in Latin lookup 5 subtable" Ecaron.c2sc
EndChar

StartChar: uni1EBC
Encoding: 7868 7868 80
Width: 626
GlyphClass: 2
Flags: MW
HStem: 0 30<36 76.5 36 570 36 76.5> 0 44<225 354 225 570> 319 39<225 342 225 342> 493 164<535 561 36 567 535 535> 612 45<225 372 225 225> 627 30<36 76.5> 714 61<379.5 409.5> 751 60<239 269.5>
VStem: 133 92<118 319 358 535 535 573> 454 32<226 267 417.5 458> 535 29
AnchorPoint: "Anchor-5" 464 0 basechar 0
AnchorPoint: "Anchor-4" 325 0 basechar 0
AnchorPoint: "Anchor-2" 320 0 basechar 0
AnchorPoint: "Anchor-1" 320 811 basechar 0
LayerCount: 2
Fore
SplineSet
570 0 m 1x69c0
 36 0 l 1x69c0
 36 30 l 1
 117 30 133 40 133 118 c 2
 133 535 l 2
 133 611 117 627 36 627 c 1xa5c0
 36 657 l 1
 561 657 l 1x69e0
 567 493 l 1
 535 493 l 1x71e0
 520 593 495 612 372 612 c 2
 225 612 l 1
 225 358 l 1
 342 358 l 2
 434 358 454 377 454 458 c 1
 486 458 l 1
 486 226 l 1
 454 226 l 1
 454 308 434 319 342 319 c 2
 225 319 l 1
 225 44 l 1
 354 44 l 2
 509 43 527 67 566 186 c 1
 598 186 l 1
 570 0 l 1x69c0
188 712 m 1
 162 712 l 1
 174 776 214 811 264 811 c 0x69c0
 324 811 356 775 403 775 c 0
 430 775 450 782 462 816 c 1
 488 816 l 1x6ac0
 472 742 437 714 382 714 c 0
 324 714 294 751 245 751 c 0
 220 751 198 743 188 712 c 1
EndSplineSet
Substitution2: "'c2sc' Capitals to Small Capitals in Latin lookup 5 subtable" uni1EBC.c2sc
EndChar

StartChar: Edieresis
Encoding: 203 203 81
Width: 626
GlyphClass: 2
Flags: MW
HStem: 0 30<36 76.5 36 570 36 76.5> 0 44<225 354 225 570> 319 39<225 342 225 342> 493 164<535 561 36 567 535 535> 612 45<225 372 225 225> 627 30<36 76.5> 706 110<192.5 226.5 413.5 447.5>
VStem: 133 92<118 319 358 535 535 573> 153 113<746.5 775.5> 374 113<746.5 775.5> 454 32<226 267 417.5 458> 535 29
AnchorPoint: "Anchor-5" 464 0 basechar 0
AnchorPoint: "Anchor-4" 325 0 basechar 0
AnchorPoint: "Anchor-2" 320 0 basechar 0
AnchorPoint: "Anchor-1" 320 816 basechar 0
LayerCount: 2
Fore
SplineSet
570 0 m 1x6920
 36 0 l 1x6ac0
 36 30 l 1
 117 30 133 40 133 118 c 2
 133 535 l 2
 133 611 117 627 36 627 c 1xa520
 36 657 l 1
 561 657 l 1x6930
 567 493 l 1
 535 493 l 1x7130
 520 593 495 612 372 612 c 2
 225 612 l 1
 225 358 l 1
 342 358 l 2
 434 358 454 377 454 458 c 1
 486 458 l 1
 486 226 l 1
 454 226 l 1
 454 308 434 319 342 319 c 2
 225 319 l 1
 225 44 l 1
 354 44 l 2
 509 43 527 67 566 186 c 1
 598 186 l 1
 570 0 l 1x6920
209 706 m 0
 176 706 153 732 153 761 c 0
 153 790 175 816 209 816 c 0
 244 816 266 790 266 761 c 0
 266 732 244 706 209 706 c 0
430 706 m 0
 397 706 374 732 374 761 c 0
 374 790 396 816 430 816 c 0
 465 816 487 790 487 761 c 0
 487 732 465 706 430 706 c 0
EndSplineSet
Substitution2: "'c2sc' Capitals to Small Capitals in Latin lookup 5 subtable" Edieresis.c2sc
EndChar

StartChar: Emacron
Encoding: 274 274 82
Width: 626
GlyphClass: 2
Flags: MW
HStem: 0 30<36 76.5 36 570 36 76.5> 0 44<225 354 225 570> 319 39<225 342 225 342> 493 164<535 561 36 567 535 535> 612 45<225 372 225 225> 627 30<36 76.5> 726 53<173 467 173 467>
VStem: 133 92<118 319 358 535 535 573> 454 32<226 267 417.5 458> 535 29
AnchorPoint: "Anchor-5" 464 0 basechar 0
AnchorPoint: "Anchor-4" 325 0 basechar 0
AnchorPoint: "Anchor-2" 320 0 basechar 0
AnchorPoint: "Anchor-1" 320 779 basechar 0
LayerCount: 2
Fore
SplineSet
570 0 m 1x6b80
 36 0 l 1x6b80
 36 30 l 1
 117 30 133 40 133 118 c 2
 133 535 l 2
 133 611 117 627 36 627 c 1xa780
 36 657 l 1
 561 657 l 1x6bc0
 567 493 l 1
 535 493 l 1x73c0
 520 593 495 612 372 612 c 2
 225 612 l 1
 225 358 l 1
 342 358 l 2
 434 358 454 377 454 458 c 1
 486 458 l 1
 486 226 l 1
 454 226 l 1
 454 308 434 319 342 319 c 2
 225 319 l 1
 225 44 l 1
 354 44 l 2
 509 43 527 67 566 186 c 1
 598 186 l 1
 570 0 l 1x6b80
467 726 m 1
 173 726 l 1
 173 779 l 1
 467 779 l 1
 467 726 l 1
EndSplineSet
Substitution2: "'c2sc' Capitals to Small Capitals in Latin lookup 5 subtable" Emacron.c2sc
EndChar

StartChar: uni1E14
Encoding: 7700 7700 83
Width: 626
GlyphClass: 2
Flags: MW
HStem: 0 30<36 76.5 36 570 36 76.5> 0 44<225 354 225 570> 319 39<225 342 225 342> 493 164<535 561 36 567 535 535> 612 45<225 372 225 225> 627 30<36 76.5> 716 53<173 467 173 467> 808 128<212 417 212 370> 915 21<212 312>
VStem: 133 92<118 319 358 535 535 573> 173 52 454 32<226 267 417.5 458> 535 29
AnchorPoint: "Anchor-5" 464 0 basechar 0
AnchorPoint: "Anchor-4" 325 0 basechar 0
AnchorPoint: "Anchor-2" 320 0 basechar 0
AnchorPoint: "Anchor-1" 320 936 basechar 0
LayerCount: 2
Fore
SplineSet
570 0 m 1x6ad0
 36 0 l 1x6b30
 36 30 l 1
 117 30 133 40 133 118 c 2
 133 535 l 2
 133 611 117 627 36 627 c 1xa6d0
 36 657 l 1
 561 657 l 1x6ad8
 567 493 l 1
 535 493 l 1x72d8
 520 593 495 612 372 612 c 2
 225 612 l 1
 225 358 l 1
 342 358 l 2
 434 358 454 377 454 458 c 1
 486 458 l 1
 486 226 l 1
 454 226 l 1
 454 308 434 319 342 319 c 2
 225 319 l 1
 225 44 l 1
 354 44 l 2
 509 43 527 67 566 186 c 1
 598 186 l 1
 570 0 l 1x6ad0
467 716 m 1
 173 716 l 1
 173 769 l 1
 467 769 l 1
 467 716 l 1
417 808 m 1
 370 808 l 1x6b50
 212 915 l 1
 212 936 l 1
 312 936 l 1x6ad0
 417 808 l 1
EndSplineSet
Substitution2: "'c2sc' Capitals to Small Capitals in Latin lookup 5 subtable" uni1E14.c2sc
EndChar

StartChar: uni1E16
Encoding: 7702 7702 84
Width: 626
GlyphClass: 2
Flags: MW
HStem: 0 30<36 76.5 36 570 36 76.5> 0 44<225 354 225 570> 319 39<225 342 225 342> 493 164<535 561 36 567 535 535> 612 45<225 372 225 225> 627 30<36 76.5> 716 53<173 467 173 467> 808 128<224 429 224 429> 915 21<329 429>
VStem: 133 92<118 319 358 535 535 573> 173 52 454 32<226 267 417.5 458> 535 29
AnchorPoint: "Anchor-5" 464 0 basechar 0
AnchorPoint: "Anchor-4" 325 0 basechar 0
AnchorPoint: "Anchor-2" 320 0 basechar 0
AnchorPoint: "Anchor-1" 320 936 basechar 0
LayerCount: 2
Fore
SplineSet
570 0 m 1x6ad0
 36 0 l 1x6b30
 36 30 l 1
 117 30 133 40 133 118 c 2
 133 535 l 2
 133 611 117 627 36 627 c 1xa6d0
 36 657 l 1
 561 657 l 1x6ad8
 567 493 l 1
 535 493 l 1x72d8
 520 593 495 612 372 612 c 2
 225 612 l 1
 225 358 l 1
 342 358 l 2
 434 358 454 377 454 458 c 1
 486 458 l 1
 486 226 l 1
 454 226 l 1
 454 308 434 319 342 319 c 2
 225 319 l 1
 225 44 l 1
 354 44 l 2
 509 43 527 67 566 186 c 1
 598 186 l 1
 570 0 l 1x6ad0
467 716 m 1
 173 716 l 1
 173 769 l 1
 467 769 l 1
 467 716 l 1
270 808 m 1
 224 808 l 1x6b50
 329 936 l 1
 429 936 l 1
 429 915 l 1x6ad0
 270 808 l 1
EndSplineSet
Substitution2: "'c2sc' Capitals to Small Capitals in Latin lookup 5 subtable" uni1E16.c2sc
EndChar

StartChar: Ebreve
Encoding: 276 276 85
Width: 626
GlyphClass: 2
Flags: MW
HStem: 0 30<36 76.5 36 570 36 76.5> 0 44<225 354 225 570> 319 39<225 342 225 342> 493 164<535 561 36 567 535 535> 612 45<225 372 225 225> 627 30<36 76.5> 712 64<287 353.5 287 366.5>
VStem: 133 92<118 319 358 535 535 573> 172 30<865 865> 454 32<226 267 417.5 458> 535 29
AnchorPoint: "Anchor-5" 464 0 basechar 0
AnchorPoint: "Anchor-4" 325 0 basechar 0
AnchorPoint: "Anchor-2" 320 0 basechar 0
AnchorPoint: "Anchor-1" 320 865 basechar 0
LayerCount: 2
Fore
SplineSet
570 0 m 1x6b40
 36 0 l 1x6ac0
 36 30 l 1
 117 30 133 40 133 118 c 2
 133 535 l 2
 133 611 117 627 36 627 c 1xa740
 36 657 l 1
 561 657 l 1x6b60
 567 493 l 1
 535 493 l 1x7360
 520 593 495 612 372 612 c 2
 225 612 l 1
 225 358 l 1
 342 358 l 2
 434 358 454 377 454 458 c 1
 486 458 l 1
 486 226 l 1
 454 226 l 1
 454 308 434 319 342 319 c 2
 225 319 l 1
 225 44 l 1
 354 44 l 2
 509 43 527 67 566 186 c 1
 598 186 l 1
 570 0 l 1x6b40
320 712 m 0
 228 712 176 761 172 865 c 1
 202 865 l 1
 221 793 254 776 320 776 c 0
 387 776 414 793 439 865 c 1
 468 865 l 1
 457 761 413 712 320 712 c 0
EndSplineSet
Substitution2: "'c2sc' Capitals to Small Capitals in Latin lookup 5 subtable" Ebreve.c2sc
EndChar

StartChar: Edotaccent
Encoding: 278 278 86
Width: 626
GlyphClass: 2
Flags: MW
HStem: 0 30<36 76.5 36 570 36 76.5> 0 44<225 354 225 570> 319 39<225 342 225 342> 493 164<535 561 36 567 535 535> 612 45<225 372 225 225> 627 30<36 76.5> 705 112<303.5 337.5>
VStem: 133 92<118 319 358 535 535 573> 264 113<746 776> 454 32<226 267 417.5 458> 535 29
AnchorPoint: "Anchor-5" 464 0 basechar 0
AnchorPoint: "Anchor-4" 325 0 basechar 0
AnchorPoint: "Anchor-2" 320 0 basechar 0
AnchorPoint: "Anchor-1" 320 817 basechar 0
LayerCount: 2
Fore
SplineSet
570 0 m 1x6940
 36 0 l 1x6bc0
 36 30 l 1
 117 30 133 40 133 118 c 2
 133 535 l 2
 133 611 117 627 36 627 c 1xa540
 36 657 l 1
 561 657 l 1x6960
 567 493 l 1
 535 493 l 1x7160
 520 593 495 612 372 612 c 2
 225 612 l 1
 225 358 l 1
 342 358 l 2
 434 358 454 377 454 458 c 1
 486 458 l 1
 486 226 l 1
 454 226 l 1
 454 308 434 319 342 319 c 2
 225 319 l 1
 225 44 l 1
 354 44 l 2
 509 43 527 67 566 186 c 1
 598 186 l 1
 570 0 l 1x6940
320 705 m 0
 287 705 264 731 264 761 c 0
 264 791 286 817 320 817 c 0
 355 817 377 791 377 761 c 0
 377 731 355 705 320 705 c 0
EndSplineSet
Substitution2: "'c2sc' Capitals to Small Capitals in Latin lookup 5 subtable" Edotaccent.c2sc
EndChar

StartChar: uni1EBA
Encoding: 7866 7866 87
Width: 626
GlyphClass: 2
Flags: MW
HStem: 0 30<36 76.5 36 570 36 76.5> 0 44<225 354 225 570> 319 39<225 342 225 342> 493 164<535 561 36 567 535 535> 612 45<225 372 225 225> 627 30<36 76.5> 870 29<308 338.5>
VStem: 133 92<118 319 358 535 535 573> 296 41<698 737 698 754> 361 62<801.5 842 790.5 844> 454 32<226 267 417.5 458> 535 29
AnchorPoint: "Anchor-5" 464 0 basechar 0
AnchorPoint: "Anchor-4" 325 0 basechar 0
AnchorPoint: "Anchor-2" 320 0 basechar 0
AnchorPoint: "Anchor-0" 320 657 basechar 0
LayerCount: 2
Fore
SplineSet
570 0 m 1x6ba0
 36 0 l 1x6ba0
 36 30 l 1
 117 30 133 40 133 118 c 2
 133 535 l 2
 133 611 117 627 36 627 c 1xa7a0
 36 657 l 1
 561 657 l 1x6bb0
 567 493 l 1
 535 493 l 1x73b0
 520 593 495 612 372 612 c 2
 225 612 l 1
 225 358 l 1
 342 358 l 2
 434 358 454 377 454 458 c 1
 486 458 l 1
 486 226 l 1
 454 226 l 1
 454 308 434 319 342 319 c 2
 225 319 l 1
 225 44 l 1
 354 44 l 2
 509 43 527 67 566 186 c 1
 598 186 l 1
 570 0 l 1x6ba0
337 698 m 1
 296 698 l 1
 296 754 l 1x6ba0
 347 755 361 780 361 823 c 0
 361 865 346 870 331 870 c 0
 285 870 301 823 268 823 c 0
 251 823 241 835 241 851 c 0
 241 883 286 899 330 899 c 0
 394 899 423 863 423 821 c 0x6be0
 423 760 368 742 337 737 c 1
 337 698 l 1
EndSplineSet
Substitution2: "'c2sc' Capitals to Small Capitals in Latin lookup 5 subtable" uni1EBA.c2sc
EndChar

StartChar: uni1E18
Encoding: 7704 7704 88
Width: 626
GlyphClass: 2
Flags: MW
HStem: -203 153<179 353 179 353 287 423 287 461> -105 55<320 320> 0 30<36 76.5 36 570 36 76.5> 0 44<225 354 225 570> 319 39<225 342 225 342> 493 164<535 561 36 567 535 535> 612 45<225 372 225 225> 627 30<36 76.5>
VStem: 133 92<118 319 358 535 535 573> 454 32<226 267 417.5 458> 535 29
AnchorPoint: "Anchor-5" 464 0 basechar 0
AnchorPoint: "Anchor-4" 325 0 basechar 0
AnchorPoint: "Anchor-3" 320 -203 basechar 0
AnchorPoint: "Anchor-0" 320 657 basechar 0
LayerCount: 2
Fore
SplineSet
570 0 m 1x1ac0
 36 0 l 1x9ac0
 36 30 l 1
 117 30 133 40 133 118 c 2
 133 535 l 2
 133 611 117 627 36 627 c 1x29c0
 36 657 l 1
 561 657 l 1x1ae0
 567 493 l 1
 535 493 l 1x1ce0
 520 593 495 612 372 612 c 2
 225 612 l 1
 225 358 l 1
 342 358 l 2
 434 358 454 377 454 458 c 1
 486 458 l 1
 486 226 l 1
 454 226 l 1
 454 308 434 319 342 319 c 2
 225 319 l 1
 225 44 l 1
 354 44 l 2
 509 43 527 67 566 186 c 1
 598 186 l 1
 570 0 l 1x1ac0
218 -203 m 1
 179 -203 l 1
 287 -50 l 1
 353 -50 l 1
 461 -203 l 1
 423 -203 l 1x9ac0
 320 -105 l 1x5ac0
 218 -203 l 1
EndSplineSet
Substitution2: "'c2sc' Capitals to Small Capitals in Latin lookup 5 subtable" uni1E18.c2sc
EndChar

StartChar: uni1E1A
Encoding: 7706 7706 89
Width: 626
GlyphClass: 2
Flags: MW
HStem: -156 59<367 397> -113 59<230 260> 0 30<36 76.5 36 570 36 76.5> 0 44<225 354 225 570> 319 39<225 342 225 342> 493 164<535 561 36 567 535 535> 612 45<225 372 225 225> 627 30<36 76.5>
VStem: 133 92<118 319 358 535 535 573> 454 32<226 267 417.5 458> 535 29
AnchorPoint: "Anchor-5" 464 0 basechar 0
AnchorPoint: "Anchor-4" 325 0 basechar 0
AnchorPoint: "Anchor-3" 320 -156 basechar 0
AnchorPoint: "Anchor-0" 320 657 basechar 0
LayerCount: 2
Fore
SplineSet
570 0 m 1x9ac0
 36 0 l 1x5ac0
 36 30 l 1
 117 30 133 40 133 118 c 2
 133 535 l 2
 133 611 117 627 36 627 c 1xa9c0
 36 657 l 1
 561 657 l 1x9ae0
 567 493 l 1
 535 493 l 1x9ce0
 520 593 495 612 372 612 c 2
 225 612 l 1
 225 358 l 1
 342 358 l 2
 434 358 454 377 454 458 c 1
 486 458 l 1
 486 226 l 1
 454 226 l 1
 454 308 434 319 342 319 c 2
 225 319 l 1
 225 44 l 1
 354 44 l 2
 509 43 527 67 566 186 c 1
 598 186 l 1
 570 0 l 1x9ac0
181 -159 m 1
 154 -159 l 1x5ac0
 165 -92 205 -54 255 -54 c 0
 313 -54 343 -97 391 -97 c 0
 414 -97 437 -88 449 -50 c 1
 475 -50 l 1x9ac0
 460 -127 425 -156 369 -156 c 0
 314 -156 284 -113 236 -113 c 0
 212 -113 190 -123 181 -159 c 1
EndSplineSet
Substitution2: "'c2sc' Capitals to Small Capitals in Latin lookup 5 subtable" uni1E1A.c2sc
EndChar

StartChar: uni1EB8
Encoding: 7864 7864 90
Width: 626
GlyphClass: 2
Flags: MW
HStem: -181 113<303 337.5> 0 30<36 76.5 36 570 36 76.5> 0 44<225 354 225 570> 319 39<225 342 225 342> 493 164<535 561 36 567 535 535> 612 45<225 372 225 225> 627 30<36 76.5>
VStem: 133 92<118 319 358 535 535 573> 263 114<-139.5 -109> 454 32<226 267 417.5 458> 535 29
AnchorPoint: "Anchor-5" 464 0 basechar 0
AnchorPoint: "Anchor-4" 325 0 basechar 0
AnchorPoint: "Anchor-3" 320 -181 basechar 0
AnchorPoint: "Anchor-0" 320 657 basechar 0
LayerCount: 2
Fore
SplineSet
570 0 m 1x3540
 36 0 l 1xb5c0
 36 30 l 1
 117 30 133 40 133 118 c 2
 133 535 l 2
 133 611 117 627 36 627 c 1x5340
 36 657 l 1
 561 657 l 1x3560
 567 493 l 1
 535 493 l 1x3960
 520 593 495 612 372 612 c 2
 225 612 l 1
 225 358 l 1
 342 358 l 2
 434 358 454 377 454 458 c 1
 486 458 l 1
 486 226 l 1
 454 226 l 1
 454 308 434 319 342 319 c 2
 225 319 l 1
 225 44 l 1
 354 44 l 2
 509 43 527 67 566 186 c 1
 598 186 l 1
 570 0 l 1x3540
320 -181 m 0
 286 -181 263 -155 263 -124 c 0
 263 -94 285 -68 320 -68 c 0
 355 -68 377 -94 377 -124 c 0
 377 -155 355 -181 320 -181 c 0
EndSplineSet
Substitution2: "'c2sc' Capitals to Small Capitals in Latin lookup 5 subtable" uni1EB8.c2sc
EndChar

StartChar: uni0228
Encoding: 552 552 91
Width: 626
GlyphClass: 2
Flags: MW
HStem: -215 39<297.5 324 294.5 347> -90 35<330 335.5> 0 30<36 76.5 36 294 36 76.5> 0 44<225 294 323 354 225 570 323 323> 319 39<225 342 225 342> 493 164<535 561 36 567 535 535> 612 45<225 372 225 225> 627 30<36 76.5>
VStem: 133 92<118 319 358 535 535 573> 362 58<-148 -120.5> 454 32<226 267 417.5 458> 535 29
AnchorPoint: "Anchor-5" 464 0 basechar 0
AnchorPoint: "Anchor-4" 325 0 basechar 0
AnchorPoint: "Anchor-3" 320 -237 basechar 0
AnchorPoint: "Anchor-0" 320 657 basechar 0
LayerCount: 2
Fore
SplineSet
570 0 m 1xdaf0
 323 0 l 1
 310 -57 l 1
 310 -57 322 -55 338 -55 c 0
 389 -55 420 -81 420 -128 c 0
 420 -182 378 -215 316 -215 c 0
 279 -215 255 -197 233 -180 c 1
 243 -157 l 1
 261 -168 282 -176 307 -176 c 0
 341 -176 362 -164 362 -132 c 0
 362 -109 352 -90 319 -90 c 0
 303 -90 288 -93 288 -93 c 1
 274 -82 l 1
 294 0 l 1
 36 0 l 1xdaf0
 36 30 l 1
 117 30 133 40 133 118 c 2
 133 535 l 2
 133 611 117 627 36 627 c 1xe9f0
 36 657 l 1
 561 657 l 1xdaf0
 567 493 l 1
 535 493 l 1xdcf0
 520 593 495 612 372 612 c 2
 225 612 l 1
 225 358 l 1
 342 358 l 2
 434 358 454 377 454 458 c 1
 486 458 l 1
 486 226 l 1
 454 226 l 1
 454 308 434 319 342 319 c 2
 225 319 l 1
 225 44 l 1
 354 44 l 2
 509 43 527 67 566 186 c 1
 598 186 l 1
 570 0 l 1xdaf0
EndSplineSet
Substitution2: "'c2sc' Capitals to Small Capitals in Latin lookup 5 subtable" uni0228.c2sc
EndChar

StartChar: uni1E1C
Encoding: 7708 7708 92
Width: 626
GlyphClass: 2
Flags: MW
HStem: -215 39<297.5 324 294.5 347> -90 35<330 335.5> 0 30<36 76.5 36 294 36 76.5> 0 44<225 294 323 354 225 570 323 323> 319 39<225 342 225 342> 493 164<535 561 36 567 535 535> 612 45<225 372 225 225> 627 30<36 76.5> 712 64<287 353.5 287 366.5>
VStem: 133 92<118 319 358 535 535 573> 172 30<865 865> 362 58<-148 -120.5> 454 32<226 267 417.5 458> 535 29
AnchorPoint: "Anchor-5" 464 0 basechar 0
AnchorPoint: "Anchor-4" 325 0 basechar 0
AnchorPoint: "Anchor-3" 320 -237 basechar 0
AnchorPoint: "Anchor-1" 320 865 basechar 0
LayerCount: 2
Fore
SplineSet
570 0 m 1xdadc
 323 0 l 1
 310 -57 l 1
 310 -57 322 -55 338 -55 c 0
 389 -55 420 -81 420 -128 c 0
 420 -182 378 -215 316 -215 c 0
 279 -215 255 -197 233 -180 c 1
 243 -157 l 1
 261 -168 282 -176 307 -176 c 0
 341 -176 362 -164 362 -132 c 0
 362 -109 352 -90 319 -90 c 0
 303 -90 288 -93 288 -93 c 1
 274 -82 l 1
 294 0 l 1
 36 0 l 1xdabc
 36 30 l 1
 117 30 133 40 133 118 c 2
 133 535 l 2
 133 611 117 627 36 627 c 1xe9dc
 36 657 l 1
 561 657 l 1xdadc
 567 493 l 1
 535 493 l 1xdcdc
 520 593 495 612 372 612 c 2
 225 612 l 1
 225 358 l 1
 342 358 l 2
 434 358 454 377 454 458 c 1
 486 458 l 1
 486 226 l 1
 454 226 l 1
 454 308 434 319 342 319 c 2
 225 319 l 1
 225 44 l 1
 354 44 l 2
 509 43 527 67 566 186 c 1
 598 186 l 1
 570 0 l 1xdadc
320 712 m 0
 228 712 176 761 172 865 c 1
 202 865 l 1
 221 793 254 776 320 776 c 0
 387 776 414 793 439 865 c 1
 468 865 l 1
 457 761 413 712 320 712 c 0
EndSplineSet
Substitution2: "'c2sc' Capitals to Small Capitals in Latin lookup 5 subtable" uni1E1C.c2sc
EndChar

StartChar: Eogonek
Encoding: 280 280 93
Width: 625
GlyphClass: 2
Flags: MW
HStem: -216 51<481 498> 0 30<36 76.5 36 476 36 76.5> 0 44<224 353 224 476> 319 39<224 341 224 341> 493 164<534 561 36 566 534 534> 612 45<224 372 224 224> 627 30<36 76>
VStem: 133 91<118 319 358 535 535 573> 378 68<-128.5 -106> 453 32<226 267 417.5 458> 534 29.5
AnchorPoint: "Anchor-5" 353 -250 basechar 0
AnchorPoint: "Anchor-4" 353 -250 basechar 0
AnchorPoint: "Anchor-3" 352 -250 basechar 0
AnchorPoint: "Anchor-0" 320 657 basechar 0
LayerCount: 2
Fore
SplineSet
468 -216 m 0xb580
 415 -216 378 -184 378 -134 c 0
 378 -78 438 -31 476 -2 c 1
 476 0 l 1
 36 0 l 1xb580
 36 30 l 1
 117 30 133 40 133 118 c 2
 133 535 l 2
 133 611 116 627 36 627 c 1xd340
 36 657 l 1
 561 657 l 1xb560
 566 493 l 1
 534 493 l 1xb960
 519 593 494 612 372 612 c 2
 224 612 l 1
 224 358 l 1
 341 358 l 2
 433 358 453 377 453 458 c 1
 485 458 l 1
 485 226 l 1
 453 226 l 1xb540
 453 308 433 319 341 319 c 2
 224 319 l 1
 224 44 l 1
 353 44 l 2
 509 43 527 67 566 186 c 1
 597 186 l 1
 569 0 l 1
 522 0 l 1
 487 -27 446 -59 446 -110 c 0
 446 -147 465 -165 497 -165 c 0
 534 -165 552 -156 581 -134 c 1
 596 -151 l 1
 557 -190 528 -216 468 -216 c 0xb580
EndSplineSet
Substitution2: "'c2sc' Capitals to Small Capitals in Latin lookup 5 subtable" Eogonek.c2sc
EndChar

StartChar: uni1E1E
Encoding: 7710 7710 94
Width: 588
GlyphClass: 2
Flags: MW
HStem: 0 30<36 76.5 290 329 36 76.5> 320 39<225 343 225 343> 493 164<542 568 36 574 542 542> 612 45<225 384 225 225> 627 30<36 72> 705 112<308.5 342.5>
VStem: 133 92<116 320 359 544 544 578.5> 269 113<746 776> 449 34<226 266.5 417.5 458> 542 29
AnchorPoint: "Anchor-5" 167 0 basechar 0
AnchorPoint: "Anchor-4" 188 0 basechar 0
AnchorPoint: "Anchor-2" 173 0 basechar 0
AnchorPoint: "Anchor-1" 325 817 basechar 0
LayerCount: 2
Fore
SplineSet
329 0 m 1xd280
 36 0 l 1
 36 30 l 1
 117 30 133 42 133 116 c 2
 133 544 l 2
 133 613 108 627 36 627 c 1xcf80
 36 657 l 1
 568 657 l 1xd2c0
 574 493 l 1
 542 493 l 1xe2c0
 524 588 515 612 384 612 c 2
 225 612 l 1
 225 359 l 1
 343 359 l 2
 429 359 449 377 449 458 c 1
 483 458 l 1
 483 226 l 1
 449 226 l 1
 449 307 429 320 343 320 c 2
 225 320 l 1
 225 110 l 2
 225 42 251 30 329 30 c 1
 329 0 l 1xd280
325 705 m 0
 292 705 269 731 269 761 c 0
 269 791 291 817 325 817 c 0
 360 817 382 791 382 761 c 0
 382 731 360 705 325 705 c 0
EndSplineSet
Substitution2: "'c2sc' Capitals to Small Capitals in Latin lookup 5 subtable" uni1E1E.c2sc
EndChar

StartChar: Gcircumflex
Encoding: 284 284 95
Width: 720
GlyphClass: 2
Flags: MW
HStem: -11 45<312.5 415 312.5 425> 278 32<438 476 657 685> 613 20G<532.5 553.5> 626 43<306.5 430> 698 138<229 413 229 413 341 483 341 523> 779 57<376 376>
VStem: 50 104<236 426.5 236 437> 526 91<84 192 192 202 57 228> 576 34<440 669> 581 29<440 669>
AnchorPoint: "Anchor-5" 360 0 basechar 0
AnchorPoint: "Anchor-4" 358 0 basechar 0
AnchorPoint: "Anchor-2" 360 0 basechar 0
AnchorPoint: "Anchor-1" 376 836 basechar 0
LayerCount: 2
Fore
SplineSet
370 -11 m 0xd3
 158 -11 50 112 50 326 c 0xd3
 50 548 188 669 376 669 c 0
 486 669 520 633 545 633 c 0xe240
 562 633 568 647 581 669 c 1
 610 669 l 1
 610 440 l 1xd240
 576 440 l 1xd280
 553 573 483 626 377 626 c 0
 236 626 154 515 154 338 c 0
 154 134 241 34 384 34 c 0
 446 34 486 54 526 84 c 1
 526 192 l 2
 526 264 514 278 438 278 c 1
 438 310 l 1
 685 310 l 1
 685 278 l 1
 629 278 617 264 617 202 c 2
 617 57 l 1
 545 15 480 -11 370 -11 c 0xd3
271 698 m 1xdb
 229 698 l 1
 341 836 l 1
 413 836 l 1
 523 698 l 1
 483 698 l 1xdb
 376 779 l 1xd7
 271 698 l 1xdb
EndSplineSet
Substitution2: "'c2sc' Capitals to Small Capitals in Latin lookup 5 subtable" Gcircumflex.c2sc
EndChar

StartChar: uni1E20
Encoding: 7712 7712 96
Width: 720
GlyphClass: 2
Flags: MW
HStem: -11 45<312.5 415 312.5 425> 278 32<438 476 657 685> 613 20G<532.5 553.5> 626 43<306.5 430> 726 53<229 523 229 523>
VStem: 50 104<236 426.5 236 437> 526 91<84 192 192 202 57 228> 576 34<440 669> 581 29<440 669>
AnchorPoint: "Anchor-5" 360 0 basechar 0
AnchorPoint: "Anchor-4" 358 0 basechar 0
AnchorPoint: "Anchor-2" 360 0 basechar 0
AnchorPoint: "Anchor-1" 376 779 basechar 0
LayerCount: 2
Fore
SplineSet
370 -11 m 0xde
 158 -11 50 112 50 326 c 0xde
 50 548 188 669 376 669 c 0
 486 669 520 633 545 633 c 0xec80
 562 633 568 647 581 669 c 1
 610 669 l 1
 610 440 l 1xdc80
 576 440 l 1xdd
 553 573 483 626 377 626 c 0
 236 626 154 515 154 338 c 0
 154 134 241 34 384 34 c 0
 446 34 486 54 526 84 c 1
 526 192 l 2
 526 264 514 278 438 278 c 1
 438 310 l 1
 685 310 l 1
 685 278 l 1
 629 278 617 264 617 202 c 2
 617 57 l 1
 545 15 480 -11 370 -11 c 0xde
523 726 m 1
 229 726 l 1
 229 779 l 1
 523 779 l 1
 523 726 l 1
EndSplineSet
Substitution2: "'c2sc' Capitals to Small Capitals in Latin lookup 5 subtable" uni1E20.c2sc
EndChar

StartChar: Gbreve
Encoding: 286 286 97
Width: 720
GlyphClass: 2
Flags: MW
HStem: -11 45<312.5 415 312.5 425> 278 32<438 476 657 685> 613 20G<532.5 553.5> 626 43<306.5 430> 712 64<343 409.5 343 422.5>
VStem: 50 104<236 426.5 236 437> 228 30<865 865> 526 91<84 192 192 202 57 228> 576 34<440 669> 581 29<440 669>
AnchorPoint: "Anchor-5" 360 0 basechar 0
AnchorPoint: "Anchor-4" 358 0 basechar 0
AnchorPoint: "Anchor-2" 360 0 basechar 0
AnchorPoint: "Anchor-1" 376 865 basechar 0
LayerCount: 2
Fore
SplineSet
370 -11 m 0xdd
 158 -11 50 112 50 326 c 0xdd
 50 548 188 669 376 669 c 0
 486 669 520 633 545 633 c 0xec40
 562 633 568 647 581 669 c 1
 610 669 l 1
 610 440 l 1xdc40
 576 440 l 1xdc80
 553 573 483 626 377 626 c 0
 236 626 154 515 154 338 c 0
 154 134 241 34 384 34 c 0
 446 34 486 54 526 84 c 1
 526 192 l 2
 526 264 514 278 438 278 c 1
 438 310 l 1
 685 310 l 1
 685 278 l 1
 629 278 617 264 617 202 c 2
 617 57 l 1
 545 15 480 -11 370 -11 c 0xdd
376 712 m 0xdf
 284 712 232 761 228 865 c 1
 258 865 l 1
 277 793 310 776 376 776 c 0
 443 776 470 793 495 865 c 1
 524 865 l 1
 513 761 469 712 376 712 c 0xdf
EndSplineSet
Substitution2: "'c2sc' Capitals to Small Capitals in Latin lookup 5 subtable" Gbreve.c2sc
EndChar

StartChar: Gdotaccent
Encoding: 288 288 98
Width: 720
GlyphClass: 2
Flags: MW
HStem: -11 45<312.5 415 312.5 425> 278 32<438 476 657 685> 613 20G<532.5 553.5> 626 43<306.5 430> 705 112<359.5 393.5>
VStem: 50 104<236 426.5 236 437> 320 113<746 776> 526 91<84 192 192 202 57 228> 576 34<440 669> 581 29<440 669>
AnchorPoint: "Anchor-5" 360 0 basechar 0
AnchorPoint: "Anchor-4" 358 0 basechar 0
AnchorPoint: "Anchor-2" 360 0 basechar 0
AnchorPoint: "Anchor-1" 376 817 basechar 0
LayerCount: 2
Fore
SplineSet
370 -11 m 0xd5
 158 -11 50 112 50 326 c 0xd5
 50 548 188 669 376 669 c 0
 486 669 520 633 545 633 c 0xe440
 562 633 568 647 581 669 c 1
 610 669 l 1
 610 440 l 1xd440
 576 440 l 1xd480
 553 573 483 626 377 626 c 0
 236 626 154 515 154 338 c 0
 154 134 241 34 384 34 c 0
 446 34 486 54 526 84 c 1
 526 192 l 2
 526 264 514 278 438 278 c 1
 438 310 l 1
 685 310 l 1
 685 278 l 1
 629 278 617 264 617 202 c 2
 617 57 l 1
 545 15 480 -11 370 -11 c 0xd5
376 705 m 0xdf
 343 705 320 731 320 761 c 0
 320 791 342 817 376 817 c 0
 411 817 433 791 433 761 c 0
 433 731 411 705 376 705 c 0xdf
EndSplineSet
Substitution2: "'c2sc' Capitals to Small Capitals in Latin lookup 5 subtable" Gdotaccent.c2sc
EndChar

StartChar: Gcommaaccent
Encoding: 290 290 99
Width: 720
GlyphClass: 2
Flags: MW
HStem: -162 109<337 352> -11 45<312.5 415 312.5 425> 278 32<438 476 657 685> 613 20G<532.5 553.5> 626 43<306.5 430>
VStem: 50 104<236 426.5 236 437> 378 50<-185 -156> 526 91<84 192 192 202 57 228> 576 34<440 669> 581 29<440 669>
AnchorPoint: "Anchor-5" 360 0 basechar 0
AnchorPoint: "Anchor-4" 358 0 basechar 0
AnchorPoint: "Anchor-3" 360 -277 basechar 0
AnchorPoint: "Anchor-0" 376 657 basechar 0
LayerCount: 2
Fore
SplineSet
370 -11 m 0x6f
 158 -11 50 112 50 326 c 0x6f
 50 548 188 669 376 669 c 0
 486 669 520 633 545 633 c 0x7640
 562 633 568 647 581 669 c 1
 610 669 l 1
 610 440 l 1x6e40
 576 440 l 1x6e80
 553 573 483 626 377 626 c 0
 236 626 154 515 154 338 c 0
 154 134 241 34 384 34 c 0
 446 34 486 54 526 84 c 1
 526 192 l 2
 526 264 514 278 438 278 c 1
 438 310 l 1
 685 310 l 1
 685 278 l 1
 629 278 617 264 617 202 c 2
 617 57 l 1
 545 15 480 -11 370 -11 c 0x6f
310 -277 m 1
 300 -252 l 1
 336 -239 378 -214 378 -156 c 1
 367 -160 357 -162 347 -162 c 0
 318 -162 297 -143 297 -110 c 0
 297 -78 316 -53 358 -53 c 0
 406 -53 428 -86 428 -138 c 0xef
 428 -235 351 -263 310 -277 c 1
EndSplineSet
Substitution2: "'c2sc' Capitals to Small Capitals in Latin lookup 5 subtable" Gcommaaccent.c2sc
EndChar

StartChar: Hcircumflex
Encoding: 292 292 100
Width: 777
GlyphClass: 2
Flags: MW
HStem: 0 30<36 81 278 323 36 81 456 500.5 696.5 742> 318 39<225 553 225 553> 627 30<36 82 275.5 323 456 502 694.5 742> 698 138<243 427 243 427 355 497 355 537> 779 57<390 390>
VStem: 133 92<131 318 357 525> 553 91<131 318 318 318 357 525>
AnchorPoint: "Anchor-5" 600 0 basechar 0
AnchorPoint: "Anchor-4" 179 0 basechar 0
AnchorPoint: "Anchor-2" 389 0 basechar 0
AnchorPoint: "Anchor-1" 390 836 basechar 0
LayerCount: 2
Fore
SplineSet
323 0 m 1xf6
 36 0 l 1
 36 30 l 1
 126 30 133 42 133 131 c 2
 133 525 l 2
 133 603 128 627 36 627 c 1
 36 657 l 1
 323 657 l 1
 323 627 l 1
 228 627 225 603 225 525 c 2
 225 357 l 1
 553 357 l 1
 553 525 l 2
 553 603 548 627 456 627 c 1
 456 657 l 1
 742 657 l 1
 742 627 l 1
 647 627 644 604 644 525 c 2
 644 131 l 2
 644 44 651 30 742 30 c 1
 742 0 l 1
 456 0 l 1
 456 30 l 1
 545 30 553 44 553 131 c 2
 553 318 l 1
 225 318 l 1
 225 131 l 2
 225 43 233 30 323 30 c 1
 323 0 l 1xf6
285 698 m 1
 243 698 l 1
 355 836 l 1
 427 836 l 1
 537 698 l 1
 497 698 l 1xf6
 390 779 l 1xee
 285 698 l 1
EndSplineSet
Substitution2: "'c2sc' Capitals to Small Capitals in Latin lookup 5 subtable" Hcircumflex.c2sc
EndChar

StartChar: uni1E26
Encoding: 7718 7718 101
Width: 777
GlyphClass: 2
Flags: MW
HStem: 0 30<36 81 278 323 36 81 456 500.5 696.5 742> 318 39<225 553 225 553> 627 30<36 82 275.5 323 456 502 694.5 742> 706 110<262.5 296.5 483.5 517.5>
VStem: 133 92<131 318 357 525> 223 113<746.5 775.5> 444 113<746.5 775.5> 553 91<131 318 318 318 357 525>
AnchorPoint: "Anchor-5" 600 0 basechar 0
AnchorPoint: "Anchor-4" 179 0 basechar 0
AnchorPoint: "Anchor-2" 389 0 basechar 0
AnchorPoint: "Anchor-1" 390 816 basechar 0
LayerCount: 2
Fore
SplineSet
323 0 m 1xe9
 36 0 l 1
 36 30 l 1
 126 30 133 42 133 131 c 2
 133 525 l 2
 133 603 128 627 36 627 c 1
 36 657 l 1
 323 657 l 1
 323 627 l 1
 228 627 225 603 225 525 c 2
 225 357 l 1
 553 357 l 1
 553 525 l 2
 553 603 548 627 456 627 c 1
 456 657 l 1
 742 657 l 1
 742 627 l 1
 647 627 644 604 644 525 c 2
 644 131 l 2
 644 44 651 30 742 30 c 1
 742 0 l 1
 456 0 l 1
 456 30 l 1
 545 30 553 44 553 131 c 2
 553 318 l 1
 225 318 l 1
 225 131 l 2
 225 43 233 30 323 30 c 1
 323 0 l 1xe9
279 706 m 0xf6
 246 706 223 732 223 761 c 0
 223 790 245 816 279 816 c 0
 314 816 336 790 336 761 c 0
 336 732 314 706 279 706 c 0xf6
500 706 m 0
 467 706 444 732 444 761 c 0
 444 790 466 816 500 816 c 0
 535 816 557 790 557 761 c 0
 557 732 535 706 500 706 c 0
EndSplineSet
Substitution2: "'c2sc' Capitals to Small Capitals in Latin lookup 5 subtable" uni1E26.c2sc
EndChar

StartChar: uni1E22
Encoding: 7714 7714 102
Width: 777
GlyphClass: 2
Flags: MW
HStem: 0 30<36 81 278 323 36 81 456 500.5 696.5 742> 318 39<225 553 225 553> 627 30<36 82 275.5 323 456 502 694.5 742> 705 112<373.5 407.5>
VStem: 133 92<131 318 357 525> 334 113<746 776> 553 91<131 318 318 318 357 525>
AnchorPoint: "Anchor-5" 600 0 basechar 0
AnchorPoint: "Anchor-4" 179 0 basechar 0
AnchorPoint: "Anchor-2" 389 0 basechar 0
AnchorPoint: "Anchor-1" 390 817 basechar 0
LayerCount: 2
Fore
SplineSet
323 0 m 1
 36 0 l 1
 36 30 l 1
 126 30 133 42 133 131 c 2
 133 525 l 2
 133 603 128 627 36 627 c 1
 36 657 l 1
 323 657 l 1
 323 627 l 1
 228 627 225 603 225 525 c 2
 225 357 l 1
 553 357 l 1
 553 525 l 2
 553 603 548 627 456 627 c 1
 456 657 l 1
 742 657 l 1
 742 627 l 1
 647 627 644 604 644 525 c 2
 644 131 l 2
 644 44 651 30 742 30 c 1
 742 0 l 1
 456 0 l 1
 456 30 l 1
 545 30 553 44 553 131 c 2
 553 318 l 1
 225 318 l 1
 225 131 l 2
 225 43 233 30 323 30 c 1
 323 0 l 1
390 705 m 0
 357 705 334 731 334 761 c 0
 334 791 356 817 390 817 c 0
 425 817 447 791 447 761 c 0
 447 731 425 705 390 705 c 0
EndSplineSet
Substitution2: "'c2sc' Capitals to Small Capitals in Latin lookup 5 subtable" uni1E22.c2sc
EndChar

StartChar: uni1E2A
Encoding: 7722 7722 103
Width: 777
GlyphClass: 2
Flags: MW
HStem: -204 63<357 423.5 357 436> 0 30<36 81 278 323 36 81 456 500.5 696.5 742> 318 39<225 553 225 553> 627 30<36 82 275.5 323 456 502 694.5 742>
VStem: 133 92<131 318 357 525> 243 30<-50 -50> 243 80<-50 0> 553 91<131 318 318 318 357 525>
AnchorPoint: "Anchor-5" 600 0 basechar 0
AnchorPoint: "Anchor-4" 179 0 basechar 0
AnchorPoint: "Anchor-3" 390 -204 basechar 0
AnchorPoint: "Anchor-0" 389 657 basechar 0
LayerCount: 2
Fore
SplineSet
323 0 m 1xfb
 36 0 l 1
 36 30 l 1
 126 30 133 42 133 131 c 2
 133 525 l 2
 133 603 128 627 36 627 c 1
 36 657 l 1
 323 657 l 1
 323 627 l 1
 228 627 225 603 225 525 c 2
 225 357 l 1
 553 357 l 1
 553 525 l 2
 553 603 548 627 456 627 c 1
 456 657 l 1
 742 657 l 1
 742 627 l 1
 647 627 644 604 644 525 c 2
 644 131 l 2
 644 44 651 30 742 30 c 1
 742 0 l 1
 456 0 l 1
 456 30 l 1
 545 30 553 44 553 131 c 2
 553 318 l 1
 225 318 l 1
 225 131 l 2xf9
 225 43 233 30 323 30 c 1
 323 0 l 1xfb
390 -204 m 0xfd
 297 -204 247 -156 243 -50 c 1
 273 -50 l 1
 292 -127 324 -141 390 -141 c 0
 457 -141 481 -127 506 -50 c 1
 536 -50 l 1
 525 -156 482 -204 390 -204 c 0xfd
EndSplineSet
Substitution2: "'c2sc' Capitals to Small Capitals in Latin lookup 5 subtable" uni1E2A.c2sc
EndChar

StartChar: uni1E24
Encoding: 7716 7716 104
Width: 777
GlyphClass: 2
Flags: MW
HStem: -181 113<373 407.5> 0 30<36 81 278 323 36 81 456 500.5 696.5 742> 318 39<225 553 225 553> 627 30<36 82 275.5 323 456 502 694.5 742>
VStem: 133 92<131 318 357 525> 333 114<-139.5 -109> 553 91<131 318 318 318 357 525>
AnchorPoint: "Anchor-5" 600 0 basechar 0
AnchorPoint: "Anchor-4" 179 0 basechar 0
AnchorPoint: "Anchor-3" 390 -181 basechar 0
AnchorPoint: "Anchor-0" 389 657 basechar 0
LayerCount: 2
Fore
SplineSet
323 0 m 1
 36 0 l 1
 36 30 l 1
 126 30 133 42 133 131 c 2
 133 525 l 2
 133 603 128 627 36 627 c 1
 36 657 l 1
 323 657 l 1
 323 627 l 1
 228 627 225 603 225 525 c 2
 225 357 l 1
 553 357 l 1
 553 525 l 2
 553 603 548 627 456 627 c 1
 456 657 l 1
 742 657 l 1
 742 627 l 1
 647 627 644 604 644 525 c 2
 644 131 l 2
 644 44 651 30 742 30 c 1
 742 0 l 1
 456 0 l 1
 456 30 l 1
 545 30 553 44 553 131 c 2
 553 318 l 1
 225 318 l 1
 225 131 l 2
 225 43 233 30 323 30 c 1
 323 0 l 1
390 -181 m 0
 356 -181 333 -155 333 -124 c 0
 333 -94 355 -68 390 -68 c 0
 425 -68 447 -94 447 -124 c 0
 447 -155 425 -181 390 -181 c 0
EndSplineSet
Substitution2: "'c2sc' Capitals to Small Capitals in Latin lookup 5 subtable" uni1E24.c2sc
EndChar

StartChar: uni1E28
Encoding: 7720 7720 105
Width: 777
GlyphClass: 2
Flags: MW
HStem: -215 39<151.5 178 148.5 201> -90 35<184 189.5> 0 30<36 81 36 148 36 81 278 323 456 500.5 696.5 742> 318 39<225 553 225 553> 627 30<36 82 275.5 323 456 502 694.5 742>
VStem: 133 92<131 318 357 525> 216 58<-148 -120.5> 553 91<131 318 318 318 357 525>
AnchorPoint: "Anchor-5" 600 0 basechar 0
AnchorPoint: "Anchor-4" 179 0 basechar 0
AnchorPoint: "Anchor-3" 174 -237 basechar 0
AnchorPoint: "Anchor-0" 389 657 basechar 0
LayerCount: 2
Fore
SplineSet
323 0 m 1xfd
 177 0 l 1
 164 -57 l 1xfd
 164 -57 176 -55 192 -55 c 0
 243 -55 274 -81 274 -128 c 0
 274 -182 232 -215 170 -215 c 0
 133 -215 109 -197 87 -180 c 1
 97 -157 l 1
 115 -168 136 -176 161 -176 c 0
 195 -176 216 -164 216 -132 c 0
 216 -109 206 -90 173 -90 c 0
 157 -90 142 -93 142 -93 c 1
 128 -82 l 1
 148 0 l 1xfb
 36 0 l 1
 36 30 l 1
 126 30 133 42 133 131 c 2
 133 525 l 2
 133 603 128 627 36 627 c 1
 36 657 l 1
 323 657 l 1
 323 627 l 1
 228 627 225 603 225 525 c 2
 225 357 l 1
 553 357 l 1
 553 525 l 2
 553 603 548 627 456 627 c 1
 456 657 l 1
 742 657 l 1
 742 627 l 1
 647 627 644 604 644 525 c 2
 644 131 l 2
 644 44 651 30 742 30 c 1
 742 0 l 1
 456 0 l 1
 456 30 l 1
 545 30 553 44 553 131 c 2
 553 318 l 1
 225 318 l 1
 225 131 l 2
 225 43 233 30 323 30 c 1
 323 0 l 1xfd
EndSplineSet
Substitution2: "'c2sc' Capitals to Small Capitals in Latin lookup 5 subtable" uni1E28.c2sc
EndChar

StartChar: Hbar
Encoding: 294 294 106
Width: 788
GlyphClass: 2
Flags: MW
HStem: 0 30<41 86 283 328 41 86 461 505.5 702.5 748> 314 39<230 558 230 558> 456 39<41 138 41 138 230 558 650 747> 627 30<41 87 280.5 328 461 507 700 748>
VStem: 138 92<131 314 353 456 495 525> 558 92<131 314 314 314 353 456 495 525>
AnchorPoint: "Anchor-5" 610 0 basechar 0
AnchorPoint: "Anchor-4" 179 0 basechar 0
AnchorPoint: "Anchor-2" 394 0 basechar 0
AnchorPoint: "Anchor-0" 394 657 basechar 0
LayerCount: 2
Fore
SplineSet
328 0 m 1
 41 0 l 1
 41 30 l 1
 131 30 138 42 138 131 c 2
 138 456 l 1
 41 456 l 1
 41 495 l 1
 138 495 l 1
 138 525 l 2
 138 603 133 627 41 627 c 1
 41 657 l 1
 328 657 l 1
 328 627 l 1
 233 627 230 603 230 525 c 2
 230 495 l 1
 558 495 l 1
 558 525 l 2
 558 603 553 627 461 627 c 1
 461 657 l 1
 748 657 l 1
 748 627 l 1
 652 627 650 604 650 525 c 2
 650 495 l 1
 747 495 l 1
 747 456 l 1
 650 456 l 1
 650 131 l 2
 650 44 657 30 748 30 c 1
 748 0 l 1
 461 0 l 1
 461 30 l 1
 550 30 558 44 558 131 c 2
 558 314 l 1
 230 314 l 1
 230 131 l 2
 230 43 238 30 328 30 c 1
 328 0 l 1
558 456 m 1
 230 456 l 1
 230 353 l 1
 558 353 l 1
 558 456 l 1
EndSplineSet
Substitution2: "'c2sc' Capitals to Small Capitals in Latin lookup 5 subtable" Hbar.c2sc
EndChar

StartChar: Igrave
Encoding: 204 204 107
Width: 357
GlyphClass: 2
Flags: MW
HStem: 0 30<34 79 277.5 322 34 79> 627 30<34 81.5 274.5 322> 698 128<71 276 71 229> 805 21<71 171>
VStem: 133 91<131 525>
AnchorPoint: "Anchor-5" 167 0 basechar 0
AnchorPoint: "Anchor-4" 180 0 basechar 0
AnchorPoint: "Anchor-2" 179 0 basechar 0
AnchorPoint: "Anchor-1" 179 826 basechar 0
LayerCount: 2
Fore
SplineSet
322 0 m 1xd8
 34 0 l 1
 34 30 l 1
 124 30 133 45 133 131 c 2
 133 525 l 2
 133 603 129 627 34 627 c 1
 34 657 l 1
 322 657 l 1
 322 627 l 1
 227 627 224 603 224 525 c 2
 224 131 l 2
 224 45 233 30 322 30 c 1
 322 0 l 1xd8
276 698 m 1xe8
 229 698 l 1xe8
 71 805 l 1
 71 826 l 1
 171 826 l 1xd8
 276 698 l 1xe8
EndSplineSet
Substitution2: "'c2sc' Capitals to Small Capitals in Latin lookup 5 subtable" Igrave.c2sc
EndChar

StartChar: Iacute
Encoding: 205 205 108
Width: 357
GlyphClass: 2
Flags: MW
HStem: 0 30<34 79 277.5 322 34 79> 627 30<34 81.5 274.5 322> 698 128<83 288 83 288> 805 21<188 288>
VStem: 133 91<131 525>
AnchorPoint: "Anchor-5" 167 0 basechar 0
AnchorPoint: "Anchor-4" 180 0 basechar 0
AnchorPoint: "Anchor-2" 179 0 basechar 0
AnchorPoint: "Anchor-1" 179 826 basechar 0
LayerCount: 2
Fore
SplineSet
322 0 m 1xd8
 34 0 l 1
 34 30 l 1
 124 30 133 45 133 131 c 2
 133 525 l 2
 133 603 129 627 34 627 c 1
 34 657 l 1
 322 657 l 1
 322 627 l 1
 227 627 224 603 224 525 c 2
 224 131 l 2
 224 45 233 30 322 30 c 1
 322 0 l 1xd8
129 698 m 1xe8
 83 698 l 1xe8
 188 826 l 1
 288 826 l 1
 288 805 l 1xd8
 129 698 l 1xe8
EndSplineSet
Substitution2: "'c2sc' Capitals to Small Capitals in Latin lookup 5 subtable" Iacute.c2sc
EndChar

StartChar: Icircumflex
Encoding: 206 206 109
Width: 357
GlyphClass: 2
Flags: MW
HStem: 0 30<34 79 277.5 322 34 79> 627 30<34 81.5 274.5 322> 698 138<32 216 32 216 144 286 144 326> 779 57<179 179>
VStem: 133 91<131 525>
AnchorPoint: "Anchor-5" 167 0 basechar 0
AnchorPoint: "Anchor-4" 180 0 basechar 0
AnchorPoint: "Anchor-2" 179 0 basechar 0
AnchorPoint: "Anchor-1" 179 836 basechar 0
LayerCount: 2
Fore
SplineSet
322 0 m 1xe8
 34 0 l 1
 34 30 l 1
 124 30 133 45 133 131 c 2
 133 525 l 2
 133 603 129 627 34 627 c 1
 34 657 l 1
 322 657 l 1
 322 627 l 1
 227 627 224 603 224 525 c 2
 224 131 l 2
 224 45 233 30 322 30 c 1
 322 0 l 1xe8
74 698 m 1
 32 698 l 1
 144 836 l 1
 216 836 l 1
 326 698 l 1
 286 698 l 1xe8
 179 779 l 1xd8
 74 698 l 1
EndSplineSet
Substitution2: "'c2sc' Capitals to Small Capitals in Latin lookup 5 subtable" Icircumflex.c2sc
EndChar

StartChar: Itilde
Encoding: 296 296 110
Width: 357
GlyphClass: 2
Flags: MW
HStem: 0 30<34 79 277.5 322 34 79> 627 30<34 81.5 274.5 322> 714 61<238.5 268.5> 751 60<98 128.5>
VStem: 133 91<131 525>
AnchorPoint: "Anchor-5" 167 0 basechar 0
AnchorPoint: "Anchor-4" 180 0 basechar 0
AnchorPoint: "Anchor-2" 179 0 basechar 0
AnchorPoint: "Anchor-1" 179 811 basechar 0
LayerCount: 2
Fore
SplineSet
322 0 m 1xd8
 34 0 l 1
 34 30 l 1
 124 30 133 45 133 131 c 2
 133 525 l 2
 133 603 129 627 34 627 c 1
 34 657 l 1
 322 657 l 1
 322 627 l 1
 227 627 224 603 224 525 c 2
 224 131 l 2
 224 45 233 30 322 30 c 1
 322 0 l 1xd8
47 712 m 1
 21 712 l 1
 33 776 73 811 123 811 c 0xd8
 183 811 215 775 262 775 c 0
 289 775 309 782 321 816 c 1
 347 816 l 1xe8
 331 742 296 714 241 714 c 0
 183 714 153 751 104 751 c 0
 79 751 57 743 47 712 c 1
EndSplineSet
Substitution2: "'c2sc' Capitals to Small Capitals in Latin lookup 5 subtable" Itilde.c2sc
EndChar

StartChar: Idieresis
Encoding: 207 207 111
Width: 357
GlyphClass: 2
Flags: MW
HStem: 0 30<34 79 277.5 322 34 79> 627 30<34 81.5 274.5 322> 706 110<51.5 85.5 272.5 306.5>
VStem: 12 113<746.5 775.5> 133 91<131 525> 233 113<746.5 775.5>
AnchorPoint: "Anchor-5" 167 0 basechar 0
AnchorPoint: "Anchor-4" 180 0 basechar 0
AnchorPoint: "Anchor-2" 179 0 basechar 0
AnchorPoint: "Anchor-1" 179 816 basechar 0
LayerCount: 2
Fore
SplineSet
322 0 m 1
 34 0 l 1
 34 30 l 1
 124 30 133 45 133 131 c 2
 133 525 l 2
 133 603 129 627 34 627 c 1
 34 657 l 1
 322 657 l 1
 322 627 l 1
 227 627 224 603 224 525 c 2
 224 131 l 2
 224 45 233 30 322 30 c 1
 322 0 l 1
68 706 m 0xfc
 35 706 12 732 12 761 c 0
 12 790 34 816 68 816 c 0
 103 816 125 790 125 761 c 0
 125 732 103 706 68 706 c 0xfc
289 706 m 0
 256 706 233 732 233 761 c 0
 233 790 255 816 289 816 c 0
 324 816 346 790 346 761 c 0
 346 732 324 706 289 706 c 0
EndSplineSet
Substitution2: "'c2sc' Capitals to Small Capitals in Latin lookup 5 subtable" Idieresis.c2sc
EndChar

StartChar: uni1E2E
Encoding: 7726 7726 112
Width: 357
GlyphClass: 2
Flags: MW
HStem: 0 30<34 79 277.5 322 34 79> 627 30<34 81.5 274.5 322> 696 110<52.5 86.5 273.5 307.5> 838 128<84 289 84 289> 945 21<189 289>
VStem: 13 113<736.5 765.5> 34 92<627 765.5 657 765.5> 133 91<131 525> 234 113<736.5 765.5>
AnchorPoint: "Anchor-5" 167 0 basechar 0
AnchorPoint: "Anchor-4" 180 0 basechar 0
AnchorPoint: "Anchor-2" 179 0 basechar 0
AnchorPoint: "Anchor-1" 180 966 basechar 0
LayerCount: 2
Fore
SplineSet
322 0 m 1xe9
 34 0 l 1xf2
 34 30 l 1
 124 30 133 45 133 131 c 2
 133 525 l 2xe9
 133 603 129 627 34 627 c 1
 34 657 l 1xea
 322 657 l 1
 322 627 l 1
 227 627 224 603 224 525 c 2
 224 131 l 2
 224 45 233 30 322 30 c 1
 322 0 l 1xe9
130 838 m 1
 84 838 l 1xf4
 189 966 l 1
 289 966 l 1
 289 945 l 1xe9
 130 838 l 1
69 696 m 0
 36 696 13 722 13 751 c 0xec
 13 780 35 806 69 806 c 0
 104 806 126 780 126 751 c 0xea
 126 722 104 696 69 696 c 0
290 696 m 0xe980
 257 696 234 722 234 751 c 0
 234 780 256 806 290 806 c 0
 325 806 347 780 347 751 c 0
 347 722 325 696 290 696 c 0xe980
EndSplineSet
Substitution2: "'c2sc' Capitals to Small Capitals in Latin lookup 5 subtable" uni1E2E.c2sc
EndChar

StartChar: Imacron
Encoding: 298 298 113
Width: 357
GlyphClass: 2
Flags: MW
HStem: 0 30<34 79 277.5 322 34 79> 627 30<34 81.5 274.5 322> 726 53<32 326 32 326>
VStem: 133 91<131 525>
AnchorPoint: "Anchor-5" 167 0 basechar 0
AnchorPoint: "Anchor-4" 180 0 basechar 0
AnchorPoint: "Anchor-2" 179 0 basechar 0
AnchorPoint: "Anchor-1" 179 779 basechar 0
LayerCount: 2
Fore
SplineSet
322 0 m 1
 34 0 l 1
 34 30 l 1
 124 30 133 45 133 131 c 2
 133 525 l 2
 133 603 129 627 34 627 c 1
 34 657 l 1
 322 657 l 1
 322 627 l 1
 227 627 224 603 224 525 c 2
 224 131 l 2
 224 45 233 30 322 30 c 1
 322 0 l 1
326 726 m 1
 32 726 l 1
 32 779 l 1
 326 779 l 1
 326 726 l 1
EndSplineSet
Substitution2: "'c2sc' Capitals to Small Capitals in Latin lookup 5 subtable" Imacron.c2sc
EndChar

StartChar: Ibreve
Encoding: 300 300 114
Width: 357
GlyphClass: 2
Flags: MW
HStem: 0 30<34 79 277.5 322 34 79> 627 30<34 81.5 274.5 322> 712 64<146 212.5 146 225.5>
VStem: 31 30<865 865> 133 91<131 525>
AnchorPoint: "Anchor-5" 167 0 basechar 0
AnchorPoint: "Anchor-4" 180 0 basechar 0
AnchorPoint: "Anchor-2" 179 0 basechar 0
AnchorPoint: "Anchor-1" 179 865 basechar 0
LayerCount: 2
Fore
SplineSet
322 0 m 1
 34 0 l 1
 34 30 l 1
 124 30 133 45 133 131 c 2
 133 525 l 2
 133 603 129 627 34 627 c 1
 34 657 l 1
 322 657 l 1
 322 627 l 1
 227 627 224 603 224 525 c 2
 224 131 l 2
 224 45 233 30 322 30 c 1
 322 0 l 1
179 712 m 0
 87 712 35 761 31 865 c 1
 61 865 l 1
 80 793 113 776 179 776 c 0
 246 776 273 793 298 865 c 1
 327 865 l 1
 316 761 272 712 179 712 c 0
EndSplineSet
Substitution2: "'c2sc' Capitals to Small Capitals in Latin lookup 5 subtable" Ibreve.c2sc
EndChar

StartChar: Idotaccent
Encoding: 304 304 115
Width: 357
GlyphClass: 2
Flags: MW
HStem: 0 30<34 79 277.5 322 34 79> 627 30<34 81.5 274.5 322> 705 112<162.5 196.5>
VStem: 123 113<746 776> 133 91<131 525>
AnchorPoint: "Anchor-5" 167 0 basechar 0
AnchorPoint: "Anchor-4" 180 0 basechar 0
AnchorPoint: "Anchor-2" 179 0 basechar 0
AnchorPoint: "Anchor-1" 179 817 basechar 0
LayerCount: 2
Fore
SplineSet
322 0 m 1xc8
 34 0 l 1
 34 30 l 1
 124 30 133 45 133 131 c 2
 133 525 l 2
 133 603 129 627 34 627 c 1
 34 657 l 1
 322 657 l 1
 322 627 l 1
 227 627 224 603 224 525 c 2
 224 131 l 2
 224 45 233 30 322 30 c 1
 322 0 l 1xc8
179 705 m 0xf0
 146 705 123 731 123 761 c 0
 123 791 145 817 179 817 c 0
 214 817 236 791 236 761 c 0
 236 731 214 705 179 705 c 0xf0
EndSplineSet
Substitution2: "'c2sc' Capitals to Small Capitals in Latin lookup 5 subtable" Idotaccent.c2sc
EndChar

StartChar: uni1EC8
Encoding: 7880 7880 116
Width: 357
GlyphClass: 2
Flags: MW
HStem: 0 30<34 79 277.5 322 34 79> 627 30<34 81.5 274.5 322> 870 29<168 198.5>
VStem: 133 91<131 525> 156 41<698 737 698 754> 221 62<801.5 842 790.5 844>
AnchorPoint: "Anchor-5" 167 0 basechar 0
AnchorPoint: "Anchor-4" 180 0 basechar 0
AnchorPoint: "Anchor-2" 179 0 basechar 0
AnchorPoint: "Anchor-0" 179 657 basechar 0
LayerCount: 2
Fore
SplineSet
322 0 m 1xf0
 34 0 l 1
 34 30 l 1
 124 30 133 45 133 131 c 2
 133 525 l 2
 133 603 129 627 34 627 c 1
 34 657 l 1
 322 657 l 1
 322 627 l 1
 227 627 224 603 224 525 c 2
 224 131 l 2
 224 45 233 30 322 30 c 1
 322 0 l 1xf0
197 698 m 1xe8
 156 698 l 1
 156 754 l 1xe8
 207 755 221 780 221 823 c 0
 221 865 206 870 191 870 c 0
 145 870 161 823 128 823 c 0
 111 823 101 835 101 851 c 0
 101 883 146 899 190 899 c 0
 254 899 283 863 283 821 c 0xe4
 283 760 228 742 197 737 c 1
 197 698 l 1xe8
EndSplineSet
Substitution2: "'c2sc' Capitals to Small Capitals in Latin lookup 5 subtable" uni1EC8.c2sc
EndChar

StartChar: uni1E2C
Encoding: 7724 7724 117
Width: 357
GlyphClass: 2
Flags: MW
HStem: -156 59<227 257> -113 59<90 120> 0 30<34 79 277.5 322 34 79> 627 30<34 81.5 274.5 322>
VStem: 133 91<131 525>
AnchorPoint: "Anchor-5" 167 0 basechar 0
AnchorPoint: "Anchor-4" 180 0 basechar 0
AnchorPoint: "Anchor-3" 180 -156 basechar 0
AnchorPoint: "Anchor-0" 179 657 basechar 0
LayerCount: 2
Fore
SplineSet
322 0 m 1xb8
 34 0 l 1
 34 30 l 1
 124 30 133 45 133 131 c 2
 133 525 l 2
 133 603 129 627 34 627 c 1
 34 657 l 1
 322 657 l 1
 322 627 l 1
 227 627 224 603 224 525 c 2
 224 131 l 2
 224 45 233 30 322 30 c 1
 322 0 l 1xb8
41 -159 m 1x78
 14 -159 l 1x78
 25 -92 65 -54 115 -54 c 0
 173 -54 203 -97 251 -97 c 0
 274 -97 297 -88 309 -50 c 1
 335 -50 l 1xb8
 320 -127 285 -156 229 -156 c 0
 174 -156 144 -113 96 -113 c 0
 72 -113 50 -123 41 -159 c 1x78
EndSplineSet
Substitution2: "'c2sc' Capitals to Small Capitals in Latin lookup 5 subtable" uni1E2C.c2sc
EndChar

StartChar: uni1ECA
Encoding: 7882 7882 118
Width: 357
GlyphClass: 2
Flags: MW
HStem: -181 113<163 197.5> 0 30<34 79 277.5 322 34 79> 627 30<34 81.5 274.5 322>
VStem: 123 114<-139.5 -109> 133 91<131 525>
AnchorPoint: "Anchor-5" 167 0 basechar 0
AnchorPoint: "Anchor-4" 180 0 basechar 0
AnchorPoint: "Anchor-3" 180 -181 basechar 0
AnchorPoint: "Anchor-0" 179 657 basechar 0
LayerCount: 2
Fore
SplineSet
322 0 m 1x68
 34 0 l 1
 34 30 l 1
 124 30 133 45 133 131 c 2
 133 525 l 2
 133 603 129 627 34 627 c 1
 34 657 l 1
 322 657 l 1
 322 627 l 1
 227 627 224 603 224 525 c 2
 224 131 l 2
 224 45 233 30 322 30 c 1
 322 0 l 1x68
180 -181 m 0xf0
 146 -181 123 -155 123 -124 c 0
 123 -94 145 -68 180 -68 c 0
 215 -68 237 -94 237 -124 c 0
 237 -155 215 -181 180 -181 c 0xf0
EndSplineSet
Substitution2: "'c2sc' Capitals to Small Capitals in Latin lookup 5 subtable" uni1ECA.c2sc
EndChar

StartChar: Iogonek
Encoding: 302 302 119
Width: 357
GlyphClass: 2
Flags: MW
HStem: -216 51<188.5 204.5> 0 30<34 79.5 34 183 34 79.5 278 322> 627 30<34 81.5 274.5 322>
VStem: 86 67<-128.5 -105> 133 91<131 525>
AnchorPoint: "Anchor-5" 186 -250 basechar 0
AnchorPoint: "Anchor-4" 179 -250 basechar 0
AnchorPoint: "Anchor-3" 179 -250 basechar 0
AnchorPoint: "Anchor-0" 179 657 basechar 0
LayerCount: 2
Fore
SplineSet
175 -216 m 0xf0
 122 -216 86 -184 86 -134 c 0
 86 -76 145 -31 183 -2 c 1
 183 0 l 1
 34 0 l 1xf0
 34 30 l 1
 125 30 133 43 133 131 c 2
 133 525 l 2
 133 603 129 627 34 627 c 1
 34 657 l 1
 322 657 l 1
 322 627 l 1
 227 627 224 603 224 525 c 2
 224 131 l 2
 224 47 234 30 322 30 c 1
 322 0 l 1xe8
 229 0 l 1
 194 -26 153 -58 153 -110 c 0
 153 -147 173 -165 204 -165 c 0
 241 -165 259 -156 288 -134 c 1
 302 -151 l 1
 264 -190 234 -216 175 -216 c 0xf0
EndSplineSet
Substitution2: "'c2sc' Capitals to Small Capitals in Latin lookup 5 subtable" Iogonek.c2sc
EndChar

StartChar: Jcircumflex
Encoding: 308 308 120
Width: 396
GlyphClass: 2
Flags: MW
HStem: -12 35<121 163.5 121 166.5> 627 30<93 140.5 333.5 375> 698 138<91 275 91 275 203 345 203 385> 779 57<238 238>
VStem: 191 92<123 152 152 525>
AnchorPoint: "Anchor-5" 134 0 basechar 0
AnchorPoint: "Anchor-4" 147 0 basechar 0
AnchorPoint: "Anchor-2" 143 0 basechar 0
AnchorPoint: "Anchor-1" 238 836 basechar 0
LayerCount: 2
Fore
SplineSet
119 -12 m 0xe8
 54 -12 0 13 0 67 c 0
 0 97 16 116 44 116 c 0
 103 116 98 23 144 23 c 0
 183 23 191 53 191 123 c 2
 191 525 l 2
 191 603 188 627 93 627 c 1
 93 657 l 1
 375 657 l 1
 375 627 l 1
 292 627 283 603 283 525 c 2
 283 152 l 2
 283 20 214 -12 119 -12 c 0xe8
133 698 m 1
 91 698 l 1
 203 836 l 1
 275 836 l 1
 385 698 l 1
 345 698 l 1xe8
 238 779 l 1xd8
 133 698 l 1
EndSplineSet
Substitution2: "'c2sc' Capitals to Small Capitals in Latin lookup 5 subtable" Jcircumflex.c2sc
EndChar

StartChar: uni1E30
Encoding: 7728 7728 121
Width: 702
GlyphClass: 2
Flags: MW
HStem: 0 30<34 79.5 278 322 34 79.5 407 427 427 441 671.5 696> 311 26<224 229 224 233 224 229> 627 30<34 81.5 274.5 322 408 424> 698 128<257 462 257 462> 805 21<362 462>
VStem: 133 91<131 311 337 525>
AnchorPoint: "Anchor-5" 573 0 basechar 0
AnchorPoint: "Anchor-4" 353 0 basechar 0
AnchorPoint: "Anchor-2" 353 0 basechar 0
AnchorPoint: "Anchor-1" 353 826 basechar 0
LayerCount: 2
Fore
SplineSet
322 0 m 1xec
 34 0 l 1
 34 30 l 1
 125 30 133 43 133 131 c 2
 133 525 l 2
 133 603 129 627 34 627 c 1
 34 657 l 1
 322 657 l 1
 322 627 l 1
 227 627 224 603 224 525 c 2
 224 337 l 1
 229 337 l 1
 391 495 l 2
 437 539 462 566 462 596 c 0
 462 617 452 627 424 627 c 2
 408 627 l 1
 408 657 l 1
 653 657 l 1
 653 627 l 1
 596 624 576 608 522 558 c 2
 305 355 l 1
 592 73 l 2
 625 42 647 30 696 30 c 1
 696 0 l 1
 407 0 l 1
 407 30 l 1
 427 30 l 2
 455 30 466 35 466 50 c 0
 466 83 422 124 321 223 c 2
 233 311 l 1
 224 311 l 1
 224 131 l 2
 224 47 234 30 322 30 c 1
 322 0 l 1xec
303 698 m 1xf4
 257 698 l 1xf4
 362 826 l 1
 462 826 l 1
 462 805 l 1xec
 303 698 l 1xf4
EndSplineSet
Substitution2: "'c2sc' Capitals to Small Capitals in Latin lookup 5 subtable" uni1E30.c2sc
EndChar

StartChar: uni1E34
Encoding: 7732 7732 122
Width: 702
GlyphClass: 2
Flags: MW
HStem: -141 55<208 498 208 498> 0 30<34 79.5 278 322 34 79.5 407 427 427 441 671.5 696> 311 26<224 229 224 233 224 229> 627 30<34 81.5 274.5 322 408 424>
VStem: 133 91<131 311 337 525> 407 91
AnchorPoint: "Anchor-5" 573 0 basechar 0
AnchorPoint: "Anchor-4" 353 0 basechar 0
AnchorPoint: "Anchor-3" 353 -141 basechar 0
AnchorPoint: "Anchor-0" 353 657 basechar 0
LayerCount: 2
Fore
SplineSet
322 0 m 1
 34 0 l 1
 34 30 l 1
 125 30 133 43 133 131 c 2
 133 525 l 2
 133 603 129 627 34 627 c 1
 34 657 l 1
 322 657 l 1
 322 627 l 1
 227 627 224 603 224 525 c 2
 224 337 l 1
 229 337 l 1
 391 495 l 2
 437 539 462 566 462 596 c 0
 462 617 452 627 424 627 c 2
 408 627 l 1
 408 657 l 1
 653 657 l 1
 653 627 l 1
 596 624 576 608 522 558 c 2
 305 355 l 1
 592 73 l 2
 625 42 647 30 696 30 c 1
 696 0 l 1
 407 0 l 1
 407 30 l 1
 427 30 l 2
 455 30 466 35 466 50 c 0
 466 83 422 124 321 223 c 2
 233 311 l 1
 224 311 l 1
 224 131 l 2
 224 47 234 30 322 30 c 1
 322 0 l 1
498 -141 m 1
 208 -141 l 1
 208 -86 l 1
 498 -86 l 1
 498 -141 l 1
EndSplineSet
Substitution2: "'c2sc' Capitals to Small Capitals in Latin lookup 5 subtable" uni1E34.c2sc
EndChar

StartChar: uni1E32
Encoding: 7730 7730 123
Width: 702
GlyphClass: 2
Flags: MW
HStem: -181 113<336 370.5> 0 30<34 79.5 278 322 34 79.5 407 427 427 441 671.5 696> 311 26<224 229 224 233 224 229> 627 30<34 81.5 274.5 322 408 424>
VStem: 133 91<131 311 337 525> 296 114<-139.5 -109>
AnchorPoint: "Anchor-5" 573 0 basechar 0
AnchorPoint: "Anchor-4" 353 0 basechar 0
AnchorPoint: "Anchor-3" 353 -181 basechar 0
AnchorPoint: "Anchor-0" 353 657 basechar 0
LayerCount: 2
Fore
SplineSet
322 0 m 1
 34 0 l 1
 34 30 l 1
 125 30 133 43 133 131 c 2
 133 525 l 2
 133 603 129 627 34 627 c 1
 34 657 l 1
 322 657 l 1
 322 627 l 1
 227 627 224 603 224 525 c 2
 224 337 l 1
 229 337 l 1
 391 495 l 2
 437 539 462 566 462 596 c 0
 462 617 452 627 424 627 c 2
 408 627 l 1
 408 657 l 1
 653 657 l 1
 653 627 l 1
 596 624 576 608 522 558 c 2
 305 355 l 1
 592 73 l 2
 625 42 647 30 696 30 c 1
 696 0 l 1
 407 0 l 1
 407 30 l 1
 427 30 l 2
 455 30 466 35 466 50 c 0
 466 83 422 124 321 223 c 2
 233 311 l 1
 224 311 l 1
 224 131 l 2
 224 47 234 30 322 30 c 1
 322 0 l 1
353 -181 m 0
 319 -181 296 -155 296 -124 c 0
 296 -94 318 -68 353 -68 c 0
 388 -68 410 -94 410 -124 c 0
 410 -155 388 -181 353 -181 c 0
EndSplineSet
Substitution2: "'c2sc' Capitals to Small Capitals in Latin lookup 5 subtable" uni1E32.c2sc
EndChar

StartChar: Kcommaaccent
Encoding: 310 310 124
Width: 702
GlyphClass: 2
Flags: MW
HStem: -162 109<330 345> 0 30<34 79.5 278 322 34 79.5 407 427 427 441 671.5 696> 311 26<224 229 224 233 224 229> 627 30<34 81.5 274.5 322 408 424>
VStem: 133 91<131 311 337 525> 371 50<-185 -156>
AnchorPoint: "Anchor-5" 573 0 basechar 0
AnchorPoint: "Anchor-4" 353 0 basechar 0
AnchorPoint: "Anchor-3" 353 -277 basechar 0
AnchorPoint: "Anchor-0" 353 657 basechar 0
LayerCount: 2
Fore
SplineSet
322 0 m 1
 34 0 l 1
 34 30 l 1
 125 30 133 43 133 131 c 2
 133 525 l 2
 133 603 129 627 34 627 c 1
 34 657 l 1
 322 657 l 1
 322 627 l 1
 227 627 224 603 224 525 c 2
 224 337 l 1
 229 337 l 1
 391 495 l 2
 437 539 462 566 462 596 c 0
 462 617 452 627 424 627 c 2
 408 627 l 1
 408 657 l 1
 653 657 l 1
 653 627 l 1
 596 624 576 608 522 558 c 2
 305 355 l 1
 592 73 l 2
 625 42 647 30 696 30 c 1
 696 0 l 1
 407 0 l 1
 407 30 l 1
 427 30 l 2
 455 30 466 35 466 50 c 0
 466 83 422 124 321 223 c 2
 233 311 l 1
 224 311 l 1
 224 131 l 2
 224 47 234 30 322 30 c 1
 322 0 l 1
303 -277 m 1
 293 -252 l 1
 329 -239 371 -214 371 -156 c 1
 360 -160 350 -162 340 -162 c 0
 311 -162 290 -143 290 -110 c 0
 290 -78 309 -53 351 -53 c 0
 399 -53 421 -86 421 -138 c 0
 421 -235 344 -263 303 -277 c 1
EndSplineSet
Substitution2: "'c2sc' Capitals to Small Capitals in Latin lookup 5 subtable" Kcommaaccent.c2sc
EndChar

StartChar: Lacute
Encoding: 313 313 125
Width: 585
GlyphClass: 2
Flags: MW
HStem: 0 30<42 82 42 538 42 82> 0 42<301 347 347 414> 627 30<42 82 282.5 323> 698 128<124 329 124 329> 805 21<229 329>
VStem: 133 92<123 529>
AnchorPoint: "Anchor-5" 412 0 basechar 0
AnchorPoint: "Anchor-4" 291 0 basechar 0
AnchorPoint: "Anchor-2" 291 0 basechar 0
AnchorPoint: "Anchor-1" 220 826 basechar 0
LayerCount: 2
Fore
SplineSet
538 0 m 1x6c
 42 0 l 1x74
 42 30 l 1
 122 30 133 45 133 123 c 2xac
 133 530 l 2
 133 607 122 627 42 627 c 1
 42 657 l 1
 323 657 l 1
 323 627 l 1
 242 627 225 607 225 529 c 2
 225 95 l 2
 225 51 242 42 301 42 c 2
 347 42 l 2
 481 42 497 79 536 195 c 1
 568 195 l 1
 538 0 l 1x6c
170 698 m 1
 124 698 l 1x74
 229 826 l 1
 329 826 l 1
 329 805 l 1x6c
 170 698 l 1
EndSplineSet
Substitution2: "'c2sc' Capitals to Small Capitals in Latin lookup 5 subtable" Lacute.c2sc
EndChar

StartChar: Lcaron
Encoding: 317 317 126
Width: 585
GlyphClass: 2
Flags: MW
HStem: 0 30<42 82 42 538 42 82> 0 42<301 347 347 414> 627 30<42 82 282.5 323>
VStem: 133 92<123 529> 421 88
AnchorPoint: "Anchor-5" 412 0 basechar 0
AnchorPoint: "Anchor-4" 291 0 basechar 0
AnchorPoint: "Anchor-2" 291 0 basechar 0
AnchorPoint: "Anchor-0" 182 657 basechar 0
LayerCount: 2
Fore
SplineSet
538 0 m 1x70
 42 0 l 1x78
 42 30 l 1
 122 30 133 45 133 123 c 2xb0
 133 530 l 2
 133 607 122 627 42 627 c 1
 42 657 l 1
 323 657 l 1
 323 627 l 1
 242 627 225 607 225 529 c 2
 225 95 l 2
 225 51 242 42 301 42 c 2
 347 42 l 2
 481 42 497 79 536 195 c 1
 568 195 l 1
 538 0 l 1x70
445 459 m 1
 415 463 l 1
 427 657 l 1
 509 657 l 1
 509 639 l 1
 505 583 477 510 445 459 c 1
EndSplineSet
Substitution2: "'c2sc' Capitals to Small Capitals in Latin lookup 5 subtable" Lcaron.c2sc
EndChar

StartChar: uni1E38
Encoding: 7736 7736 127
Width: 585
GlyphClass: 2
Flags: MW
HStem: -181 113<274 308.5> 0 30<42 82 42 538 42 82> 0 42<301 347 347 414> 627 30<42 82 282.5 323> 726 53<35 329 35 329>
VStem: 133 92<123 529> 234 114<-139.5 -109>
AnchorPoint: "Anchor-5" 412 0 basechar 0
AnchorPoint: "Anchor-4" 291 0 basechar 0
AnchorPoint: "Anchor-3" 291 -181 basechar 0
AnchorPoint: "Anchor-1" 182 779 basechar 0
LayerCount: 2
Fore
SplineSet
538 0 m 1x3c
 42 0 l 1xbe
 42 30 l 1
 122 30 133 45 133 123 c 2x5c
 133 530 l 2
 133 607 122 627 42 627 c 1
 42 657 l 1
 323 657 l 1
 323 627 l 1
 242 627 225 607 225 529 c 2
 225 95 l 2
 225 51 242 42 301 42 c 2
 347 42 l 2
 481 42 497 79 536 195 c 1
 568 195 l 1
 538 0 l 1x3c
329 726 m 1
 35 726 l 1
 35 779 l 1
 329 779 l 1
 329 726 l 1
291 -181 m 0
 257 -181 234 -155 234 -124 c 0
 234 -94 256 -68 291 -68 c 0
 326 -68 348 -94 348 -124 c 0
 348 -155 326 -181 291 -181 c 0
EndSplineSet
Substitution2: "'c2sc' Capitals to Small Capitals in Latin lookup 5 subtable" uni1E38.c2sc
EndChar

StartChar: uni1E3C
Encoding: 7740 7740 128
Width: 585
GlyphClass: 2
Flags: MW
HStem: -203 153<150 324 150 324 258 394 258 432> -105 55<291 291> 0 30<42 82 42 538 42 82> 0 42<301 347 347 414> 627 30<42 82 282.5 323>
VStem: 133 92<123 529>
AnchorPoint: "Anchor-5" 412 0 basechar 0
AnchorPoint: "Anchor-4" 291 0 basechar 0
AnchorPoint: "Anchor-3" 291 -203 basechar 0
AnchorPoint: "Anchor-0" 182 657 basechar 0
LayerCount: 2
Fore
SplineSet
538 0 m 1x1c
 42 0 l 1x9c
 42 30 l 1
 122 30 133 45 133 123 c 2x2c
 133 530 l 2
 133 607 122 627 42 627 c 1
 42 657 l 1
 323 657 l 1
 323 627 l 1
 242 627 225 607 225 529 c 2
 225 95 l 2
 225 51 242 42 301 42 c 2
 347 42 l 2
 481 42 497 79 536 195 c 1
 568 195 l 1
 538 0 l 1x1c
189 -203 m 1
 150 -203 l 1
 258 -50 l 1
 324 -50 l 1
 432 -203 l 1
 394 -203 l 1x9c
 291 -105 l 1x5c
 189 -203 l 1
EndSplineSet
Substitution2: "'c2sc' Capitals to Small Capitals in Latin lookup 5 subtable" uni1E3C.c2sc
EndChar

StartChar: uni1E3A
Encoding: 7738 7738 129
Width: 585
GlyphClass: 2
Flags: MW
HStem: -141 55<146 436 146 436> 0 30<42 82 42 538 42 82> 0 42<301 347 347 414> 627 30<42 82 282.5 323>
VStem: 133 92<123 529>
AnchorPoint: "Anchor-5" 412 0 basechar 0
AnchorPoint: "Anchor-4" 291 0 basechar 0
AnchorPoint: "Anchor-3" 291 -141 basechar 0
AnchorPoint: "Anchor-0" 182 657 basechar 0
LayerCount: 2
Fore
SplineSet
538 0 m 1xb8
 42 0 l 1xb8
 42 30 l 1
 122 30 133 45 133 123 c 2xd8
 133 530 l 2
 133 607 122 627 42 627 c 1
 42 657 l 1
 323 657 l 1
 323 627 l 1
 242 627 225 607 225 529 c 2
 225 95 l 2
 225 51 242 42 301 42 c 2
 347 42 l 2
 481 42 497 79 536 195 c 1
 568 195 l 1
 538 0 l 1xb8
436 -141 m 1
 146 -141 l 1
 146 -86 l 1
 436 -86 l 1
 436 -141 l 1
EndSplineSet
Substitution2: "'c2sc' Capitals to Small Capitals in Latin lookup 5 subtable" uni1E3A.c2sc
EndChar

StartChar: uni1E36
Encoding: 7734 7734 130
Width: 585
GlyphClass: 2
Flags: MW
HStem: -181 113<274 308.5> 0 30<42 82 42 538 42 82> 0 42<301 347 347 414> 627 30<42 82 282.5 323>
VStem: 133 92<123 529> 234 114<-139.5 -109>
AnchorPoint: "Anchor-5" 412 0 basechar 0
AnchorPoint: "Anchor-4" 291 0 basechar 0
AnchorPoint: "Anchor-3" 291 -181 basechar 0
AnchorPoint: "Anchor-0" 182 657 basechar 0
LayerCount: 2
Fore
SplineSet
538 0 m 1x38
 42 0 l 1xbc
 42 30 l 1
 122 30 133 45 133 123 c 2x58
 133 530 l 2
 133 607 122 627 42 627 c 1
 42 657 l 1
 323 657 l 1
 323 627 l 1
 242 627 225 607 225 529 c 2
 225 95 l 2
 225 51 242 42 301 42 c 2
 347 42 l 2
 481 42 497 79 536 195 c 1
 568 195 l 1
 538 0 l 1x38
291 -181 m 0
 257 -181 234 -155 234 -124 c 0
 234 -94 256 -68 291 -68 c 0
 326 -68 348 -94 348 -124 c 0
 348 -155 326 -181 291 -181 c 0
EndSplineSet
Substitution2: "'c2sc' Capitals to Small Capitals in Latin lookup 5 subtable" uni1E36.c2sc
EndChar

StartChar: Lcommaaccent
Encoding: 315 315 131
Width: 585
GlyphClass: 2
Flags: MW
HStem: -162 109<268 283> 0 30<42 82 42 538 42 82> 0 42<301 347 347 414> 627 30<42 82 282.5 323>
VStem: 133 92<123 529> 309 50<-185 -156>
AnchorPoint: "Anchor-5" 412 0 basechar 0
AnchorPoint: "Anchor-4" 291 0 basechar 0
AnchorPoint: "Anchor-3" 291 -277 basechar 0
AnchorPoint: "Anchor-0" 182 657 basechar 0
LayerCount: 2
Fore
SplineSet
538 0 m 1x3c
 42 0 l 1xbc
 42 30 l 1
 122 30 133 45 133 123 c 2x5c
 133 530 l 2
 133 607 122 627 42 627 c 1
 42 657 l 1
 323 657 l 1
 323 627 l 1
 242 627 225 607 225 529 c 2
 225 95 l 2
 225 51 242 42 301 42 c 2
 347 42 l 2
 481 42 497 79 536 195 c 1
 568 195 l 1
 538 0 l 1x3c
241 -277 m 1
 231 -252 l 1
 267 -239 309 -214 309 -156 c 1
 298 -160 288 -162 278 -162 c 0
 249 -162 228 -143 228 -110 c 0
 228 -78 247 -53 289 -53 c 0
 337 -53 359 -86 359 -138 c 0
 359 -235 282 -263 241 -277 c 1
EndSplineSet
Substitution2: "'c2sc' Capitals to Small Capitals in Latin lookup 5 subtable" Lcommaaccent.c2sc
EndChar

StartChar: Ldot
Encoding: 319 319 132
Width: 605
GlyphClass: 2
Flags: MW
HStem: 0 30<42 82 42 538 42 82> 0 42<301 347 347 414> 302 113<465 499.5> 627 30<42 82 282.5 323>
VStem: 133 92<123 529> 425 114<343.5 374>
AnchorPoint: "Anchor-5" 412 0 basechar 0
AnchorPoint: "Anchor-4" 291 0 basechar 0
AnchorPoint: "Anchor-2" 291 0 basechar 0
AnchorPoint: "Anchor-1" 482 415 basechar 0
LayerCount: 2
Fore
SplineSet
538 0 m 1x58
 42 0 l 1x7c
 42 30 l 1
 122 30 133 45 133 123 c 2x98
 133 530 l 2
 133 607 122 627 42 627 c 1
 42 657 l 1
 323 657 l 1
 323 627 l 1
 242 627 225 607 225 529 c 2
 225 95 l 2
 225 51 242 42 301 42 c 2
 347 42 l 2
 481 42 497 79 536 195 c 1
 568 195 l 1
 538 0 l 1x58
482 302 m 0
 448 302 425 328 425 359 c 0
 425 389 447 415 482 415 c 0
 517 415 539 389 539 359 c 0
 539 328 517 302 482 302 c 0
EndSplineSet
Substitution2: "'c2sc' Capitals to Small Capitals in Latin lookup 5 subtable" Ldot.c2sc
EndChar

StartChar: Lslash
Encoding: 321 321 133
Width: 590
GlyphClass: 2
Flags: MW
HStem: 0 30<48 87.5 48 543 48 87.5> 0 42<306 353 353 420> 456 20G<389 389> 627 30<48 87.5 288 329>
VStem: 138 92<123 282 282 282 326 338 381 529>
AnchorPoint: "Anchor-5" 417 0 basechar 0
AnchorPoint: "Anchor-4" 298 0 basechar 0
AnchorPoint: "Anchor-2" 297 0 basechar 0
AnchorPoint: "Anchor-0" 188 657 basechar 0
LayerCount: 2
Fore
SplineSet
543 0 m 1x78
 48 0 l 1x78
 48 30 l 1
 127 30 138 45 138 123 c 2xb8
 138 282 l 1
 49 229 l 1
 31 262 l 1
 138 326 l 1
 138 530 l 2
 138 607 127 627 48 627 c 1
 48 657 l 1
 329 657 l 1
 329 627 l 1
 247 627 230 607 230 529 c 2
 230 381 l 1
 389 476 l 1
 407 445 l 1
 230 338 l 1
 230 95 l 2
 230 51 247 42 306 42 c 2
 353 42 l 2
 487 42 503 79 541 195 c 1
 573 195 l 1
 543 0 l 1x78
EndSplineSet
Substitution2: "'c2sc' Capitals to Small Capitals in Latin lookup 5 subtable" Lslash.c2sc
EndChar

StartChar: uni1E3E
Encoding: 7742 7742 134
Width: 895
GlyphClass: 2
Flags: MW
HStem: 0 30<28 68.5 225 263 28 68.5 584 622.5 814 850> 627 30<30 69.5 813.5 849> 698 128<340 545 340 545> 805 21<445 545>
VStem: 123 49<146 535 535 549> 673 89<119 536>
AnchorPoint: "Anchor-5" 721 0 basechar 0
AnchorPoint: "Anchor-4" 424 0 basechar 0
AnchorPoint: "Anchor-2" 424 0 basechar 0
AnchorPoint: "Anchor-1" 436 826 basechar 0
LayerCount: 2
Fore
SplineSet
263 0 m 1xdc
 28 0 l 1
 28 30 l 1
 109 30 123 43 123 146 c 2
 123 535 l 2
 123 610 109 627 30 627 c 1
 30 657 l 1
 234 657 l 1
 445 154 l 1
 449 154 l 1
 659 657 l 1
 849 657 l 1
 849 627 l 1
 778 627 762 610 762 536 c 2
 762 119 l 2
 762 46 778 30 850 30 c 1
 850 0 l 1
 584 0 l 1
 584 30 l 1
 661 30 673 46 673 119 c 2
 673 550 l 1
 669 550 l 1
 436 0 l 1
 412 0 l 1
 176 549 l 1
 172 549 l 1
 172 146 l 2
 172 43 187 30 263 30 c 1
 263 0 l 1xdc
386 698 m 1xec
 340 698 l 1xec
 445 826 l 1
 545 826 l 1
 545 805 l 1xdc
 386 698 l 1xec
EndSplineSet
Substitution2: "'c2sc' Capitals to Small Capitals in Latin lookup 5 subtable" uni1E3E.c2sc
EndChar

StartChar: uni1E40
Encoding: 7744 7744 135
Width: 895
GlyphClass: 2
Flags: MW
HStem: 0 30<28 68.5 225 263 28 68.5 584 622.5 814 850> 627 30<30 69.5 813.5 849> 705 112<419.5 453.5>
VStem: 123 49<146 535 535 549> 380 113<746 776> 673 89<119 536>
AnchorPoint: "Anchor-5" 721 0 basechar 0
AnchorPoint: "Anchor-4" 424 0 basechar 0
AnchorPoint: "Anchor-2" 424 0 basechar 0
AnchorPoint: "Anchor-1" 436 817 basechar 0
LayerCount: 2
Fore
SplineSet
263 0 m 1
 28 0 l 1
 28 30 l 1
 109 30 123 43 123 146 c 2
 123 535 l 2
 123 610 109 627 30 627 c 1
 30 657 l 1
 234 657 l 1
 445 154 l 1
 449 154 l 1
 659 657 l 1
 849 657 l 1
 849 627 l 1
 778 627 762 610 762 536 c 2
 762 119 l 2
 762 46 778 30 850 30 c 1
 850 0 l 1
 584 0 l 1
 584 30 l 1
 661 30 673 46 673 119 c 2
 673 550 l 1
 669 550 l 1
 436 0 l 1
 412 0 l 1
 176 549 l 1
 172 549 l 1
 172 146 l 2
 172 43 187 30 263 30 c 1
 263 0 l 1
436 705 m 0
 403 705 380 731 380 761 c 0
 380 791 402 817 436 817 c 0
 471 817 493 791 493 761 c 0
 493 731 471 705 436 705 c 0
EndSplineSet
Substitution2: "'c2sc' Capitals to Small Capitals in Latin lookup 5 subtable" uni1E40.c2sc
EndChar

StartChar: uni1E42
Encoding: 7746 7746 136
Width: 895
GlyphClass: 2
Flags: MW
HStem: -181 113<407 441.5> 0 30<28 68.5 225 263 28 68.5 584 622.5 814 850> 627 30<30 69.5 813.5 849>
VStem: 123 49<146 535 535 549> 367 114<-139.5 -109> 673 89<119 536>
AnchorPoint: "Anchor-5" 721 0 basechar 0
AnchorPoint: "Anchor-4" 424 0 basechar 0
AnchorPoint: "Anchor-3" 424 -181 basechar 0
AnchorPoint: "Anchor-0" 436 657 basechar 0
LayerCount: 2
Fore
SplineSet
263 0 m 1
 28 0 l 1
 28 30 l 1
 109 30 123 43 123 146 c 2
 123 535 l 2
 123 610 109 627 30 627 c 1
 30 657 l 1
 234 657 l 1
 445 154 l 1
 449 154 l 1
 659 657 l 1
 849 657 l 1
 849 627 l 1
 778 627 762 610 762 536 c 2
 762 119 l 2
 762 46 778 30 850 30 c 1
 850 0 l 1
 584 0 l 1
 584 30 l 1
 661 30 673 46 673 119 c 2
 673 550 l 1
 669 550 l 1
 436 0 l 1
 412 0 l 1
 176 549 l 1
 172 549 l 1
 172 146 l 2
 172 43 187 30 263 30 c 1
 263 0 l 1
424 -181 m 0
 390 -181 367 -155 367 -124 c 0
 367 -94 389 -68 424 -68 c 0
 459 -68 481 -94 481 -124 c 0
 481 -155 459 -181 424 -181 c 0
EndSplineSet
Substitution2: "'c2sc' Capitals to Small Capitals in Latin lookup 5 subtable" uni1E42.c2sc
EndChar

StartChar: Nacute
Encoding: 323 323 137
Width: 742
GlyphClass: 2
Flags: MW
HStem: -8 21G<591 624 591 591> 0 30<29 68.5 225.5 263 29 68.5> 627 30<29 50 479 522 676.5 715> 698 128<283 488 283 488> 805 21<388 488>
VStem: 123 49<149 527> 574 50<174 493>
AnchorPoint: "Anchor-5" 357 0 basechar 0
AnchorPoint: "Anchor-4" 358 0 basechar 0
AnchorPoint: "Anchor-2" 357 0 basechar 0
AnchorPoint: "Anchor-1" 379 826 basechar 0
LayerCount: 2
Fore
SplineSet
624 -8 m 1xae
 591 -8 l 1xb6
 177 527 l 1
 172 527 l 1
 172 149 l 2
 172 49 188 30 263 30 c 1
 263 0 l 1
 29 0 l 1
 29 30 l 1x6e
 108 30 123 48 123 149 c 2
 123 576 l 1
 90 618 71 627 29 627 c 1
 29 657 l 1
 199 657 l 1
 569 174 l 1
 574 174 l 1
 574 498 l 2
 574 591 565 627 479 627 c 1
 479 657 l 1
 715 657 l 1
 715 627 l 1
 638 627 624 588 624 493 c 2
 624 -8 l 1xae
329 698 m 1
 283 698 l 1x76
 388 826 l 1
 488 826 l 1
 488 805 l 1x6e
 329 698 l 1
EndSplineSet
Substitution2: "'c2sc' Capitals to Small Capitals in Latin lookup 5 subtable" Nacute.c2sc
EndChar

StartChar: Ncaron
Encoding: 327 327 138
Width: 742
GlyphClass: 2
Flags: MW
HStem: -8 21G<591 624 591 591> 0 30<29 68.5 225.5 263 29 68.5> 627 30<29 50 479 522 676.5 715> 698 57<380 380 380 415 344 380> 698 138<232 415 232 344>
VStem: 123 49<149 527> 574 50<174 493>
AnchorPoint: "Anchor-5" 357 0 basechar 0
AnchorPoint: "Anchor-4" 358 0 basechar 0
AnchorPoint: "Anchor-2" 357 0 basechar 0
AnchorPoint: "Anchor-1" 379 836 basechar 0
LayerCount: 2
Fore
SplineSet
624 -8 m 1xa6
 591 -8 l 1xae
 177 527 l 1
 172 527 l 1
 172 149 l 2
 172 49 188 30 263 30 c 1
 263 0 l 1
 29 0 l 1
 29 30 l 1x66
 108 30 123 48 123 149 c 2
 123 576 l 1
 90 618 71 627 29 627 c 1
 29 657 l 1
 199 657 l 1
 569 174 l 1
 574 174 l 1
 574 498 l 2
 574 591 565 627 479 627 c 1
 479 657 l 1
 715 657 l 1
 715 627 l 1
 638 627 624 588 624 493 c 2
 624 -8 l 1xa6
415 698 m 1
 344 698 l 1
 232 836 l 1
 274 836 l 1x6e
 380 755 l 1x76
 486 836 l 1
 526 836 l 1
 415 698 l 1
EndSplineSet
Substitution2: "'c2sc' Capitals to Small Capitals in Latin lookup 5 subtable" Ncaron.c2sc
EndChar

StartChar: Ntilde
Encoding: 209 209 139
Width: 742
GlyphClass: 2
Flags: MW
HStem: -8 21G<591 624 591 591> 0 30<29 68.5 225.5 263 29 68.5> 627 30<29 50 479 522 676.5 715> 714 61<438.5 468.5> 751 60<298 328.5>
VStem: 123 49<149 527> 574 50<174 493>
AnchorPoint: "Anchor-5" 357 0 basechar 0
AnchorPoint: "Anchor-4" 358 0 basechar 0
AnchorPoint: "Anchor-2" 357 0 basechar 0
AnchorPoint: "Anchor-1" 379 811 basechar 0
LayerCount: 2
Fore
SplineSet
624 -8 m 1xae
 591 -8 l 1xae
 177 527 l 1
 172 527 l 1
 172 149 l 2
 172 49 188 30 263 30 c 1
 263 0 l 1
 29 0 l 1
 29 30 l 1x6e
 108 30 123 48 123 149 c 2
 123 576 l 1
 90 618 71 627 29 627 c 1
 29 657 l 1
 199 657 l 1
 569 174 l 1
 574 174 l 1
 574 498 l 2
 574 591 565 627 479 627 c 1
 479 657 l 1
 715 657 l 1
 715 627 l 1
 638 627 624 588 624 493 c 2
 624 -8 l 1xae
247 712 m 1
 221 712 l 1
 233 776 273 811 323 811 c 0x6e
 383 811 415 775 462 775 c 0
 489 775 509 782 521 816 c 1
 547 816 l 1x76
 531 742 496 714 441 714 c 0
 383 714 353 751 304 751 c 0
 279 751 257 743 247 712 c 1
EndSplineSet
Substitution2: "'c2sc' Capitals to Small Capitals in Latin lookup 5 subtable" Ntilde.c2sc
EndChar

StartChar: uni1E44
Encoding: 7748 7748 140
Width: 742
GlyphClass: 2
Flags: MW
HStem: -8 21G<591 624 591 591> 0 30<29 68.5 225.5 263 29 68.5> 627 30<29 50 479 522 676.5 715> 705 112<359.5 393.5>
VStem: 123 49<149 527> 320 113<746 776> 574 50<174 493>
AnchorPoint: "Anchor-5" 357 0 basechar 0
AnchorPoint: "Anchor-4" 358 0 basechar 0
AnchorPoint: "Anchor-2" 357 0 basechar 0
AnchorPoint: "Anchor-1" 376 817 basechar 0
LayerCount: 2
Fore
SplineSet
624 -8 m 1xaa
 591 -8 l 1xbe
 177 527 l 1
 172 527 l 1
 172 149 l 2
 172 49 188 30 263 30 c 1
 263 0 l 1
 29 0 l 1
 29 30 l 1x6a
 108 30 123 48 123 149 c 2
 123 576 l 1
 90 618 71 627 29 627 c 1
 29 657 l 1
 199 657 l 1
 569 174 l 1
 574 174 l 1
 574 498 l 2
 574 591 565 627 479 627 c 1
 479 657 l 1
 715 657 l 1
 715 627 l 1
 638 627 624 588 624 493 c 2
 624 -8 l 1xaa
376 705 m 0
 343 705 320 731 320 761 c 0
 320 791 342 817 376 817 c 0
 411 817 433 791 433 761 c 0
 433 731 411 705 376 705 c 0
EndSplineSet
Substitution2: "'c2sc' Capitals to Small Capitals in Latin lookup 5 subtable" uni1E44.c2sc
EndChar

StartChar: uni1E4A
Encoding: 7754 7754 141
Width: 742
GlyphClass: 2
Flags: MW
HStem: -203 153<216 390 216 390 324 460 324 498> -105 55<357 357> -8 21G<591 624 591 591> 0 30<29 68.5 225.5 263 29 68.5> 627 30<29 50 479 522 676.5 715>
VStem: 123 49<149 527> 574 50<174 493>
AnchorPoint: "Anchor-5" 357 0 basechar 0
AnchorPoint: "Anchor-4" 358 0 basechar 0
AnchorPoint: "Anchor-3" 357 -203 basechar 0
AnchorPoint: "Anchor-0" 379 657 basechar 0
LayerCount: 2
Fore
SplineSet
624 -8 m 1x2e
 591 -8 l 1xae
 177 527 l 1
 172 527 l 1
 172 149 l 2
 172 49 188 30 263 30 c 1
 263 0 l 1
 29 0 l 1
 29 30 l 1x1e
 108 30 123 48 123 149 c 2
 123 576 l 1
 90 618 71 627 29 627 c 1
 29 657 l 1
 199 657 l 1
 569 174 l 1
 574 174 l 1
 574 498 l 2
 574 591 565 627 479 627 c 1
 479 657 l 1
 715 657 l 1
 715 627 l 1
 638 627 624 588 624 493 c 2
 624 -8 l 1x2e
255 -203 m 1
 216 -203 l 1
 324 -50 l 1
 390 -50 l 1
 498 -203 l 1
 460 -203 l 1x9e
 357 -105 l 1x5e
 255 -203 l 1
EndSplineSet
Substitution2: "'c2sc' Capitals to Small Capitals in Latin lookup 5 subtable" uni1E4A.c2sc
EndChar

StartChar: uni1E48
Encoding: 7752 7752 142
Width: 742
GlyphClass: 2
Flags: MW
HStem: -141 55<212 502 212 502> -8 21G<591 624 591 591> 0 30<29 68.5 225.5 263 29 68.5> 627 30<29 50 479 522 676.5 715>
VStem: 123 49<149 527> 574 50<174 493>
AnchorPoint: "Anchor-5" 357 0 basechar 0
AnchorPoint: "Anchor-4" 358 0 basechar 0
AnchorPoint: "Anchor-3" 357 -141 basechar 0
AnchorPoint: "Anchor-0" 379 657 basechar 0
LayerCount: 2
Fore
SplineSet
624 -8 m 1xdc
 591 -8 l 1xdc
 177 527 l 1
 172 527 l 1
 172 149 l 2
 172 49 188 30 263 30 c 1
 263 0 l 1
 29 0 l 1
 29 30 l 1xbc
 108 30 123 48 123 149 c 2
 123 576 l 1
 90 618 71 627 29 627 c 1
 29 657 l 1
 199 657 l 1
 569 174 l 1
 574 174 l 1
 574 498 l 2
 574 591 565 627 479 627 c 1
 479 657 l 1
 715 657 l 1
 715 627 l 1
 638 627 624 588 624 493 c 2
 624 -8 l 1xdc
502 -141 m 1
 212 -141 l 1
 212 -86 l 1
 502 -86 l 1
 502 -141 l 1
EndSplineSet
Substitution2: "'c2sc' Capitals to Small Capitals in Latin lookup 5 subtable" uni1E48.c2sc
EndChar

StartChar: uni1E46
Encoding: 7750 7750 143
Width: 742
GlyphClass: 2
Flags: MW
HStem: -181 113<340 374.5> -8 21G<591 624 591 591> 0 30<29 68.5 225.5 263 29 68.5> 627 30<29 50 479 522 676.5 715>
VStem: 123 49<149 527> 300 114<-139.5 -109> 574 50<174 493>
AnchorPoint: "Anchor-5" 357 0 basechar 0
AnchorPoint: "Anchor-4" 358 0 basechar 0
AnchorPoint: "Anchor-3" 357 -181 basechar 0
AnchorPoint: "Anchor-0" 379 657 basechar 0
LayerCount: 2
Fore
SplineSet
624 -8 m 1x5a
 591 -8 l 1xde
 177 527 l 1
 172 527 l 1
 172 149 l 2
 172 49 188 30 263 30 c 1
 263 0 l 1
 29 0 l 1
 29 30 l 1x3a
 108 30 123 48 123 149 c 2
 123 576 l 1
 90 618 71 627 29 627 c 1
 29 657 l 1
 199 657 l 1
 569 174 l 1
 574 174 l 1
 574 498 l 2
 574 591 565 627 479 627 c 1
 479 657 l 1
 715 657 l 1
 715 627 l 1
 638 627 624 588 624 493 c 2
 624 -8 l 1x5a
357 -181 m 0
 323 -181 300 -155 300 -124 c 0
 300 -94 322 -68 357 -68 c 0
 392 -68 414 -94 414 -124 c 0
 414 -155 392 -181 357 -181 c 0
EndSplineSet
Substitution2: "'c2sc' Capitals to Small Capitals in Latin lookup 5 subtable" uni1E46.c2sc
EndChar

StartChar: Ncommaaccent
Encoding: 325 325 144
Width: 742
GlyphClass: 2
Flags: MW
HStem: -162 109<337 352> -8 21G<591 624 591 591> 0 30<29 68.5 225.5 263 29 68.5> 627 30<29 50 479 522 676.5 715>
VStem: 123 49<149 527> 378 50<-185 -156> 574 50<174 493>
AnchorPoint: "Anchor-5" 357 0 basechar 0
AnchorPoint: "Anchor-4" 358 0 basechar 0
AnchorPoint: "Anchor-3" 360 -277 basechar 0
AnchorPoint: "Anchor-0" 379 657 basechar 0
LayerCount: 2
Fore
SplineSet
624 -8 m 1x5e
 591 -8 l 1xde
 177 527 l 1
 172 527 l 1
 172 149 l 2
 172 49 188 30 263 30 c 1
 263 0 l 1
 29 0 l 1
 29 30 l 1x3e
 108 30 123 48 123 149 c 2
 123 576 l 1
 90 618 71 627 29 627 c 1
 29 657 l 1
 199 657 l 1
 569 174 l 1
 574 174 l 1
 574 498 l 2
 574 591 565 627 479 627 c 1
 479 657 l 1
 715 657 l 1
 715 627 l 1
 638 627 624 588 624 493 c 2
 624 -8 l 1x5e
310 -277 m 1
 300 -252 l 1
 336 -239 378 -214 378 -156 c 1
 367 -160 357 -162 347 -162 c 0
 318 -162 297 -143 297 -110 c 0
 297 -78 316 -53 358 -53 c 0
 406 -53 428 -86 428 -138 c 0
 428 -235 351 -263 310 -277 c 1
EndSplineSet
Substitution2: "'c2sc' Capitals to Small Capitals in Latin lookup 5 subtable" Ncommaaccent.c2sc
EndChar

StartChar: Ograve
Encoding: 210 210 145
Width: 737
GlyphClass: 2
Flags: MW
HStem: -12 42<298 441 298 467.5> 627 42<301.5 431> 698 128<260 465 260 418> 805 21<260 360>
VStem: 50 105<241 426.5 241 430.5> 582 105<234.5 425>
AnchorPoint: "Anchor-5" 419 0 basechar 0
AnchorPoint: "Anchor-4" 382 0 basechar 0
AnchorPoint: "Anchor-2" 369 0 basechar 0
AnchorPoint: "Anchor-1" 368 826 basechar 0
LayerCount: 2
Fore
SplineSet
369 -12 m 0xdc
 170 -12 50 117 50 329 c 0
 50 532 171 669 369 669 c 0
 568 669 687 536 687 338 c 0
 687 129 566 -12 369 -12 c 0xdc
370 30 m 0
 512 30 582 134 582 335 c 0
 582 515 496 627 366 627 c 0
 237 627 155 518 155 335 c 0
 155 147 226 30 370 30 c 0
465 698 m 1xec
 418 698 l 1xec
 260 805 l 1
 260 826 l 1
 360 826 l 1xdc
 465 698 l 1xec
EndSplineSet
Substitution2: "'c2sc' Capitals to Small Capitals in Latin lookup 5 subtable" Ograve.c2sc
EndChar

StartChar: Oacute
Encoding: 211 211 146
Width: 737
GlyphClass: 2
Flags: MW
HStem: -12 42<298 441 298 467.5> 627 42<301.5 431> 698 128<272 477 272 477> 805 21<377 477>
VStem: 50 105<241 426.5 241 430.5> 582 105<234.5 425>
AnchorPoint: "Anchor-5" 419 0 basechar 0
AnchorPoint: "Anchor-4" 382 0 basechar 0
AnchorPoint: "Anchor-2" 369 0 basechar 0
AnchorPoint: "Anchor-1" 368 826 basechar 0
LayerCount: 2
Fore
SplineSet
369 -12 m 0xdc
 170 -12 50 117 50 329 c 0
 50 532 171 669 369 669 c 0
 568 669 687 536 687 338 c 0
 687 129 566 -12 369 -12 c 0xdc
370 30 m 0
 512 30 582 134 582 335 c 0
 582 515 496 627 366 627 c 0
 237 627 155 518 155 335 c 0
 155 147 226 30 370 30 c 0
318 698 m 1xec
 272 698 l 1xec
 377 826 l 1
 477 826 l 1
 477 805 l 1xdc
 318 698 l 1xec
EndSplineSet
Substitution2: "'c2sc' Capitals to Small Capitals in Latin lookup 5 subtable" Oacute.c2sc
EndChar

StartChar: Ocircumflex
Encoding: 212 212 147
Width: 737
GlyphClass: 2
Flags: MW
HStem: -12 42<298 441 298 467.5> 627 42<301.5 431> 698 138<221 405 221 405 333 475 333 515> 779 57<368 368>
VStem: 50 105<241 426.5 241 430.5> 582 105<234.5 425>
AnchorPoint: "Anchor-5" 419 0 basechar 0
AnchorPoint: "Anchor-4" 382 0 basechar 0
AnchorPoint: "Anchor-2" 369 0 basechar 0
AnchorPoint: "Anchor-1" 368 836 basechar 0
LayerCount: 2
Fore
SplineSet
369 -12 m 0xcc
 170 -12 50 117 50 329 c 0
 50 532 171 669 369 669 c 0
 568 669 687 536 687 338 c 0
 687 129 566 -12 369 -12 c 0xcc
370 30 m 0
 512 30 582 134 582 335 c 0
 582 515 496 627 366 627 c 0
 237 627 155 518 155 335 c 0
 155 147 226 30 370 30 c 0
263 698 m 1xec
 221 698 l 1
 333 836 l 1
 405 836 l 1
 515 698 l 1
 475 698 l 1xec
 368 779 l 1xdc
 263 698 l 1xec
EndSplineSet
Substitution2: "'c2sc' Capitals to Small Capitals in Latin lookup 5 subtable" Ocircumflex.c2sc
EndChar

StartChar: uni1ED2
Encoding: 7890 7890 148
Width: 737
GlyphClass: 2
Flags: MW
HStem: -12 42<298 441 298 467.5> 627 42<301.5 431> 693 133<221 405 221 405 333 475 333 515> 774 52<368 368> 860 21<415 503>
VStem: 50 105<241 426.5 241 430.5> 582 105<234.5 425>
AnchorPoint: "Anchor-5" 419 0 basechar 0
AnchorPoint: "Anchor-4" 382 0 basechar 0
AnchorPoint: "Anchor-2" 369 0 basechar 0
AnchorPoint: "Anchor-0" 369 657 basechar 0
LayerCount: 2
Fore
SplineSet
369 -12 m 0xde
 170 -12 50 117 50 329 c 0
 50 532 171 669 369 669 c 0
 568 669 687 536 687 338 c 0
 687 129 566 -12 369 -12 c 0xde
370 30 m 0
 512 30 582 134 582 335 c 0
 582 515 496 627 366 627 c 0
 237 627 155 518 155 335 c 0
 155 147 226 30 370 30 c 0
263 693 m 1xee
 221 693 l 1
 333 826 l 1
 405 826 l 1
 515 693 l 1
 475 693 l 1xee
 368 774 l 1xde
 263 693 l 1xee
600 763 m 1
 559 763 l 1
 415 860 l 1
 415 881 l 1
 503 881 l 1
 600 763 l 1
EndSplineSet
Substitution2: "'c2sc' Capitals to Small Capitals in Latin lookup 5 subtable" uni1ED2.c2sc
EndChar

StartChar: uni1ED0
Encoding: 7888 7888 149
Width: 737
GlyphClass: 2
Flags: MW
HStem: -12 42<298 441 298 467.5> 627 42<301.5 431> 693 133<221 405 221 405 333 475 333 515> 763 63<333 508 333 467> 774 52<368 368> 860 21<564 652>
VStem: 50 105<241 426.5 241 430.5> 582 105<234.5 425>
AnchorPoint: "Anchor-5" 419 0 basechar 0
AnchorPoint: "Anchor-4" 382 0 basechar 0
AnchorPoint: "Anchor-2" 369 0 basechar 0
AnchorPoint: "Anchor-0" 369 657 basechar 0
LayerCount: 2
Fore
SplineSet
369 -12 m 0xd7
 170 -12 50 117 50 329 c 0
 50 532 171 669 369 669 c 0
 568 669 687 536 687 338 c 0
 687 129 566 -12 369 -12 c 0xd7
370 30 m 0
 512 30 582 134 582 335 c 0
 582 515 496 627 366 627 c 0
 237 627 155 518 155 335 c 0
 155 147 226 30 370 30 c 0
263 693 m 1xe7
 221 693 l 1xe7
 333 826 l 1
 405 826 l 1xd7
 515 693 l 1
 475 693 l 1xe7
 368 774 l 1xcf
 263 693 l 1xe7
508 763 m 1xd7
 467 763 l 1
 564 881 l 1
 652 881 l 1
 652 860 l 1
 508 763 l 1xd7
EndSplineSet
Substitution2: "'c2sc' Capitals to Small Capitals in Latin lookup 5 subtable" uni1ED0.c2sc
EndChar

StartChar: uni1ED6
Encoding: 7894 7894 150
Width: 737
GlyphClass: 2
Flags: MW
HStem: -12 42<298 441 298 467.5> 627 42<301.5 431> 693 123<221 405 221 405 333 475 333 515> 764 52<368 368> 840 59<425.5 454.5> 876 58<289 318.5>
VStem: 50 105<241 426.5 241 430.5> 582 105<234.5 425>
AnchorPoint: "Anchor-5" 419 0 basechar 0
AnchorPoint: "Anchor-4" 382 0 basechar 0
AnchorPoint: "Anchor-2" 369 0 basechar 0
AnchorPoint: "Anchor-0" 369 657 basechar 0
LayerCount: 2
Fore
SplineSet
369 -12 m 0xd7
 170 -12 50 117 50 329 c 0
 50 532 171 669 369 669 c 0
 568 669 687 536 687 338 c 0
 687 129 566 -12 369 -12 c 0xd7
370 30 m 0
 512 30 582 134 582 335 c 0
 582 515 496 627 366 627 c 0
 237 627 155 518 155 335 c 0
 155 147 226 30 370 30 c 0
239 838 m 1
 214 838 l 1
 226 900 265 934 313 934 c 0xe7
 372 934 403 899 448 899 c 0
 475 899 494 906 506 939 c 1
 531 939 l 1
 515 867 481 840 428 840 c 0xdb
 372 840 342 876 295 876 c 0
 270 876 249 868 239 838 c 1
263 693 m 1
 221 693 l 1
 333 816 l 1
 405 816 l 1
 515 693 l 1
 475 693 l 1xe7
 368 764 l 1xd7
 263 693 l 1
EndSplineSet
Substitution2: "'c2sc' Capitals to Small Capitals in Latin lookup 5 subtable" uni1ED6.c2sc
EndChar

StartChar: uni1ED4
Encoding: 7892 7892 151
Width: 737
GlyphClass: 2
Flags: MW
HStem: -12 42<298 441 298 467.5> 627 42<301.5 431> 693 133<221 405 221 405 333 475 333 515> 763 63 774 52<368 368> 928 29<484 514.5>
VStem: 50 105<241 426.5 241 430.5> 472 41<763 800 763 817> 537 60<862.5 901.5 851.5 903> 582 105<234.5 425>
AnchorPoint: "Anchor-5" 419 0 basechar 0
AnchorPoint: "Anchor-4" 382 0 basechar 0
AnchorPoint: "Anchor-2" 369 0 basechar 0
AnchorPoint: "Anchor-0" 369 657 basechar 0
LayerCount: 2
Fore
SplineSet
369 -12 m 0xc740
 170 -12 50 117 50 329 c 0
 50 532 171 669 369 669 c 0
 568 669 687 536 687 338 c 0
 687 129 566 -12 369 -12 c 0xc740
370 30 m 0
 512 30 582 134 582 335 c 0
 582 515 496 627 366 627 c 0
 237 627 155 518 155 335 c 0
 155 147 226 30 370 30 c 0
263 693 m 1xe740
 221 693 l 1xe740
 333 826 l 1
 405 826 l 1xd740
 515 693 l 1
 475 693 l 1xe740
 368 774 l 1xcf40
 263 693 l 1xe740
513 763 m 1xd740
 472 763 l 1
 472 817 l 1xd740
 523 818 537 842 537 883 c 0
 537 923 522 928 507 928 c 0
 461 928 477 881 444 881 c 0
 427 881 417 893 417 909 c 0
 417 941 462 957 506 957 c 0
 570 957 597 922 597 881 c 0xd780
 597 822 544 805 513 800 c 1
 513 763 l 1xd740
EndSplineSet
Substitution2: "'c2sc' Capitals to Small Capitals in Latin lookup 5 subtable" uni1ED4.c2sc
EndChar

StartChar: uni1ED8
Encoding: 7896 7896 152
Width: 737
GlyphClass: 2
Flags: MW
HStem: -181 113<351 385.5> -12 42<298 441 298 467.5> 627 42<301.5 431> 698 138<221 405 221 405 333 475 333 515> 779 57<368 368>
VStem: 50 105<241 426.5 241 430.5> 311 114<-139.5 -109> 582 105<234.5 425>
AnchorPoint: "Anchor-5" 419 0 basechar 0
AnchorPoint: "Anchor-4" 382 0 basechar 0
AnchorPoint: "Anchor-3" 368 -181 basechar 0
AnchorPoint: "Anchor-1" 368 836 basechar 0
LayerCount: 2
Fore
SplineSet
369 -12 m 0x65
 170 -12 50 117 50 329 c 0
 50 532 171 669 369 669 c 0
 568 669 687 536 687 338 c 0
 687 129 566 -12 369 -12 c 0x65
370 30 m 0
 512 30 582 134 582 335 c 0
 582 515 496 627 366 627 c 0
 237 627 155 518 155 335 c 0
 155 147 226 30 370 30 c 0
263 698 m 1x75
 221 698 l 1
 333 836 l 1
 405 836 l 1
 515 698 l 1
 475 698 l 1xf7
 368 779 l 1x6d
 263 698 l 1x75
368 -181 m 0
 334 -181 311 -155 311 -124 c 0
 311 -94 333 -68 368 -68 c 0
 403 -68 425 -94 425 -124 c 0
 425 -155 403 -181 368 -181 c 0
EndSplineSet
Substitution2: "'c2sc' Capitals to Small Capitals in Latin lookup 5 subtable" uni1ED8.c2sc
EndChar

StartChar: Otilde
Encoding: 213 213 153
Width: 737
GlyphClass: 2
Flags: MW
HStem: -12 42<298 441 298 467.5> 627 42<301.5 431> 714 61<427.5 457.5> 751 60<287 317.5>
VStem: 50 105<241 426.5 241 430.5> 582 105<234.5 425>
AnchorPoint: "Anchor-5" 419 0 basechar 0
AnchorPoint: "Anchor-4" 382 0 basechar 0
AnchorPoint: "Anchor-2" 369 0 basechar 0
AnchorPoint: "Anchor-1" 368 811 basechar 0
LayerCount: 2
Fore
SplineSet
369 -12 m 0xdc
 170 -12 50 117 50 329 c 0
 50 532 171 669 369 669 c 0
 568 669 687 536 687 338 c 0
 687 129 566 -12 369 -12 c 0xdc
370 30 m 0
 512 30 582 134 582 335 c 0
 582 515 496 627 366 627 c 0
 237 627 155 518 155 335 c 0
 155 147 226 30 370 30 c 0
236 712 m 1
 210 712 l 1
 222 776 262 811 312 811 c 0xdc
 372 811 404 775 451 775 c 0
 478 775 498 782 510 816 c 1
 536 816 l 1xec
 520 742 485 714 430 714 c 0
 372 714 342 751 293 751 c 0
 268 751 246 743 236 712 c 1
EndSplineSet
Substitution2: "'c2sc' Capitals to Small Capitals in Latin lookup 5 subtable" Otilde.c2sc
EndChar

StartChar: uni1E4C
Encoding: 7756 7756 154
Width: 737
GlyphClass: 2
Flags: MW
HStem: -12 42<298 441 298 467.5> 627 42<301.5 431> 704 61<427.5 457.5> 741 60<287 317.5> 828 128<272 477 272 477> 935 21<377 477>
VStem: 50 105<241 426.5 241 430.5> 582 105<234.5 425>
AnchorPoint: "Anchor-5" 419 0 basechar 0
AnchorPoint: "Anchor-4" 382 0 basechar 0
AnchorPoint: "Anchor-2" 369 0 basechar 0
AnchorPoint: "Anchor-1" 368 956 basechar 0
LayerCount: 2
Fore
SplineSet
369 -12 m 0xd7
 170 -12 50 117 50 329 c 0
 50 532 171 669 369 669 c 0
 568 669 687 536 687 338 c 0
 687 129 566 -12 369 -12 c 0xd7
370 30 m 0
 512 30 582 134 582 335 c 0
 582 515 496 627 366 627 c 0
 237 627 155 518 155 335 c 0
 155 147 226 30 370 30 c 0
236 702 m 1
 210 702 l 1
 222 766 262 801 312 801 c 0xd7
 372 801 404 765 451 765 c 0
 478 765 498 772 510 806 c 1
 536 806 l 1xe7
 520 732 485 704 430 704 c 0
 372 704 342 741 293 741 c 0
 268 741 246 733 236 702 c 1
318 828 m 1xdb
 272 828 l 1xdb
 377 956 l 1
 477 956 l 1
 477 935 l 1xd7
 318 828 l 1xdb
EndSplineSet
Substitution2: "'c2sc' Capitals to Small Capitals in Latin lookup 5 subtable" uni1E4C.c2sc
EndChar

StartChar: uni1E4E
Encoding: 7758 7758 155
Width: 737
GlyphClass: 2
Flags: MW
HStem: -12 42<298 441 298 467.5> 627 42<301.5 431> 704 61<427.5 457.5> 741 60<287 317.5> 826 110<240.5 274.5 461.5 495.5>
VStem: 50 105<241 426.5 241 430.5> 201 113<866.5 895.5> 422 113<866.5 895.5> 582 105<234.5 425>
AnchorPoint: "Anchor-5" 419 0 basechar 0
AnchorPoint: "Anchor-4" 382 0 basechar 0
AnchorPoint: "Anchor-2" 369 0 basechar 0
AnchorPoint: "Anchor-1" 368 936 basechar 0
LayerCount: 2
Fore
SplineSet
369 -12 m 0xd480
 170 -12 50 117 50 329 c 0
 50 532 171 669 369 669 c 0
 568 669 687 536 687 338 c 0
 687 129 566 -12 369 -12 c 0xd480
370 30 m 0
 512 30 582 134 582 335 c 0
 582 515 496 627 366 627 c 0
 237 627 155 518 155 335 c 0
 155 147 226 30 370 30 c 0
236 702 m 1
 210 702 l 1
 222 766 262 801 312 801 c 0xd480
 372 801 404 765 451 765 c 0
 478 765 498 772 510 806 c 1
 536 806 l 1xe480
 520 732 485 704 430 704 c 0
 372 704 342 741 293 741 c 0
 268 741 246 733 236 702 c 1
257 826 m 0xdf80
 224 826 201 852 201 881 c 0
 201 910 223 936 257 936 c 0
 292 936 314 910 314 881 c 0
 314 852 292 826 257 826 c 0xdf80
478 826 m 0
 445 826 422 852 422 881 c 0
 422 910 444 936 478 936 c 0
 513 936 535 910 535 881 c 0
 535 852 513 826 478 826 c 0
EndSplineSet
Substitution2: "'c2sc' Capitals to Small Capitals in Latin lookup 5 subtable" uni1E4E.c2sc
EndChar

StartChar: Odieresis
Encoding: 214 214 156
Width: 737
GlyphClass: 2
Flags: MW
HStem: -12 42<298 441 298 467.5> 627 42<301.5 431> 706 110<240.5 274.5 461.5 495.5>
VStem: 50 105<241 426.5 241 430.5> 201 113<746.5 775.5> 422 113<746.5 775.5> 582 105<234.5 425>
AnchorPoint: "Anchor-5" 419 0 basechar 0
AnchorPoint: "Anchor-4" 382 0 basechar 0
AnchorPoint: "Anchor-2" 369 0 basechar 0
AnchorPoint: "Anchor-1" 368 816 basechar 0
LayerCount: 2
Fore
SplineSet
369 -12 m 0
 170 -12 50 117 50 329 c 0
 50 532 171 669 369 669 c 0
 568 669 687 536 687 338 c 0
 687 129 566 -12 369 -12 c 0
370 30 m 0
 512 30 582 134 582 335 c 0
 582 515 496 627 366 627 c 0
 237 627 155 518 155 335 c 0
 155 147 226 30 370 30 c 0
257 706 m 0
 224 706 201 732 201 761 c 0
 201 790 223 816 257 816 c 0
 292 816 314 790 314 761 c 0
 314 732 292 706 257 706 c 0
478 706 m 0
 445 706 422 732 422 761 c 0
 422 790 444 816 478 816 c 0
 513 816 535 790 535 761 c 0
 535 732 513 706 478 706 c 0
EndSplineSet
Substitution2: "'c2sc' Capitals to Small Capitals in Latin lookup 5 subtable" Odieresis.c2sc
EndChar

StartChar: Omacron
Encoding: 332 332 157
Width: 737
GlyphClass: 2
Flags: MW
HStem: -12 42<298 441 298 467.5> 627 42<301.5 431> 726 53<221 515 221 515>
VStem: 50 105<241 426.5 241 430.5> 582 105<234.5 425>
AnchorPoint: "Anchor-5" 419 0 basechar 0
AnchorPoint: "Anchor-4" 382 0 basechar 0
AnchorPoint: "Anchor-2" 369 0 basechar 0
AnchorPoint: "Anchor-1" 368 779 basechar 0
LayerCount: 2
Fore
SplineSet
369 -12 m 0
 170 -12 50 117 50 329 c 0
 50 532 171 669 369 669 c 0
 568 669 687 536 687 338 c 0
 687 129 566 -12 369 -12 c 0
370 30 m 0
 512 30 582 134 582 335 c 0
 582 515 496 627 366 627 c 0
 237 627 155 518 155 335 c 0
 155 147 226 30 370 30 c 0
515 726 m 1
 221 726 l 1
 221 779 l 1
 515 779 l 1
 515 726 l 1
EndSplineSet
Substitution2: "'c2sc' Capitals to Small Capitals in Latin lookup 5 subtable" Omacron.c2sc
EndChar

StartChar: uni1E50
Encoding: 7760 7760 158
Width: 737
GlyphClass: 2
Flags: MW
HStem: -12 42<298 441 298 467.5> 627 42<301.5 431> 716 53<221 515 221 515> 808 128<260 465 260 418> 915 21<260 360>
VStem: 50 105<241 426.5 241 430.5> 582 105<234.5 425>
AnchorPoint: "Anchor-5" 419 0 basechar 0
AnchorPoint: "Anchor-4" 382 0 basechar 0
AnchorPoint: "Anchor-2" 369 0 basechar 0
AnchorPoint: "Anchor-1" 368 936 basechar 0
LayerCount: 2
Fore
SplineSet
369 -12 m 0xee
 170 -12 50 117 50 329 c 0
 50 532 171 669 369 669 c 0
 568 669 687 536 687 338 c 0
 687 129 566 -12 369 -12 c 0xee
370 30 m 0
 512 30 582 134 582 335 c 0
 582 515 496 627 366 627 c 0
 237 627 155 518 155 335 c 0
 155 147 226 30 370 30 c 0
515 716 m 1
 221 716 l 1
 221 769 l 1
 515 769 l 1
 515 716 l 1
465 808 m 1xf6
 418 808 l 1xf6
 260 915 l 1
 260 936 l 1
 360 936 l 1xee
 465 808 l 1xf6
EndSplineSet
Substitution2: "'c2sc' Capitals to Small Capitals in Latin lookup 5 subtable" uni1E50.c2sc
EndChar

StartChar: uni1E52
Encoding: 7762 7762 159
Width: 737
GlyphClass: 2
Flags: MW
HStem: -12 42<298 441 298 467.5> 627 42<301.5 431> 716 53<221 515 221 515> 808 128<272 477 272 477> 915 21<377 477>
VStem: 50 105<241 426.5 241 430.5> 582 105<234.5 425>
AnchorPoint: "Anchor-5" 419 0 basechar 0
AnchorPoint: "Anchor-4" 382 0 basechar 0
AnchorPoint: "Anchor-2" 369 0 basechar 0
AnchorPoint: "Anchor-1" 368 936 basechar 0
LayerCount: 2
Fore
SplineSet
369 -12 m 0xee
 170 -12 50 117 50 329 c 0
 50 532 171 669 369 669 c 0
 568 669 687 536 687 338 c 0
 687 129 566 -12 369 -12 c 0xee
370 30 m 0
 512 30 582 134 582 335 c 0
 582 515 496 627 366 627 c 0
 237 627 155 518 155 335 c 0
 155 147 226 30 370 30 c 0
515 716 m 1
 221 716 l 1
 221 769 l 1
 515 769 l 1
 515 716 l 1
318 808 m 1xf6
 272 808 l 1xf6
 377 936 l 1
 477 936 l 1
 477 915 l 1xee
 318 808 l 1xf6
EndSplineSet
Substitution2: "'c2sc' Capitals to Small Capitals in Latin lookup 5 subtable" uni1E52.c2sc
EndChar

StartChar: Obreve
Encoding: 334 334 160
Width: 737
GlyphClass: 2
Flags: MW
HStem: -12 42<298 441 298 467.5> 627 42<301.5 431> 712 64<335 401.5 335 414.5>
VStem: 50 105<241 426.5 241 430.5> 220 30<865 865> 582 105<234.5 425>
AnchorPoint: "Anchor-5" 419 0 basechar 0
AnchorPoint: "Anchor-4" 382 0 basechar 0
AnchorPoint: "Anchor-2" 369 0 basechar 0
AnchorPoint: "Anchor-1" 368 865 basechar 0
LayerCount: 2
Fore
SplineSet
369 -12 m 0
 170 -12 50 117 50 329 c 0
 50 532 171 669 369 669 c 0
 568 669 687 536 687 338 c 0
 687 129 566 -12 369 -12 c 0
370 30 m 0
 512 30 582 134 582 335 c 0
 582 515 496 627 366 627 c 0
 237 627 155 518 155 335 c 0
 155 147 226 30 370 30 c 0
368 712 m 0
 276 712 224 761 220 865 c 1
 250 865 l 1
 269 793 302 776 368 776 c 0
 435 776 462 793 487 865 c 1
 516 865 l 1
 505 761 461 712 368 712 c 0
EndSplineSet
Substitution2: "'c2sc' Capitals to Small Capitals in Latin lookup 5 subtable" Obreve.c2sc
EndChar

StartChar: uni1ECE
Encoding: 7886 7886 161
Width: 737
GlyphClass: 2
Flags: MW
HStem: -12 42<298 441 298 467.5> 627 42<301.5 431> 870 29<356 386.5>
VStem: 50 105<241 426.5 241 430.5> 344 41<698 737 698 754> 409 62<801.5 842 790.5 844> 582 105<234.5 425>
AnchorPoint: "Anchor-5" 419 0 basechar 0
AnchorPoint: "Anchor-4" 382 0 basechar 0
AnchorPoint: "Anchor-2" 369 0 basechar 0
AnchorPoint: "Anchor-0" 369 657 basechar 0
LayerCount: 2
Fore
SplineSet
369 -12 m 0
 170 -12 50 117 50 329 c 0
 50 532 171 669 369 669 c 0
 568 669 687 536 687 338 c 0
 687 129 566 -12 369 -12 c 0
370 30 m 0
 512 30 582 134 582 335 c 0
 582 515 496 627 366 627 c 0
 237 627 155 518 155 335 c 0
 155 147 226 30 370 30 c 0
385 698 m 1
 344 698 l 1
 344 754 l 1xfa
 395 755 409 780 409 823 c 0
 409 865 394 870 379 870 c 0
 333 870 349 823 316 823 c 0
 299 823 289 835 289 851 c 0
 289 883 334 899 378 899 c 0
 442 899 471 863 471 821 c 0xfe
 471 760 416 742 385 737 c 1
 385 698 l 1
EndSplineSet
Substitution2: "'c2sc' Capitals to Small Capitals in Latin lookup 5 subtable" uni1ECE.c2sc
EndChar

StartChar: Ohungarumlaut
Encoding: 336 336 162
Width: 737
GlyphClass: 2
Flags: MW
HStem: -12 42<298 441 298 467.5> 627 42<301.5 431> 698 128<265 440 265 440 408 440 348 446 408 408> 807 19<348 440>
VStem: 50 105<241 426.5 241 430.5> 582 105<234.5 425>
AnchorPoint: "Anchor-5" 419 0 basechar 0
AnchorPoint: "Anchor-4" 382 0 basechar 0
AnchorPoint: "Anchor-2" 369 0 basechar 0
AnchorPoint: "Anchor-1" 368 826 basechar 0
LayerCount: 2
Fore
SplineSet
369 -12 m 0xdc
 170 -12 50 117 50 329 c 0
 50 532 171 669 369 669 c 0
 568 669 687 536 687 338 c 0
 687 129 566 -12 369 -12 c 0xdc
370 30 m 0
 512 30 582 134 582 335 c 0
 582 515 496 627 366 627 c 0
 237 627 155 518 155 335 c 0
 155 147 226 30 370 30 c 0
446 698 m 1xec
 408 698 l 1xec
 491 826 l 1
 584 826 l 1
 584 807 l 1xdc
 446 698 l 1xec
304 698 m 1
 265 698 l 1xec
 348 826 l 1
 440 826 l 1
 440 807 l 1xdc
 304 698 l 1
EndSplineSet
Substitution2: "'c2sc' Capitals to Small Capitals in Latin lookup 5 subtable" Ohungarumlaut.c2sc
EndChar

StartChar: uni1ECC
Encoding: 7884 7884 163
Width: 737
GlyphClass: 2
Flags: MW
HStem: -181 113<351 385.5> -12 42<298 441 298 467.5> 627 42<301.5 431>
VStem: 50 105<241 426.5 241 430.5> 311 114<-139.5 -109> 582 105<234.5 425>
AnchorPoint: "Anchor-5" 419 0 basechar 0
AnchorPoint: "Anchor-4" 382 0 basechar 0
AnchorPoint: "Anchor-3" 368 -181 basechar 0
AnchorPoint: "Anchor-0" 369 657 basechar 0
LayerCount: 2
Fore
SplineSet
369 -12 m 0
 170 -12 50 117 50 329 c 0
 50 532 171 669 369 669 c 0
 568 669 687 536 687 338 c 0
 687 129 566 -12 369 -12 c 0
370 30 m 0
 512 30 582 134 582 335 c 0
 582 515 496 627 366 627 c 0
 237 627 155 518 155 335 c 0
 155 147 226 30 370 30 c 0
368 -181 m 0
 334 -181 311 -155 311 -124 c 0
 311 -94 333 -68 368 -68 c 0
 403 -68 425 -94 425 -124 c 0
 425 -155 403 -181 368 -181 c 0
EndSplineSet
Substitution2: "'c2sc' Capitals to Small Capitals in Latin lookup 5 subtable" uni1ECC.c2sc
EndChar

StartChar: Ohorn
Encoding: 416 416 164
Width: 737
GlyphClass: 2
Flags: MW
HStem: -12 42<298 441 298 467.5> 613 30<584 601 539 639.5> 627 42<301.5 404 270 431>
VStem: 50 105<241 426.5 241 430.5> 582 105<234.5 398.5 233.5 425> 609 103<745.5 751.5 709 770> 641 71<669.5 751.5>
AnchorPoint: "Anchor-5" 419 0 basechar 0
AnchorPoint: "Anchor-4" 371 0 basechar 0
AnchorPoint: "Anchor-2" 369 0 basechar 0
AnchorPoint: "Anchor-0" 369 657 basechar 0
LayerCount: 2
Fore
SplineSet
369 -12 m 0xb8
 170 -12 50 117 50 329 c 0xb8
 50 532 171 669 369 669 c 0
 439 669 497 643 581 643 c 0
 621 643 641 660 641 679 c 0xd2
 641 704 609 735 609 756 c 0xb4
 609 784 630 798 654 798 c 0
 685 798 712 777 712 726 c 0xd2
 712 692 690 613 589 613 c 0
 579 613 562 614 553 615 c 1
 553 609 l 1xd8
 640 551 687 459 687 338 c 0
 687 129 566 -12 369 -12 c 0xb8
370 30 m 0
 512 30 582 134 582 335 c 0
 582 515 496 627 366 627 c 0
 237 627 155 518 155 335 c 0
 155 147 226 30 370 30 c 0
EndSplineSet
Substitution2: "'c2sc' Capitals to Small Capitals in Latin lookup 5 subtable" Ohorn.c2sc
EndChar

StartChar: uni1EDC
Encoding: 7900 7900 165
Width: 737
GlyphClass: 2
Flags: MW
HStem: -12 42<298 441 298 467.5> 613 30<584 601 539 639.5> 627 42<301.5 404 270 431> 698 128<260 465 260 418> 805 21<260 360>
VStem: 50 105<241 426.5 241 430.5> 582 105<234.5 398.5 233.5 425> 609 103<745.5 751.5 709 770> 641 71<669.5 751.5>
AnchorPoint: "Anchor-5" 419 0 basechar 0
AnchorPoint: "Anchor-4" 371 0 basechar 0
AnchorPoint: "Anchor-2" 369 0 basechar 0
AnchorPoint: "Anchor-1" 368 826 basechar 0
LayerCount: 2
Fore
SplineSet
369 -12 m 0xae
 170 -12 50 117 50 329 c 0xae
 50 532 171 669 369 669 c 0
 439 669 497 643 581 643 c 0
 621 643 641 660 641 679 c 0xcc80
 641 704 609 735 609 756 c 0xad
 609 784 630 798 654 798 c 0
 685 798 712 777 712 726 c 0xcc80
 712 692 690 613 589 613 c 0
 579 613 562 614 553 615 c 1
 553 609 l 1xce
 640 551 687 459 687 338 c 0
 687 129 566 -12 369 -12 c 0xae
370 30 m 0
 512 30 582 134 582 335 c 0
 582 515 496 627 366 627 c 0
 237 627 155 518 155 335 c 0
 155 147 226 30 370 30 c 0
465 698 m 1xb6
 418 698 l 1xb6
 260 805 l 1
 260 826 l 1
 360 826 l 1xae
 465 698 l 1xb6
EndSplineSet
Substitution2: "'c2sc' Capitals to Small Capitals in Latin lookup 5 subtable" uni1EDC.c2sc
EndChar

StartChar: uni1EDA
Encoding: 7898 7898 166
Width: 737
GlyphClass: 2
Flags: MW
HStem: -12 42<298 441 298 467.5> 613 30<584 601 539 639.5> 627 42<301.5 404 270 431> 698 128<272 477 272 477> 805 21<377 477>
VStem: 50 105<241 426.5 241 430.5> 582 105<234.5 398.5 233.5 425> 609 103<745.5 751.5 709 770> 641 71<669.5 751.5>
AnchorPoint: "Anchor-5" 419 0 basechar 0
AnchorPoint: "Anchor-4" 371 0 basechar 0
AnchorPoint: "Anchor-2" 369 0 basechar 0
AnchorPoint: "Anchor-1" 368 826 basechar 0
LayerCount: 2
Fore
SplineSet
369 -12 m 0xae
 170 -12 50 117 50 329 c 0xae
 50 532 171 669 369 669 c 0
 439 669 497 643 581 643 c 0
 621 643 641 660 641 679 c 0xcc80
 641 704 609 735 609 756 c 0xad
 609 784 630 798 654 798 c 0
 685 798 712 777 712 726 c 0xcc80
 712 692 690 613 589 613 c 0
 579 613 562 614 553 615 c 1
 553 609 l 1xce
 640 551 687 459 687 338 c 0
 687 129 566 -12 369 -12 c 0xae
370 30 m 0
 512 30 582 134 582 335 c 0
 582 515 496 627 366 627 c 0
 237 627 155 518 155 335 c 0
 155 147 226 30 370 30 c 0
318 698 m 1xb6
 272 698 l 1xb6
 377 826 l 1
 477 826 l 1
 477 805 l 1xae
 318 698 l 1xb6
EndSplineSet
Substitution2: "'c2sc' Capitals to Small Capitals in Latin lookup 5 subtable" uni1EDA.c2sc
EndChar

StartChar: uni1EE0
Encoding: 7904 7904 167
Width: 737
GlyphClass: 2
Flags: MW
HStem: -12 42<298 441 298 467.5> 613 30<584 601 539 639.5> 627 42<301.5 404 270 431> 714 61<427.5 457.5> 751 60<287 317.5>
VStem: 50 105<241 426.5 241 430.5> 582 105<234.5 398.5 233.5 425> 609 103<745.5 751.5 709 770> 641 71<669.5 751.5>
AnchorPoint: "Anchor-5" 419 0 basechar 0
AnchorPoint: "Anchor-4" 371 0 basechar 0
AnchorPoint: "Anchor-2" 369 0 basechar 0
AnchorPoint: "Anchor-1" 368 811 basechar 0
LayerCount: 2
Fore
SplineSet
369 -12 m 0xae
 170 -12 50 117 50 329 c 0xae
 50 532 171 669 369 669 c 0
 439 669 497 643 581 643 c 0
 621 643 641 660 641 679 c 0xcc80
 641 704 609 735 609 756 c 0xad
 609 784 630 798 654 798 c 0
 685 798 712 777 712 726 c 0xcc80
 712 692 690 613 589 613 c 0
 579 613 562 614 553 615 c 1
 553 609 l 1xce
 640 551 687 459 687 338 c 0
 687 129 566 -12 369 -12 c 0xae
370 30 m 0
 512 30 582 134 582 335 c 0
 582 515 496 627 366 627 c 0
 237 627 155 518 155 335 c 0
 155 147 226 30 370 30 c 0
236 712 m 1
 210 712 l 1
 222 776 262 811 312 811 c 0xae
 372 811 404 775 451 775 c 0
 478 775 498 782 510 816 c 1
 536 816 l 1xb6
 520 742 485 714 430 714 c 0
 372 714 342 751 293 751 c 0
 268 751 246 743 236 712 c 1
EndSplineSet
Substitution2: "'c2sc' Capitals to Small Capitals in Latin lookup 5 subtable" uni1EE0.c2sc
EndChar

StartChar: uni1EDE
Encoding: 7902 7902 168
Width: 737
GlyphClass: 2
Flags: MW
HStem: -12 42<298 441 298 467.5> 613 30<584 601 539 639.5> 627 42<301.5 404 270 431> 870 29<356 386.5>
VStem: 50 105<241 426.5 241 430.5> 344 41<698 737 698 754> 409 62<801.5 842 790.5 844> 582 105<234.5 398.5 233.5 425> 609 103<745.5 751.5 709 770> 641 71<669.5 751.5>
AnchorPoint: "Anchor-5" 419 0 basechar 0
AnchorPoint: "Anchor-4" 371 0 basechar 0
AnchorPoint: "Anchor-2" 369 0 basechar 0
AnchorPoint: "Anchor-0" 369 657 basechar 0
LayerCount: 2
Fore
SplineSet
369 -12 m 0xbd
 170 -12 50 117 50 329 c 0xbd
 50 532 171 669 369 669 c 0
 439 669 497 643 581 643 c 0
 621 643 641 660 641 679 c 0xdc40
 641 704 609 735 609 756 c 0xbc80
 609 784 630 798 654 798 c 0
 685 798 712 777 712 726 c 0xdc40
 712 692 690 613 589 613 c 0
 579 613 562 614 553 615 c 1
 553 609 l 1xdd
 640 551 687 459 687 338 c 0
 687 129 566 -12 369 -12 c 0xbd
370 30 m 0
 512 30 582 134 582 335 c 0
 582 515 496 627 366 627 c 0
 237 627 155 518 155 335 c 0
 155 147 226 30 370 30 c 0
385 698 m 1
 344 698 l 1
 344 754 l 1xbd
 395 755 409 780 409 823 c 0
 409 865 394 870 379 870 c 0
 333 870 349 823 316 823 c 0
 299 823 289 835 289 851 c 0
 289 883 334 899 378 899 c 0
 442 899 471 863 471 821 c 0xbf
 471 760 416 742 385 737 c 1
 385 698 l 1
EndSplineSet
Substitution2: "'c2sc' Capitals to Small Capitals in Latin lookup 5 subtable" uni1EDE.c2sc
EndChar

StartChar: uni1EE2
Encoding: 7906 7906 169
Width: 737
GlyphClass: 2
Flags: MW
HStem: -181 113<351 385.5> -12 42<298 441 298 467.5> 613 30<584 601 539 639.5> 627 42<301.5 404 270 431>
VStem: 50 105<241 426.5 241 430.5> 311 114<-139.5 -109> 582 105<234.5 398.5 233.5 425> 609 103<745.5 751.5 709 770> 641 71<669.5 751.5>
AnchorPoint: "Anchor-5" 419 0 basechar 0
AnchorPoint: "Anchor-4" 371 0 basechar 0
AnchorPoint: "Anchor-3" 368 -181 basechar 0
AnchorPoint: "Anchor-0" 369 657 basechar 0
LayerCount: 2
Fore
SplineSet
369 -12 m 0x5a
 170 -12 50 117 50 329 c 0x5a
 50 532 171 669 369 669 c 0
 439 669 497 643 581 643 c 0
 621 643 641 660 641 679 c 0x6880
 641 704 609 735 609 756 c 0x59
 609 784 630 798 654 798 c 0
 685 798 712 777 712 726 c 0x6880
 712 692 690 613 589 613 c 0
 579 613 562 614 553 615 c 1
 553 609 l 1x6a
 640 551 687 459 687 338 c 0
 687 129 566 -12 369 -12 c 0x5a
370 30 m 0
 512 30 582 134 582 335 c 0
 582 515 496 627 366 627 c 0
 237 627 155 518 155 335 c 0
 155 147 226 30 370 30 c 0
368 -181 m 0xde
 334 -181 311 -155 311 -124 c 0
 311 -94 333 -68 368 -68 c 0
 403 -68 425 -94 425 -124 c 0
 425 -155 403 -181 368 -181 c 0xde
EndSplineSet
Substitution2: "'c2sc' Capitals to Small Capitals in Latin lookup 5 subtable" uni1EE2.c2sc
EndChar

StartChar: Oslash
Encoding: 216 216 170
Width: 737
GlyphClass: 2
Flags: MW
HStem: -12 42<333 441 333 467.5> 80 21G<134 134> 627 42<301.5 396> 649 20G<270 405.5>
VStem: 50 105<299 426.5 299 430.5> 582 105<234.5 373>
AnchorPoint: "Anchor-5" 419 0 basechar 0
AnchorPoint: "Anchor-4" 371 0 basechar 0
AnchorPoint: "Anchor-2" 369 0 basechar 0
AnchorPoint: "Anchor-0" 367 657 basechar 0
LayerCount: 2
Fore
SplineSet
369 -12 m 0xec
 285 -12 215 11 163 53 c 1
 106 -20 l 1
 75 4 l 1
 134 80 l 1
 79 139 50 224 50 329 c 0
 50 532 171 669 369 669 c 0
 442 669 504 651 554 618 c 1
 599 675 l 1xec
 630 651 l 1
 586 593 l 1xdc
 651 535 687 446 687 338 c 0
 687 129 566 -12 369 -12 c 0xec
370 30 m 0
 512 30 582 134 582 335 c 0
 582 411 565 479 534 530 c 1
 209 111 l 1
 244 60 296 30 370 30 c 0
189 148 m 1
 511 562 l 1
 475 603 426 627 366 627 c 0
 237 627 155 518 155 335 c 0
 155 263 166 199 189 148 c 1
EndSplineSet
Substitution2: "'c2sc' Capitals to Small Capitals in Latin lookup 5 subtable" Oslash.c2sc
EndChar

StartChar: Oslashacute
Encoding: 510 510 171
Width: 737
GlyphClass: 2
Flags: MW
HStem: -12 42<333 441 333 467.5> 80 21G<134 134> 627 42<301.5 396> 649 20G<270 405.5> 698 128<271 476 271 476> 805 21<376 476>
VStem: 50 105<299 426.5 299 430.5> 582 105<234.5 373>
AnchorPoint: "Anchor-5" 419 0 basechar 0
AnchorPoint: "Anchor-4" 371 0 basechar 0
AnchorPoint: "Anchor-2" 369 0 basechar 0
AnchorPoint: "Anchor-1" 367 826 basechar 0
LayerCount: 2
Fore
SplineSet
369 -12 m 0xe7
 285 -12 215 11 163 53 c 1
 106 -20 l 1
 75 4 l 1
 134 80 l 1
 79 139 50 224 50 329 c 0
 50 532 171 669 369 669 c 0
 442 669 504 651 554 618 c 1
 599 675 l 1xe7
 630 651 l 1
 586 593 l 1xd7
 651 535 687 446 687 338 c 0
 687 129 566 -12 369 -12 c 0xe7
370 30 m 0
 512 30 582 134 582 335 c 0
 582 411 565 479 534 530 c 1
 209 111 l 1
 244 60 296 30 370 30 c 0
189 148 m 1
 511 562 l 1
 475 603 426 627 366 627 c 0
 237 627 155 518 155 335 c 0
 155 263 166 199 189 148 c 1
317 698 m 1xeb
 271 698 l 1xeb
 376 826 l 1
 476 826 l 1
 476 805 l 1xe7
 317 698 l 1xeb
EndSplineSet
Substitution2: "'c2sc' Capitals to Small Capitals in Latin lookup 5 subtable" Oslashacute.c2sc
EndChar

StartChar: OE
Encoding: 338 338 172
Width: 945
GlyphClass: 2
Flags: MW
HStem: -12 42<284.5 382.5> 0 44<554 673 673 750.5> 319 39<554 660 554 660> 493 164<855 880 489 886 855 855> 612 45<554 668 554 554> 627 42<298.5 391.5 270 398.5>
VStem: 50 105<263 418 263 430.5> 462 92<106 319 358 558 558 576.5> 772 33<226 267 417.5 458> 855 28
AnchorPoint: "Anchor-5" 783 0 basechar 0
AnchorPoint: "Anchor-4" 493 0 basechar 0
AnchorPoint: "Anchor-2" 492 0 basechar 0
AnchorPoint: "Anchor-0" 514 657 basechar 0
LayerCount: 2
Fore
SplineSet
362 -12 m 0xab80
 178 -12 50 111 50 329 c 0
 50 532 173 669 367 669 c 0x6780
 416 669 460 663 489 657 c 1
 880 657 l 1x6bc0
 886 493 l 1
 855 493 l 1x73c0
 839 599 810 612 668 612 c 2
 554 612 l 1
 554 358 l 1
 660 358 l 2
 753 358 772 377 772 458 c 1
 805 458 l 1
 805 226 l 1
 772 226 l 1
 772 308 753 319 660 319 c 2
 554 319 l 1
 554 44 l 1
 673 44 l 2
 828 44 846 66 885 186 c 1
 917 186 l 1
 888 0 l 1
 493 0 l 1x6b80
 465 -5 403 -12 362 -12 c 0xab80
369 30 m 0xa780
 429 30 462 55 462 106 c 2
 462 558 l 2
 462 595 431 627 366 627 c 0
 231 627 155 501 155 335 c 0
 155 191 200 30 369 30 c 0xa780
EndSplineSet
Substitution2: "'c2sc' Capitals to Small Capitals in Latin lookup 5 subtable" OE.c2sc
EndChar

StartChar: uni1E54
Encoding: 7764 7764 173
Width: 569
GlyphClass: 2
Flags: MW
HStem: 0 30<44 83 285.5 326 44 83> 286 41<272 333 269 347.5> 618 39<275 297 297 339> 627 30<48 80> 698 128<196 401 196 401> 805 21<301 401>
VStem: 133 92<127 294 331 557 557 586.5> 445 99<419 522>
AnchorPoint: "Anchor-5" 167 0 basechar 0
AnchorPoint: "Anchor-4" 190 0 basechar 0
AnchorPoint: "Anchor-2" 172 0 basechar 0
AnchorPoint: "Anchor-1" 292 826 basechar 0
LayerCount: 2
Fore
SplineSet
326 0 m 1xe7
 44 0 l 1
 44 30 l 1
 122 30 133 43 133 127 c 2
 133 557 l 2
 133 616 112 627 48 627 c 1xd7
 48 657 l 1
 297 657 l 2
 425 657 544 624 544 491 c 0
 544 335 413 286 282 286 c 0
 262 286 236 289 225 294 c 1
 225 123 l 2
 225 41 245 30 326 30 c 1
 326 0 l 1xe7
279 327 m 0
 387 327 445 361 445 477 c 0
 445 567 393 618 285 618 c 0
 265 618 246 616 225 614 c 1xe7
 225 331 l 1
 236 329 259 327 279 327 c 0
242 698 m 1xeb
 196 698 l 1xeb
 301 826 l 1
 401 826 l 1
 401 805 l 1xe7
 242 698 l 1xeb
EndSplineSet
Substitution2: "'c2sc' Capitals to Small Capitals in Latin lookup 5 subtable" uni1E54.c2sc
EndChar

StartChar: uni1E56
Encoding: 7766 7766 174
Width: 569
GlyphClass: 2
Flags: MW
HStem: 0 30<44 83 285.5 326 44 83> 286 41<272 333 269 347.5> 618 39<275 297 297 339> 627 30<48 80> 705 112<275.5 309.5>
VStem: 133 92<127 294 331 557 557 586.5> 236 113<746 776> 445 99<419 522>
AnchorPoint: "Anchor-5" 167 0 basechar 0
AnchorPoint: "Anchor-4" 190 0 basechar 0
AnchorPoint: "Anchor-2" 172 0 basechar 0
AnchorPoint: "Anchor-1" 292 817 basechar 0
LayerCount: 2
Fore
SplineSet
326 0 m 1xe5
 44 0 l 1
 44 30 l 1
 122 30 133 43 133 127 c 2
 133 557 l 2
 133 616 112 627 48 627 c 1xd5
 48 657 l 1
 297 657 l 2
 425 657 544 624 544 491 c 0
 544 335 413 286 282 286 c 0
 262 286 236 289 225 294 c 1
 225 123 l 2
 225 41 245 30 326 30 c 1
 326 0 l 1xe5
279 327 m 0
 387 327 445 361 445 477 c 0
 445 567 393 618 285 618 c 0
 265 618 246 616 225 614 c 1xe5
 225 331 l 1
 236 329 259 327 279 327 c 0
292 705 m 0xef
 259 705 236 731 236 761 c 0
 236 791 258 817 292 817 c 0
 327 817 349 791 349 761 c 0
 349 731 327 705 292 705 c 0xef
EndSplineSet
Substitution2: "'c2sc' Capitals to Small Capitals in Latin lookup 5 subtable" uni1E56.c2sc
EndChar

StartChar: Racute
Encoding: 340 340 175
Width: 659
GlyphClass: 2
Flags: MW
HStem: 0 30<43 80.5 281 324 43 80.5 641 664> 301 38<225 263> 618 39<280 289 289 345> 627 30<43 83> 698 128<216 421 216 421> 805 21<321 421>
VStem: 132 93<124 301 340 553 553 580.5> 446 101<437 529>
AnchorPoint: "Anchor-5" 348 0 basechar 0
AnchorPoint: "Anchor-4" 346 0 basechar 0
AnchorPoint: "Anchor-2" 332 0 basechar 0
AnchorPoint: "Anchor-1" 312 826 basechar 0
LayerCount: 2
Fore
SplineSet
324 0 m 1xe7
 43 0 l 1
 43 30 l 1
 118 30 132 40 132 124 c 2
 132 553 l 2
 132 608 123 627 43 627 c 1xd7
 43 657 l 1
 289 657 l 2
 439 657 547 620 547 493 c 0
 547 381 459 337 378 318 c 1
 378 314 l 1
 412 294 451 238 561 81 c 0
 593 37 618 30 664 30 c 1
 664 0 l 1
 499 0 l 1
 390 165 361 208 320 268 c 0
 300 298 289 301 253 301 c 2
 225 301 l 1
 225 124 l 2
 225 41 238 30 324 30 c 1
 324 0 l 1xe7
225 340 m 1
 263 339 l 1
 373 344 446 383 446 489 c 0
 446 569 399 618 291 618 c 0
 269 618 246 617 225 615 c 1xeb
 225 340 l 1
262 698 m 1
 216 698 l 1xeb
 321 826 l 1
 421 826 l 1
 421 805 l 1xe7
 262 698 l 1
EndSplineSet
Substitution2: "'c2sc' Capitals to Small Capitals in Latin lookup 5 subtable" Racute.c2sc
EndChar

StartChar: Rcaron
Encoding: 344 344 176
Width: 659
GlyphClass: 2
Flags: MW
HStem: 0 30<43 80.5 281 324 43 80.5 641 664> 301 38<225 263> 618 39<280 289 289 345> 627 30<43 83> 698 57<313 313 313 348 277 313> 698 138<165 348 165 277>
VStem: 132 93<124 301 340 553 553 580.5> 446 101<437 529>
AnchorPoint: "Anchor-5" 348 0 basechar 0
AnchorPoint: "Anchor-4" 346 0 basechar 0
AnchorPoint: "Anchor-2" 332 0 basechar 0
AnchorPoint: "Anchor-1" 312 836 basechar 0
LayerCount: 2
Fore
SplineSet
324 0 m 1xe3
 43 0 l 1
 43 30 l 1
 118 30 132 40 132 124 c 2
 132 553 l 2
 132 608 123 627 43 627 c 1xd3
 43 657 l 1
 289 657 l 2
 439 657 547 620 547 493 c 0
 547 381 459 337 378 318 c 1
 378 314 l 1
 412 294 451 238 561 81 c 0
 593 37 618 30 664 30 c 1
 664 0 l 1
 499 0 l 1
 390 165 361 208 320 268 c 0
 300 298 289 301 253 301 c 2
 225 301 l 1
 225 124 l 2
 225 41 238 30 324 30 c 1
 324 0 l 1xe3
225 340 m 1
 263 339 l 1
 373 344 446 383 446 489 c 0
 446 569 399 618 291 618 c 0
 269 618 246 617 225 615 c 1xe7
 225 340 l 1
348 698 m 1
 277 698 l 1
 165 836 l 1
 207 836 l 1xe7
 313 755 l 1xeb
 419 836 l 1
 459 836 l 1
 348 698 l 1
EndSplineSet
Substitution2: "'c2sc' Capitals to Small Capitals in Latin lookup 5 subtable" Rcaron.c2sc
EndChar

StartChar: uni1E5C
Encoding: 7772 7772 177
Width: 659
GlyphClass: 2
Flags: MW
HStem: -181 113<315 349.5> 0 30<43 80.5 281 324 43 80.5 641 664> 301 38<225 263> 618 39<280 289 289 345> 627 30<43 83> 726 53<165 459 165 459>
VStem: 132 93<124 301 340 553 553 580.5> 165 60 275 114<-139.5 -109> 446 101<437 529>
AnchorPoint: "Anchor-5" 348 0 basechar 0
AnchorPoint: "Anchor-4" 346 0 basechar 0
AnchorPoint: "Anchor-3" 332 -181 basechar 0
AnchorPoint: "Anchor-1" 312 779 basechar 0
LayerCount: 2
Fore
SplineSet
324 0 m 1x7640
 43 0 l 1
 43 30 l 1
 118 30 132 40 132 124 c 2
 132 553 l 2
 132 608 123 627 43 627 c 1x6e40
 43 657 l 1
 289 657 l 2
 439 657 547 620 547 493 c 0
 547 381 459 337 378 318 c 1
 378 314 l 1
 412 294 451 238 561 81 c 0
 593 37 618 30 664 30 c 1
 664 0 l 1
 499 0 l 1
 390 165 361 208 320 268 c 0
 300 298 289 301 253 301 c 2
 225 301 l 1
 225 124 l 2
 225 41 238 30 324 30 c 1
 324 0 l 1x7640
225 340 m 1
 263 339 l 1
 373 344 446 383 446 489 c 0
 446 569 399 618 291 618 c 0
 269 618 246 617 225 615 c 1x7640
 225 340 l 1
459 726 m 1
 165 726 l 1
 165 779 l 1xf5c0
 459 779 l 1
 459 726 l 1
332 -181 m 0
 298 -181 275 -155 275 -124 c 0
 275 -94 297 -68 332 -68 c 0
 367 -68 389 -94 389 -124 c 0
 389 -155 367 -181 332 -181 c 0
EndSplineSet
Substitution2: "'c2sc' Capitals to Small Capitals in Latin lookup 5 subtable" uni1E5C.c2sc
EndChar

StartChar: uni1E58
Encoding: 7768 7768 178
Width: 659
GlyphClass: 2
Flags: MW
HStem: 0 30<43 80.5 281 324 43 80.5 641 664> 301 38<225 263> 618 39<280 289 289 345> 627 30<43 83> 705 112<295.5 329.5>
VStem: 132 93<124 301 340 553 553 580.5> 256 113<746 776> 446 101<437 529>
AnchorPoint: "Anchor-5" 348 0 basechar 0
AnchorPoint: "Anchor-4" 346 0 basechar 0
AnchorPoint: "Anchor-2" 332 0 basechar 0
AnchorPoint: "Anchor-1" 312 817 basechar 0
LayerCount: 2
Fore
SplineSet
324 0 m 1xe5
 43 0 l 1
 43 30 l 1
 118 30 132 40 132 124 c 2
 132 553 l 2
 132 608 123 627 43 627 c 1xd5
 43 657 l 1
 289 657 l 2
 439 657 547 620 547 493 c 0
 547 381 459 337 378 318 c 1
 378 314 l 1
 412 294 451 238 561 81 c 0
 593 37 618 30 664 30 c 1
 664 0 l 1
 499 0 l 1
 390 165 361 208 320 268 c 0
 300 298 289 301 253 301 c 2
 225 301 l 1
 225 124 l 2
 225 41 238 30 324 30 c 1
 324 0 l 1xe5
225 340 m 1
 263 339 l 1
 373 344 446 383 446 489 c 0
 446 569 399 618 291 618 c 0
 269 618 246 617 225 615 c 1xef
 225 340 l 1
312 705 m 0
 279 705 256 731 256 761 c 0
 256 791 278 817 312 817 c 0
 347 817 369 791 369 761 c 0
 369 731 347 705 312 705 c 0
EndSplineSet
Substitution2: "'c2sc' Capitals to Small Capitals in Latin lookup 5 subtable" uni1E58.c2sc
EndChar

